M48
; DRILL file KiCad 10.0.5 date 2026-09-16T20:36:38
; FORMAT={-:-/ absolute / metric / decimal}
; #@! TF.CreationDate,2026-09-16T20:36:38-05:00
; #@! TF.GenerationSoftware,Kicad,Pcbnew,10.0.5
; #@! TF.FileFunction,Plated,1,4,PTH
FMAT,2
METRIC
; #@! TA.AperFunction,Plated,PTH,ViaDrill
T1C0.200
; #@! TA.AperFunction,Plated,PTH,ViaDrill
T2C0.300
; #@! TA.AperFunction,Plated,PTH,ComponentDrill
T3C0.650
; #@! TA.AperFunction,Plated,PTH,ComponentDrill
T4C0.750
; #@! TA.AperFunction,Plated,PTH,ComponentDrill
T5C1.000
%
G90
G05
T1
X73.773Y-87.3
X74.097Y-72.91
X75.591Y-86.165
X75.759Y-72.395
X75.829Y-89.681
X76.097Y-89.172
X76.725Y-85.33
X77.092Y-83.472
X77.462Y-82.692
X78.253Y-89.082
X78.292Y-84.5
X78.6Y-87.275
X78.85Y-83.825
X78.89Y-85.26
X79.083Y-87.3
X79.098Y-86.165
X79.19Y-81.947
X79.511Y-101.562
X79.656Y-94.24
X79.984Y-81.504
X79.992Y-81.992
X80.375Y-85.75
X80.398Y-85.259
X80.443Y-78.587
X80.443Y-93.912
X80.729Y-87.695
X80.873Y-86.094
X80.895Y-85.255
X81.142Y-101.086
X81.5Y-86.093
X81.598Y-88.058
X81.902Y-84.902
X81.913Y-82.587
X81.95Y-84.075
X81.998Y-90.725
X82.222Y-91.751
X82.335Y-87.888
X82.405Y-82.595
X82.483Y-79.455
X82.512Y-101.0
X82.512Y-101.981
X82.572Y-85.911
X82.775Y-82.274
X82.833Y-83.902
X83.044Y-87.759
X83.09Y-85.41
X83.095Y-88.49
X83.111Y-85.891
X83.481Y-87.481
X83.596Y-86.096
X83.96Y-87.46
X84.011Y-81.991
X84.49Y-82.079
X84.611Y-88.916
X84.975Y-83.747
X85.049Y-87.297
X85.16Y-85.872
X85.241Y-100.416
X85.32Y-85.255
X85.675Y-82.1
X85.711Y-84.132
X85.803Y-83.0
X86.275Y-89.522
X86.428Y-83.886
X86.448Y-104.448
X86.688Y-88.81
X87.246Y-85.009
X87.46Y-71.659
X88.069Y-88.978
X88.365Y-88.358
X88.569Y-87.206
X88.875Y-90.448
X89.854Y-71.659
X90.0Y-92.661
X93.122Y-71.534
X105.618Y-106.476
X108.767Y-56.756
X108.923Y-57.826
X109.751Y-89.869
X110.268Y-101.476
X110.632Y-88.273
X112.673Y-118.52
X113.231Y-110.533
X113.235Y-56.966
X113.242Y-109.227
X113.341Y-58.517
X114.809Y-110.125
X117.75Y-109.561
X121.862Y-113.993
X122.444Y-119.444
X126.222Y-109.905
X127.686Y-108.049
X128.693Y-87.462
X129.744Y-88.044
X130.52Y-83.0
X132.091Y-91.047
X132.524Y-85.007
X132.964Y-83.532
X133.124Y-87.259
X133.145Y-71.53
X133.302Y-89.173
X133.475Y-83.5
X133.525Y-86.605
X133.824Y-82.174
X133.921Y-90.182
X134.696Y-85.303
X134.931Y-101.0
X134.951Y-88.082
X135.176Y-87.316
X135.197Y-81.846
X135.555Y-87.954
X135.684Y-90.511
X135.99Y-81.99
X136.04Y-90.838
X136.262Y-81.575
X136.353Y-90.257
X136.401Y-85.254
X136.507Y-87.493
X136.537Y-86.098
X136.687Y-88.231
X136.88Y-85.27
X137.044Y-86.073
X137.172Y-83.902
X137.525Y-86.075
X137.688Y-82.313
X137.821Y-90.181
X138.062Y-85.088
X138.07Y-79.455
X138.096Y-82.589
X138.121Y-83.902
X138.433Y-100.39
X138.55Y-86.096
X138.577Y-90.273
X138.833Y-83.902
X139.005Y-79.468
X139.139Y-85.339
X139.219Y-87.932
X139.592Y-85.806
X140.0Y-91.469
X140.01Y-81.99
X140.496Y-82.082
X140.859Y-101.0
X140.917Y-86.545
X141.0Y-71.584
X141.017Y-83.725
X141.674Y-83.998
X141.81Y-83.0
X142.037Y-85.262
X142.145Y-82.198
X142.275Y-92.737
X142.527Y-83.5
X143.037Y-90.512
X143.3Y-81.986
X143.668Y-80.077
X143.729Y-70.925
X144.237Y-71.254
X144.244Y-86.594
X144.518Y-87.259
X144.736Y-88.225
X144.906Y-89.181
X145.236Y-91.956
T2
X54.0Y-95.0
X54.0Y-115.0
X60.0Y-60.0
X60.0Y-80.0
X65.0Y-53.0
X65.0Y-128.0
X90.0Y-128.0
X100.0Y-53.0
X110.0Y-80.0
X120.0Y-53.0
X120.0Y-60.0
X120.0Y-100.0
X130.0Y-128.0
X155.0Y-53.0
X155.0Y-128.0
X160.0Y-60.0
X160.0Y-80.0
X166.0Y-95.0
X166.0Y-115.0
T3
X80.0Y-113.0
X81.27Y-113.0
X82.54Y-113.0
X83.81Y-113.0
X85.08Y-113.0
X135.0Y-113.0
X136.27Y-113.0
X137.54Y-113.0
X138.81Y-113.0
X140.08Y-113.0
T4
X105.0Y-123.0
X107.0Y-123.0
X109.0Y-123.0
X111.0Y-123.0
X113.0Y-123.0
X115.0Y-123.0
T5
X71.0Y-123.0
X72.46Y-69.0
X73.54Y-123.0
X75.0Y-69.0
X76.08Y-123.0
X77.54Y-69.0
X78.62Y-123.0
X87.46Y-69.0
X90.0Y-69.0
X92.54Y-69.0
X127.46Y-69.0
X130.0Y-69.0
X132.54Y-69.0
X141.0Y-123.0
X142.46Y-69.0
X143.54Y-123.0
X145.0Y-69.0
X146.08Y-123.0
X147.54Y-69.0
X148.62Y-123.0
M30
