%TF.GenerationSoftware,KiCad,Pcbnew,10.0.5*%
%TF.CreationDate,2026-09-16T20:36:37-05:00*%
%TF.ProjectId,ECSense_4CH_I2C,45435365-6e73-4655-9f34-43485f493243,B*%
%TF.SameCoordinates,Original*%
%TF.FileFunction,Legend,Bot*%
%TF.FilePolarity,Positive*%
%FSLAX46Y46*%
G04 Gerber Fmt 4.6, Leading zero omitted, Abs format (unit mm)*
G04 Created by KiCad (PCBNEW 10.0.5) date 2026-09-16 20:36:37*
%MOMM*%
%LPD*%
G01*
G04 APERTURE LIST*
%ADD10C,0.120000*%
%ADD11C,0.150000*%
%ADD12C,0.100000*%
G04 APERTURE END LIST*
D10*
X122517855Y-77947867D02*
X122267855Y-77947867D01*
X122160712Y-78340724D02*
X122517855Y-78340724D01*
X122517855Y-78340724D02*
X122517855Y-77590724D01*
X122517855Y-77590724D02*
X122160712Y-77590724D01*
X121874998Y-78305010D02*
X121767856Y-78340724D01*
X121767856Y-78340724D02*
X121589284Y-78340724D01*
X121589284Y-78340724D02*
X121517856Y-78305010D01*
X121517856Y-78305010D02*
X121482141Y-78269295D01*
X121482141Y-78269295D02*
X121446427Y-78197867D01*
X121446427Y-78197867D02*
X121446427Y-78126438D01*
X121446427Y-78126438D02*
X121482141Y-78055010D01*
X121482141Y-78055010D02*
X121517856Y-78019295D01*
X121517856Y-78019295D02*
X121589284Y-77983581D01*
X121589284Y-77983581D02*
X121732141Y-77947867D01*
X121732141Y-77947867D02*
X121803570Y-77912152D01*
X121803570Y-77912152D02*
X121839284Y-77876438D01*
X121839284Y-77876438D02*
X121874998Y-77805010D01*
X121874998Y-77805010D02*
X121874998Y-77733581D01*
X121874998Y-77733581D02*
X121839284Y-77662152D01*
X121839284Y-77662152D02*
X121803570Y-77626438D01*
X121803570Y-77626438D02*
X121732141Y-77590724D01*
X121732141Y-77590724D02*
X121553570Y-77590724D01*
X121553570Y-77590724D02*
X121446427Y-77626438D01*
X120732141Y-78340724D02*
X121160712Y-78340724D01*
X120946427Y-78340724D02*
X120946427Y-77590724D01*
X120946427Y-77590724D02*
X121017855Y-77697867D01*
X121017855Y-77697867D02*
X121089284Y-77769295D01*
X121089284Y-77769295D02*
X121160712Y-77805010D01*
X120410712Y-78269295D02*
X120374998Y-78305010D01*
X120374998Y-78305010D02*
X120410712Y-78340724D01*
X120410712Y-78340724D02*
X120446426Y-78305010D01*
X120446426Y-78305010D02*
X120410712Y-78269295D01*
X120410712Y-78269295D02*
X120410712Y-78340724D01*
X120410712Y-77876438D02*
X120374998Y-77912152D01*
X120374998Y-77912152D02*
X120410712Y-77947867D01*
X120410712Y-77947867D02*
X120446426Y-77912152D01*
X120446426Y-77912152D02*
X120410712Y-77876438D01*
X120410712Y-77876438D02*
X120410712Y-77947867D01*
X119053569Y-78269295D02*
X119089283Y-78305010D01*
X119089283Y-78305010D02*
X119196426Y-78340724D01*
X119196426Y-78340724D02*
X119267854Y-78340724D01*
X119267854Y-78340724D02*
X119374997Y-78305010D01*
X119374997Y-78305010D02*
X119446426Y-78233581D01*
X119446426Y-78233581D02*
X119482140Y-78162152D01*
X119482140Y-78162152D02*
X119517854Y-78019295D01*
X119517854Y-78019295D02*
X119517854Y-77912152D01*
X119517854Y-77912152D02*
X119482140Y-77769295D01*
X119482140Y-77769295D02*
X119446426Y-77697867D01*
X119446426Y-77697867D02*
X119374997Y-77626438D01*
X119374997Y-77626438D02*
X119267854Y-77590724D01*
X119267854Y-77590724D02*
X119196426Y-77590724D01*
X119196426Y-77590724D02*
X119089283Y-77626438D01*
X119089283Y-77626438D02*
X119053569Y-77662152D01*
X118732140Y-77947867D02*
X118160712Y-77947867D01*
X118160712Y-78162152D02*
X118732140Y-78162152D01*
X117374998Y-78269295D02*
X117410712Y-78305010D01*
X117410712Y-78305010D02*
X117517855Y-78340724D01*
X117517855Y-78340724D02*
X117589283Y-78340724D01*
X117589283Y-78340724D02*
X117696426Y-78305010D01*
X117696426Y-78305010D02*
X117767855Y-78233581D01*
X117767855Y-78233581D02*
X117803569Y-78162152D01*
X117803569Y-78162152D02*
X117839283Y-78019295D01*
X117839283Y-78019295D02*
X117839283Y-77912152D01*
X117839283Y-77912152D02*
X117803569Y-77769295D01*
X117803569Y-77769295D02*
X117767855Y-77697867D01*
X117767855Y-77697867D02*
X117696426Y-77626438D01*
X117696426Y-77626438D02*
X117589283Y-77590724D01*
X117589283Y-77590724D02*
X117517855Y-77590724D01*
X117517855Y-77590724D02*
X117410712Y-77626438D01*
X117410712Y-77626438D02*
X117374998Y-77662152D01*
X116910712Y-77590724D02*
X116767855Y-77590724D01*
X116767855Y-77590724D02*
X116696426Y-77626438D01*
X116696426Y-77626438D02*
X116624998Y-77697867D01*
X116624998Y-77697867D02*
X116589283Y-77840724D01*
X116589283Y-77840724D02*
X116589283Y-78090724D01*
X116589283Y-78090724D02*
X116624998Y-78233581D01*
X116624998Y-78233581D02*
X116696426Y-78305010D01*
X116696426Y-78305010D02*
X116767855Y-78340724D01*
X116767855Y-78340724D02*
X116910712Y-78340724D01*
X116910712Y-78340724D02*
X116982141Y-78305010D01*
X116982141Y-78305010D02*
X117053569Y-78233581D01*
X117053569Y-78233581D02*
X117089283Y-78090724D01*
X117089283Y-78090724D02*
X117089283Y-77840724D01*
X117089283Y-77840724D02*
X117053569Y-77697867D01*
X117053569Y-77697867D02*
X116982141Y-77626438D01*
X116982141Y-77626438D02*
X116910712Y-77590724D01*
X116267855Y-77590724D02*
X116267855Y-78197867D01*
X116267855Y-78197867D02*
X116232141Y-78269295D01*
X116232141Y-78269295D02*
X116196427Y-78305010D01*
X116196427Y-78305010D02*
X116124998Y-78340724D01*
X116124998Y-78340724D02*
X115982141Y-78340724D01*
X115982141Y-78340724D02*
X115910712Y-78305010D01*
X115910712Y-78305010D02*
X115874998Y-78269295D01*
X115874998Y-78269295D02*
X115839284Y-78197867D01*
X115839284Y-78197867D02*
X115839284Y-77590724D01*
X115482141Y-78340724D02*
X115482141Y-77590724D01*
X115482141Y-77590724D02*
X115053570Y-78340724D01*
X115053570Y-78340724D02*
X115053570Y-77590724D01*
X114803570Y-77590724D02*
X114374999Y-77590724D01*
X114589284Y-78340724D02*
X114589284Y-77590724D01*
X114124998Y-77947867D02*
X113874998Y-77947867D01*
X113767855Y-78340724D02*
X114124998Y-78340724D01*
X114124998Y-78340724D02*
X114124998Y-77590724D01*
X114124998Y-77590724D02*
X113767855Y-77590724D01*
X113017856Y-78340724D02*
X113267856Y-77983581D01*
X113446427Y-78340724D02*
X113446427Y-77590724D01*
X113446427Y-77590724D02*
X113160713Y-77590724D01*
X113160713Y-77590724D02*
X113089284Y-77626438D01*
X113089284Y-77626438D02*
X113053570Y-77662152D01*
X113053570Y-77662152D02*
X113017856Y-77733581D01*
X113017856Y-77733581D02*
X113017856Y-77840724D01*
X113017856Y-77840724D02*
X113053570Y-77912152D01*
X113053570Y-77912152D02*
X113089284Y-77947867D01*
X113089284Y-77947867D02*
X113160713Y-77983581D01*
X113160713Y-77983581D02*
X113446427Y-77983581D01*
X111589283Y-78305010D02*
X111482141Y-78340724D01*
X111482141Y-78340724D02*
X111303569Y-78340724D01*
X111303569Y-78340724D02*
X111232141Y-78305010D01*
X111232141Y-78305010D02*
X111196426Y-78269295D01*
X111196426Y-78269295D02*
X111160712Y-78197867D01*
X111160712Y-78197867D02*
X111160712Y-78126438D01*
X111160712Y-78126438D02*
X111196426Y-78055010D01*
X111196426Y-78055010D02*
X111232141Y-78019295D01*
X111232141Y-78019295D02*
X111303569Y-77983581D01*
X111303569Y-77983581D02*
X111446426Y-77947867D01*
X111446426Y-77947867D02*
X111517855Y-77912152D01*
X111517855Y-77912152D02*
X111553569Y-77876438D01*
X111553569Y-77876438D02*
X111589283Y-77805010D01*
X111589283Y-77805010D02*
X111589283Y-77733581D01*
X111589283Y-77733581D02*
X111553569Y-77662152D01*
X111553569Y-77662152D02*
X111517855Y-77626438D01*
X111517855Y-77626438D02*
X111446426Y-77590724D01*
X111446426Y-77590724D02*
X111267855Y-77590724D01*
X111267855Y-77590724D02*
X111160712Y-77626438D01*
X110839283Y-77947867D02*
X110267855Y-77947867D01*
X110267855Y-78162152D02*
X110839283Y-78162152D01*
X109946426Y-78305010D02*
X109839284Y-78340724D01*
X109839284Y-78340724D02*
X109660712Y-78340724D01*
X109660712Y-78340724D02*
X109589284Y-78305010D01*
X109589284Y-78305010D02*
X109553569Y-78269295D01*
X109553569Y-78269295D02*
X109517855Y-78197867D01*
X109517855Y-78197867D02*
X109517855Y-78126438D01*
X109517855Y-78126438D02*
X109553569Y-78055010D01*
X109553569Y-78055010D02*
X109589284Y-78019295D01*
X109589284Y-78019295D02*
X109660712Y-77983581D01*
X109660712Y-77983581D02*
X109803569Y-77947867D01*
X109803569Y-77947867D02*
X109874998Y-77912152D01*
X109874998Y-77912152D02*
X109910712Y-77876438D01*
X109910712Y-77876438D02*
X109946426Y-77805010D01*
X109946426Y-77805010D02*
X109946426Y-77733581D01*
X109946426Y-77733581D02*
X109910712Y-77662152D01*
X109910712Y-77662152D02*
X109874998Y-77626438D01*
X109874998Y-77626438D02*
X109803569Y-77590724D01*
X109803569Y-77590724D02*
X109624998Y-77590724D01*
X109624998Y-77590724D02*
X109517855Y-77626438D01*
X109196426Y-77947867D02*
X108946426Y-77947867D01*
X108839283Y-78340724D02*
X109196426Y-78340724D01*
X109196426Y-78340724D02*
X109196426Y-77590724D01*
X109196426Y-77590724D02*
X108839283Y-77590724D01*
X108517855Y-78340724D02*
X108517855Y-77590724D01*
X108517855Y-77590724D02*
X108089284Y-78340724D01*
X108089284Y-78340724D02*
X108089284Y-77590724D01*
X107767855Y-78305010D02*
X107660713Y-78340724D01*
X107660713Y-78340724D02*
X107482141Y-78340724D01*
X107482141Y-78340724D02*
X107410713Y-78305010D01*
X107410713Y-78305010D02*
X107374998Y-78269295D01*
X107374998Y-78269295D02*
X107339284Y-78197867D01*
X107339284Y-78197867D02*
X107339284Y-78126438D01*
X107339284Y-78126438D02*
X107374998Y-78055010D01*
X107374998Y-78055010D02*
X107410713Y-78019295D01*
X107410713Y-78019295D02*
X107482141Y-77983581D01*
X107482141Y-77983581D02*
X107624998Y-77947867D01*
X107624998Y-77947867D02*
X107696427Y-77912152D01*
X107696427Y-77912152D02*
X107732141Y-77876438D01*
X107732141Y-77876438D02*
X107767855Y-77805010D01*
X107767855Y-77805010D02*
X107767855Y-77733581D01*
X107767855Y-77733581D02*
X107732141Y-77662152D01*
X107732141Y-77662152D02*
X107696427Y-77626438D01*
X107696427Y-77626438D02*
X107624998Y-77590724D01*
X107624998Y-77590724D02*
X107446427Y-77590724D01*
X107446427Y-77590724D02*
X107339284Y-77626438D01*
X107017855Y-77947867D02*
X106767855Y-77947867D01*
X106660712Y-78340724D02*
X107017855Y-78340724D01*
X107017855Y-78340724D02*
X107017855Y-77590724D01*
X107017855Y-77590724D02*
X106660712Y-77590724D01*
X104767855Y-78340724D02*
X105017855Y-77983581D01*
X105196426Y-78340724D02*
X105196426Y-77590724D01*
X105196426Y-77590724D02*
X104910712Y-77590724D01*
X104910712Y-77590724D02*
X104839283Y-77626438D01*
X104839283Y-77626438D02*
X104803569Y-77662152D01*
X104803569Y-77662152D02*
X104767855Y-77733581D01*
X104767855Y-77733581D02*
X104767855Y-77840724D01*
X104767855Y-77840724D02*
X104803569Y-77912152D01*
X104803569Y-77912152D02*
X104839283Y-77947867D01*
X104839283Y-77947867D02*
X104910712Y-77983581D01*
X104910712Y-77983581D02*
X105196426Y-77983581D01*
X104446426Y-77947867D02*
X103874998Y-77947867D01*
X103874998Y-78162152D02*
X104446426Y-78162152D01*
X103089284Y-78340724D02*
X103339284Y-77983581D01*
X103517855Y-78340724D02*
X103517855Y-77590724D01*
X103517855Y-77590724D02*
X103232141Y-77590724D01*
X103232141Y-77590724D02*
X103160712Y-77626438D01*
X103160712Y-77626438D02*
X103124998Y-77662152D01*
X103124998Y-77662152D02*
X103089284Y-77733581D01*
X103089284Y-77733581D02*
X103089284Y-77840724D01*
X103089284Y-77840724D02*
X103124998Y-77912152D01*
X103124998Y-77912152D02*
X103160712Y-77947867D01*
X103160712Y-77947867D02*
X103232141Y-77983581D01*
X103232141Y-77983581D02*
X103517855Y-77983581D01*
X102767855Y-77947867D02*
X102517855Y-77947867D01*
X102410712Y-78340724D02*
X102767855Y-78340724D01*
X102767855Y-78340724D02*
X102767855Y-77590724D01*
X102767855Y-77590724D02*
X102410712Y-77590724D01*
X101839284Y-77947867D02*
X102089284Y-77947867D01*
X102089284Y-78340724D02*
X102089284Y-77590724D01*
X102089284Y-77590724D02*
X101732141Y-77590724D01*
X101446427Y-77947867D02*
X101196427Y-77947867D01*
X101089284Y-78340724D02*
X101446427Y-78340724D01*
X101446427Y-78340724D02*
X101446427Y-77590724D01*
X101446427Y-77590724D02*
X101089284Y-77590724D01*
X100339285Y-78340724D02*
X100589285Y-77983581D01*
X100767856Y-78340724D02*
X100767856Y-77590724D01*
X100767856Y-77590724D02*
X100482142Y-77590724D01*
X100482142Y-77590724D02*
X100410713Y-77626438D01*
X100410713Y-77626438D02*
X100374999Y-77662152D01*
X100374999Y-77662152D02*
X100339285Y-77733581D01*
X100339285Y-77733581D02*
X100339285Y-77840724D01*
X100339285Y-77840724D02*
X100374999Y-77912152D01*
X100374999Y-77912152D02*
X100410713Y-77947867D01*
X100410713Y-77947867D02*
X100482142Y-77983581D01*
X100482142Y-77983581D02*
X100767856Y-77983581D01*
X100017856Y-77947867D02*
X99767856Y-77947867D01*
X99660713Y-78340724D02*
X100017856Y-78340724D01*
X100017856Y-78340724D02*
X100017856Y-77590724D01*
X100017856Y-77590724D02*
X99660713Y-77590724D01*
X99339285Y-78340724D02*
X99339285Y-77590724D01*
X99339285Y-77590724D02*
X98910714Y-78340724D01*
X98910714Y-78340724D02*
X98910714Y-77590724D01*
X98125000Y-78269295D02*
X98160714Y-78305010D01*
X98160714Y-78305010D02*
X98267857Y-78340724D01*
X98267857Y-78340724D02*
X98339285Y-78340724D01*
X98339285Y-78340724D02*
X98446428Y-78305010D01*
X98446428Y-78305010D02*
X98517857Y-78233581D01*
X98517857Y-78233581D02*
X98553571Y-78162152D01*
X98553571Y-78162152D02*
X98589285Y-78019295D01*
X98589285Y-78019295D02*
X98589285Y-77912152D01*
X98589285Y-77912152D02*
X98553571Y-77769295D01*
X98553571Y-77769295D02*
X98517857Y-77697867D01*
X98517857Y-77697867D02*
X98446428Y-77626438D01*
X98446428Y-77626438D02*
X98339285Y-77590724D01*
X98339285Y-77590724D02*
X98267857Y-77590724D01*
X98267857Y-77590724D02*
X98160714Y-77626438D01*
X98160714Y-77626438D02*
X98125000Y-77662152D01*
X97803571Y-77947867D02*
X97553571Y-77947867D01*
X97446428Y-78340724D02*
X97803571Y-78340724D01*
X97803571Y-78340724D02*
X97803571Y-77590724D01*
X97803571Y-77590724D02*
X97446428Y-77590724D01*
D11*
X121714285Y-101454819D02*
X121714285Y-102169104D01*
X121714285Y-102169104D02*
X121761904Y-102311961D01*
X121761904Y-102311961D02*
X121857142Y-102407200D01*
X121857142Y-102407200D02*
X121999999Y-102454819D01*
X121999999Y-102454819D02*
X122095237Y-102454819D01*
X121238094Y-102454819D02*
X121238094Y-101454819D01*
X121238094Y-101454819D02*
X120857142Y-101454819D01*
X120857142Y-101454819D02*
X120761904Y-101502438D01*
X120761904Y-101502438D02*
X120714285Y-101550057D01*
X120714285Y-101550057D02*
X120666666Y-101645295D01*
X120666666Y-101645295D02*
X120666666Y-101788152D01*
X120666666Y-101788152D02*
X120714285Y-101883390D01*
X120714285Y-101883390D02*
X120761904Y-101931009D01*
X120761904Y-101931009D02*
X120857142Y-101978628D01*
X120857142Y-101978628D02*
X121238094Y-101978628D01*
X119714285Y-102454819D02*
X120285713Y-102454819D01*
X119999999Y-102454819D02*
X119999999Y-101454819D01*
X119999999Y-101454819D02*
X120095237Y-101597676D01*
X120095237Y-101597676D02*
X120190475Y-101692914D01*
X120190475Y-101692914D02*
X120285713Y-101740533D01*
X119285713Y-102073866D02*
X118523809Y-102073866D01*
X117761904Y-101454819D02*
X117761904Y-102169104D01*
X117761904Y-102169104D02*
X117809523Y-102311961D01*
X117809523Y-102311961D02*
X117904761Y-102407200D01*
X117904761Y-102407200D02*
X118047618Y-102454819D01*
X118047618Y-102454819D02*
X118142856Y-102454819D01*
X117285713Y-102454819D02*
X117285713Y-101454819D01*
X117285713Y-101454819D02*
X116904761Y-101454819D01*
X116904761Y-101454819D02*
X116809523Y-101502438D01*
X116809523Y-101502438D02*
X116761904Y-101550057D01*
X116761904Y-101550057D02*
X116714285Y-101645295D01*
X116714285Y-101645295D02*
X116714285Y-101788152D01*
X116714285Y-101788152D02*
X116761904Y-101883390D01*
X116761904Y-101883390D02*
X116809523Y-101931009D01*
X116809523Y-101931009D02*
X116904761Y-101978628D01*
X116904761Y-101978628D02*
X117285713Y-101978628D01*
X115857142Y-101788152D02*
X115857142Y-102454819D01*
X116095237Y-101407200D02*
X116333332Y-102121485D01*
X116333332Y-102121485D02*
X115714285Y-102121485D01*
X115333332Y-102359580D02*
X115285713Y-102407200D01*
X115285713Y-102407200D02*
X115333332Y-102454819D01*
X115333332Y-102454819D02*
X115380951Y-102407200D01*
X115380951Y-102407200D02*
X115333332Y-102359580D01*
X115333332Y-102359580D02*
X115333332Y-102454819D01*
X115333332Y-101835771D02*
X115285713Y-101883390D01*
X115285713Y-101883390D02*
X115333332Y-101931009D01*
X115333332Y-101931009D02*
X115380951Y-101883390D01*
X115380951Y-101883390D02*
X115333332Y-101835771D01*
X115333332Y-101835771D02*
X115333332Y-101931009D01*
X113904761Y-101454819D02*
X113714285Y-101454819D01*
X113714285Y-101454819D02*
X113619047Y-101502438D01*
X113619047Y-101502438D02*
X113523809Y-101597676D01*
X113523809Y-101597676D02*
X113476190Y-101788152D01*
X113476190Y-101788152D02*
X113476190Y-102121485D01*
X113476190Y-102121485D02*
X113523809Y-102311961D01*
X113523809Y-102311961D02*
X113619047Y-102407200D01*
X113619047Y-102407200D02*
X113714285Y-102454819D01*
X113714285Y-102454819D02*
X113904761Y-102454819D01*
X113904761Y-102454819D02*
X113999999Y-102407200D01*
X113999999Y-102407200D02*
X114095237Y-102311961D01*
X114095237Y-102311961D02*
X114142856Y-102121485D01*
X114142856Y-102121485D02*
X114142856Y-101788152D01*
X114142856Y-101788152D02*
X114095237Y-101597676D01*
X114095237Y-101597676D02*
X113999999Y-101502438D01*
X113999999Y-101502438D02*
X113904761Y-101454819D01*
X113047618Y-102454819D02*
X113047618Y-101454819D01*
X113047618Y-101454819D02*
X112666666Y-101454819D01*
X112666666Y-101454819D02*
X112571428Y-101502438D01*
X112571428Y-101502438D02*
X112523809Y-101550057D01*
X112523809Y-101550057D02*
X112476190Y-101645295D01*
X112476190Y-101645295D02*
X112476190Y-101788152D01*
X112476190Y-101788152D02*
X112523809Y-101883390D01*
X112523809Y-101883390D02*
X112571428Y-101931009D01*
X112571428Y-101931009D02*
X112666666Y-101978628D01*
X112666666Y-101978628D02*
X113047618Y-101978628D01*
X112047618Y-101931009D02*
X111714285Y-101931009D01*
X111571428Y-102454819D02*
X112047618Y-102454819D01*
X112047618Y-102454819D02*
X112047618Y-101454819D01*
X112047618Y-101454819D02*
X111571428Y-101454819D01*
X111142856Y-102454819D02*
X111142856Y-101454819D01*
X111142856Y-101454819D02*
X110571428Y-102454819D01*
X110571428Y-102454819D02*
X110571428Y-101454819D01*
X108999999Y-101931009D02*
X109333332Y-101931009D01*
X109333332Y-102454819D02*
X109333332Y-101454819D01*
X109333332Y-101454819D02*
X108857142Y-101454819D01*
X108285713Y-101454819D02*
X108095237Y-101454819D01*
X108095237Y-101454819D02*
X107999999Y-101502438D01*
X107999999Y-101502438D02*
X107904761Y-101597676D01*
X107904761Y-101597676D02*
X107857142Y-101788152D01*
X107857142Y-101788152D02*
X107857142Y-102121485D01*
X107857142Y-102121485D02*
X107904761Y-102311961D01*
X107904761Y-102311961D02*
X107999999Y-102407200D01*
X107999999Y-102407200D02*
X108095237Y-102454819D01*
X108095237Y-102454819D02*
X108285713Y-102454819D01*
X108285713Y-102454819D02*
X108380951Y-102407200D01*
X108380951Y-102407200D02*
X108476189Y-102311961D01*
X108476189Y-102311961D02*
X108523808Y-102121485D01*
X108523808Y-102121485D02*
X108523808Y-101788152D01*
X108523808Y-101788152D02*
X108476189Y-101597676D01*
X108476189Y-101597676D02*
X108380951Y-101502438D01*
X108380951Y-101502438D02*
X108285713Y-101454819D01*
X106857142Y-102454819D02*
X107190475Y-101978628D01*
X107428570Y-102454819D02*
X107428570Y-101454819D01*
X107428570Y-101454819D02*
X107047618Y-101454819D01*
X107047618Y-101454819D02*
X106952380Y-101502438D01*
X106952380Y-101502438D02*
X106904761Y-101550057D01*
X106904761Y-101550057D02*
X106857142Y-101645295D01*
X106857142Y-101645295D02*
X106857142Y-101788152D01*
X106857142Y-101788152D02*
X106904761Y-101883390D01*
X106904761Y-101883390D02*
X106952380Y-101931009D01*
X106952380Y-101931009D02*
X107047618Y-101978628D01*
X107047618Y-101978628D02*
X107428570Y-101978628D01*
X105476189Y-101454819D02*
X105285713Y-101454819D01*
X105285713Y-101454819D02*
X105190475Y-101502438D01*
X105190475Y-101502438D02*
X105095237Y-101597676D01*
X105095237Y-101597676D02*
X105047618Y-101788152D01*
X105047618Y-101788152D02*
X105047618Y-102121485D01*
X105047618Y-102121485D02*
X105095237Y-102311961D01*
X105095237Y-102311961D02*
X105190475Y-102407200D01*
X105190475Y-102407200D02*
X105285713Y-102454819D01*
X105285713Y-102454819D02*
X105476189Y-102454819D01*
X105476189Y-102454819D02*
X105571427Y-102407200D01*
X105571427Y-102407200D02*
X105666665Y-102311961D01*
X105666665Y-102311961D02*
X105714284Y-102121485D01*
X105714284Y-102121485D02*
X105714284Y-101788152D01*
X105714284Y-101788152D02*
X105666665Y-101597676D01*
X105666665Y-101597676D02*
X105571427Y-101502438D01*
X105571427Y-101502438D02*
X105476189Y-101454819D01*
X104619046Y-102454819D02*
X104619046Y-101454819D01*
X104619046Y-101454819D02*
X104238094Y-101454819D01*
X104238094Y-101454819D02*
X104142856Y-101502438D01*
X104142856Y-101502438D02*
X104095237Y-101550057D01*
X104095237Y-101550057D02*
X104047618Y-101645295D01*
X104047618Y-101645295D02*
X104047618Y-101788152D01*
X104047618Y-101788152D02*
X104095237Y-101883390D01*
X104095237Y-101883390D02*
X104142856Y-101931009D01*
X104142856Y-101931009D02*
X104238094Y-101978628D01*
X104238094Y-101978628D02*
X104619046Y-101978628D01*
X103619046Y-101931009D02*
X103285713Y-101931009D01*
X103142856Y-102454819D02*
X103619046Y-102454819D01*
X103619046Y-102454819D02*
X103619046Y-101454819D01*
X103619046Y-101454819D02*
X103142856Y-101454819D01*
X102142856Y-102454819D02*
X102476189Y-101978628D01*
X102714284Y-102454819D02*
X102714284Y-101454819D01*
X102714284Y-101454819D02*
X102333332Y-101454819D01*
X102333332Y-101454819D02*
X102238094Y-101502438D01*
X102238094Y-101502438D02*
X102190475Y-101550057D01*
X102190475Y-101550057D02*
X102142856Y-101645295D01*
X102142856Y-101645295D02*
X102142856Y-101788152D01*
X102142856Y-101788152D02*
X102190475Y-101883390D01*
X102190475Y-101883390D02*
X102238094Y-101931009D01*
X102238094Y-101931009D02*
X102333332Y-101978628D01*
X102333332Y-101978628D02*
X102714284Y-101978628D01*
X101761903Y-102169104D02*
X101285713Y-102169104D01*
X101857141Y-102454819D02*
X101523808Y-101454819D01*
X101523808Y-101454819D02*
X101190475Y-102454819D01*
X100999998Y-101454819D02*
X100428570Y-101454819D01*
X100714284Y-102454819D02*
X100714284Y-101454819D01*
X100095236Y-102454819D02*
X100095236Y-101454819D01*
X99428570Y-101454819D02*
X99238094Y-101454819D01*
X99238094Y-101454819D02*
X99142856Y-101502438D01*
X99142856Y-101502438D02*
X99047618Y-101597676D01*
X99047618Y-101597676D02*
X98999999Y-101788152D01*
X98999999Y-101788152D02*
X98999999Y-102121485D01*
X98999999Y-102121485D02*
X99047618Y-102311961D01*
X99047618Y-102311961D02*
X99142856Y-102407200D01*
X99142856Y-102407200D02*
X99238094Y-102454819D01*
X99238094Y-102454819D02*
X99428570Y-102454819D01*
X99428570Y-102454819D02*
X99523808Y-102407200D01*
X99523808Y-102407200D02*
X99619046Y-102311961D01*
X99619046Y-102311961D02*
X99666665Y-102121485D01*
X99666665Y-102121485D02*
X99666665Y-101788152D01*
X99666665Y-101788152D02*
X99619046Y-101597676D01*
X99619046Y-101597676D02*
X99523808Y-101502438D01*
X99523808Y-101502438D02*
X99428570Y-101454819D01*
X98571427Y-102454819D02*
X98571427Y-101454819D01*
X98571427Y-101454819D02*
X97999999Y-102454819D01*
X97999999Y-102454819D02*
X97999999Y-101454819D01*
X128761904Y-118169104D02*
X128285714Y-118169104D01*
X128857142Y-118454819D02*
X128523809Y-117454819D01*
X128523809Y-117454819D02*
X128190476Y-118454819D01*
X127857142Y-118454819D02*
X127857142Y-117454819D01*
X127857142Y-117454819D02*
X127619047Y-117454819D01*
X127619047Y-117454819D02*
X127476190Y-117502438D01*
X127476190Y-117502438D02*
X127380952Y-117597676D01*
X127380952Y-117597676D02*
X127333333Y-117692914D01*
X127333333Y-117692914D02*
X127285714Y-117883390D01*
X127285714Y-117883390D02*
X127285714Y-118026247D01*
X127285714Y-118026247D02*
X127333333Y-118216723D01*
X127333333Y-118216723D02*
X127380952Y-118311961D01*
X127380952Y-118311961D02*
X127476190Y-118407200D01*
X127476190Y-118407200D02*
X127619047Y-118454819D01*
X127619047Y-118454819D02*
X127857142Y-118454819D01*
X126428571Y-117788152D02*
X126428571Y-118454819D01*
X126857142Y-117788152D02*
X126857142Y-118311961D01*
X126857142Y-118311961D02*
X126809523Y-118407200D01*
X126809523Y-118407200D02*
X126714285Y-118454819D01*
X126714285Y-118454819D02*
X126571428Y-118454819D01*
X126571428Y-118454819D02*
X126476190Y-118407200D01*
X126476190Y-118407200D02*
X126428571Y-118359580D01*
X125380952Y-118359580D02*
X125428571Y-118407200D01*
X125428571Y-118407200D02*
X125571428Y-118454819D01*
X125571428Y-118454819D02*
X125666666Y-118454819D01*
X125666666Y-118454819D02*
X125809523Y-118407200D01*
X125809523Y-118407200D02*
X125904761Y-118311961D01*
X125904761Y-118311961D02*
X125952380Y-118216723D01*
X125952380Y-118216723D02*
X125999999Y-118026247D01*
X125999999Y-118026247D02*
X125999999Y-117883390D01*
X125999999Y-117883390D02*
X125952380Y-117692914D01*
X125952380Y-117692914D02*
X125904761Y-117597676D01*
X125904761Y-117597676D02*
X125809523Y-117502438D01*
X125809523Y-117502438D02*
X125666666Y-117454819D01*
X125666666Y-117454819D02*
X125571428Y-117454819D01*
X125571428Y-117454819D02*
X125428571Y-117502438D01*
X125428571Y-117502438D02*
X125380952Y-117550057D01*
X124952380Y-118454819D02*
X124952380Y-117454819D01*
X124952380Y-117454819D02*
X124619047Y-118169104D01*
X124619047Y-118169104D02*
X124285714Y-117454819D01*
X124285714Y-117454819D02*
X124285714Y-118454819D01*
X123904761Y-117454819D02*
X123285714Y-117454819D01*
X123285714Y-117454819D02*
X123619047Y-117835771D01*
X123619047Y-117835771D02*
X123476190Y-117835771D01*
X123476190Y-117835771D02*
X123380952Y-117883390D01*
X123380952Y-117883390D02*
X123333333Y-117931009D01*
X123333333Y-117931009D02*
X123285714Y-118026247D01*
X123285714Y-118026247D02*
X123285714Y-118264342D01*
X123285714Y-118264342D02*
X123333333Y-118359580D01*
X123333333Y-118359580D02*
X123380952Y-118407200D01*
X123380952Y-118407200D02*
X123476190Y-118454819D01*
X123476190Y-118454819D02*
X123761904Y-118454819D01*
X123761904Y-118454819D02*
X123857142Y-118407200D01*
X123857142Y-118407200D02*
X123904761Y-118359580D01*
X122380952Y-117454819D02*
X122857142Y-117454819D01*
X122857142Y-117454819D02*
X122904761Y-117931009D01*
X122904761Y-117931009D02*
X122857142Y-117883390D01*
X122857142Y-117883390D02*
X122761904Y-117835771D01*
X122761904Y-117835771D02*
X122523809Y-117835771D01*
X122523809Y-117835771D02*
X122428571Y-117883390D01*
X122428571Y-117883390D02*
X122380952Y-117931009D01*
X122380952Y-117931009D02*
X122333333Y-118026247D01*
X122333333Y-118026247D02*
X122333333Y-118264342D01*
X122333333Y-118264342D02*
X122380952Y-118359580D01*
X122380952Y-118359580D02*
X122428571Y-118407200D01*
X122428571Y-118407200D02*
X122523809Y-118454819D01*
X122523809Y-118454819D02*
X122761904Y-118454819D01*
X122761904Y-118454819D02*
X122857142Y-118407200D01*
X122857142Y-118407200D02*
X122904761Y-118359580D01*
X121428571Y-117454819D02*
X121904761Y-117454819D01*
X121904761Y-117454819D02*
X121952380Y-117931009D01*
X121952380Y-117931009D02*
X121904761Y-117883390D01*
X121904761Y-117883390D02*
X121809523Y-117835771D01*
X121809523Y-117835771D02*
X121571428Y-117835771D01*
X121571428Y-117835771D02*
X121476190Y-117883390D01*
X121476190Y-117883390D02*
X121428571Y-117931009D01*
X121428571Y-117931009D02*
X121380952Y-118026247D01*
X121380952Y-118026247D02*
X121380952Y-118264342D01*
X121380952Y-118264342D02*
X121428571Y-118359580D01*
X121428571Y-118359580D02*
X121476190Y-118407200D01*
X121476190Y-118407200D02*
X121571428Y-118454819D01*
X121571428Y-118454819D02*
X121809523Y-118454819D01*
X121809523Y-118454819D02*
X121904761Y-118407200D01*
X121904761Y-118407200D02*
X121952380Y-118359580D01*
X119476190Y-117407200D02*
X120333332Y-118692914D01*
X117809523Y-118454819D02*
X118142856Y-117978628D01*
X118380951Y-118454819D02*
X118380951Y-117454819D01*
X118380951Y-117454819D02*
X117999999Y-117454819D01*
X117999999Y-117454819D02*
X117904761Y-117502438D01*
X117904761Y-117502438D02*
X117857142Y-117550057D01*
X117857142Y-117550057D02*
X117809523Y-117645295D01*
X117809523Y-117645295D02*
X117809523Y-117788152D01*
X117809523Y-117788152D02*
X117857142Y-117883390D01*
X117857142Y-117883390D02*
X117904761Y-117931009D01*
X117904761Y-117931009D02*
X117999999Y-117978628D01*
X117999999Y-117978628D02*
X118380951Y-117978628D01*
X117380951Y-117931009D02*
X117047618Y-117931009D01*
X116904761Y-118454819D02*
X117380951Y-118454819D01*
X117380951Y-118454819D02*
X117380951Y-117454819D01*
X117380951Y-117454819D02*
X116904761Y-117454819D01*
X115809523Y-118550057D02*
X115904761Y-118502438D01*
X115904761Y-118502438D02*
X115999999Y-118407200D01*
X115999999Y-118407200D02*
X116142856Y-118264342D01*
X116142856Y-118264342D02*
X116238094Y-118216723D01*
X116238094Y-118216723D02*
X116333332Y-118216723D01*
X116285713Y-118454819D02*
X116380951Y-118407200D01*
X116380951Y-118407200D02*
X116476189Y-118311961D01*
X116476189Y-118311961D02*
X116523808Y-118121485D01*
X116523808Y-118121485D02*
X116523808Y-117788152D01*
X116523808Y-117788152D02*
X116476189Y-117597676D01*
X116476189Y-117597676D02*
X116380951Y-117502438D01*
X116380951Y-117502438D02*
X116285713Y-117454819D01*
X116285713Y-117454819D02*
X116095237Y-117454819D01*
X116095237Y-117454819D02*
X115999999Y-117502438D01*
X115999999Y-117502438D02*
X115904761Y-117597676D01*
X115904761Y-117597676D02*
X115857142Y-117788152D01*
X115857142Y-117788152D02*
X115857142Y-118121485D01*
X115857142Y-118121485D02*
X115904761Y-118311961D01*
X115904761Y-118311961D02*
X115999999Y-118407200D01*
X115999999Y-118407200D02*
X116095237Y-118454819D01*
X116095237Y-118454819D02*
X116285713Y-118454819D01*
X115428570Y-117454819D02*
X115428570Y-118264342D01*
X115428570Y-118264342D02*
X115380951Y-118359580D01*
X115380951Y-118359580D02*
X115333332Y-118407200D01*
X115333332Y-118407200D02*
X115238094Y-118454819D01*
X115238094Y-118454819D02*
X115047618Y-118454819D01*
X115047618Y-118454819D02*
X114952380Y-118407200D01*
X114952380Y-118407200D02*
X114904761Y-118359580D01*
X114904761Y-118359580D02*
X114857142Y-118264342D01*
X114857142Y-118264342D02*
X114857142Y-117454819D01*
X114380951Y-118454819D02*
X114380951Y-117454819D01*
X113333333Y-118454819D02*
X113666666Y-117978628D01*
X113904761Y-118454819D02*
X113904761Y-117454819D01*
X113904761Y-117454819D02*
X113523809Y-117454819D01*
X113523809Y-117454819D02*
X113428571Y-117502438D01*
X113428571Y-117502438D02*
X113380952Y-117550057D01*
X113380952Y-117550057D02*
X113333333Y-117645295D01*
X113333333Y-117645295D02*
X113333333Y-117788152D01*
X113333333Y-117788152D02*
X113380952Y-117883390D01*
X113380952Y-117883390D02*
X113428571Y-117931009D01*
X113428571Y-117931009D02*
X113523809Y-117978628D01*
X113523809Y-117978628D02*
X113904761Y-117978628D01*
X112904761Y-117931009D02*
X112571428Y-117931009D01*
X112428571Y-118454819D02*
X112904761Y-118454819D01*
X112904761Y-118454819D02*
X112904761Y-117454819D01*
X112904761Y-117454819D02*
X112428571Y-117454819D01*
X112047618Y-118407200D02*
X111904761Y-118454819D01*
X111904761Y-118454819D02*
X111666666Y-118454819D01*
X111666666Y-118454819D02*
X111571428Y-118407200D01*
X111571428Y-118407200D02*
X111523809Y-118359580D01*
X111523809Y-118359580D02*
X111476190Y-118264342D01*
X111476190Y-118264342D02*
X111476190Y-118169104D01*
X111476190Y-118169104D02*
X111523809Y-118073866D01*
X111523809Y-118073866D02*
X111571428Y-118026247D01*
X111571428Y-118026247D02*
X111666666Y-117978628D01*
X111666666Y-117978628D02*
X111857142Y-117931009D01*
X111857142Y-117931009D02*
X111952380Y-117883390D01*
X111952380Y-117883390D02*
X111999999Y-117835771D01*
X111999999Y-117835771D02*
X112047618Y-117740533D01*
X112047618Y-117740533D02*
X112047618Y-117645295D01*
X112047618Y-117645295D02*
X111999999Y-117550057D01*
X111999999Y-117550057D02*
X111952380Y-117502438D01*
X111952380Y-117502438D02*
X111857142Y-117454819D01*
X111857142Y-117454819D02*
X111619047Y-117454819D01*
X111619047Y-117454819D02*
X111476190Y-117502438D01*
X109952380Y-117931009D02*
X110285713Y-117931009D01*
X110285713Y-118454819D02*
X110285713Y-117454819D01*
X110285713Y-117454819D02*
X109809523Y-117454819D01*
X109428570Y-118454819D02*
X109428570Y-117454819D01*
X108380952Y-118454819D02*
X108714285Y-117978628D01*
X108952380Y-118454819D02*
X108952380Y-117454819D01*
X108952380Y-117454819D02*
X108571428Y-117454819D01*
X108571428Y-117454819D02*
X108476190Y-117502438D01*
X108476190Y-117502438D02*
X108428571Y-117550057D01*
X108428571Y-117550057D02*
X108380952Y-117645295D01*
X108380952Y-117645295D02*
X108380952Y-117788152D01*
X108380952Y-117788152D02*
X108428571Y-117883390D01*
X108428571Y-117883390D02*
X108476190Y-117931009D01*
X108476190Y-117931009D02*
X108571428Y-117978628D01*
X108571428Y-117978628D02*
X108952380Y-117978628D01*
X107952380Y-118454819D02*
X107952380Y-117454819D01*
X107952380Y-117454819D02*
X107619047Y-118169104D01*
X107619047Y-118169104D02*
X107285714Y-117454819D01*
X107285714Y-117454819D02*
X107285714Y-118454819D01*
X106904761Y-117454819D02*
X106666666Y-118454819D01*
X106666666Y-118454819D02*
X106476190Y-117740533D01*
X106476190Y-117740533D02*
X106285714Y-118454819D01*
X106285714Y-118454819D02*
X106047619Y-117454819D01*
X105714285Y-118169104D02*
X105238095Y-118169104D01*
X105809523Y-118454819D02*
X105476190Y-117454819D01*
X105476190Y-117454819D02*
X105142857Y-118454819D01*
X104238095Y-118454819D02*
X104571428Y-117978628D01*
X104809523Y-118454819D02*
X104809523Y-117454819D01*
X104809523Y-117454819D02*
X104428571Y-117454819D01*
X104428571Y-117454819D02*
X104333333Y-117502438D01*
X104333333Y-117502438D02*
X104285714Y-117550057D01*
X104285714Y-117550057D02*
X104238095Y-117645295D01*
X104238095Y-117645295D02*
X104238095Y-117788152D01*
X104238095Y-117788152D02*
X104285714Y-117883390D01*
X104285714Y-117883390D02*
X104333333Y-117931009D01*
X104333333Y-117931009D02*
X104428571Y-117978628D01*
X104428571Y-117978628D02*
X104809523Y-117978628D01*
X103809523Y-117931009D02*
X103476190Y-117931009D01*
X103333333Y-118454819D02*
X103809523Y-118454819D01*
X103809523Y-118454819D02*
X103809523Y-117454819D01*
X103809523Y-117454819D02*
X103333333Y-117454819D01*
X102142856Y-118073866D02*
X101380952Y-118073866D01*
X101761904Y-118454819D02*
X101761904Y-117692914D01*
X99571428Y-118359580D02*
X99619047Y-118407200D01*
X99619047Y-118407200D02*
X99761904Y-118454819D01*
X99761904Y-118454819D02*
X99857142Y-118454819D01*
X99857142Y-118454819D02*
X99999999Y-118407200D01*
X99999999Y-118407200D02*
X100095237Y-118311961D01*
X100095237Y-118311961D02*
X100142856Y-118216723D01*
X100142856Y-118216723D02*
X100190475Y-118026247D01*
X100190475Y-118026247D02*
X100190475Y-117883390D01*
X100190475Y-117883390D02*
X100142856Y-117692914D01*
X100142856Y-117692914D02*
X100095237Y-117597676D01*
X100095237Y-117597676D02*
X99999999Y-117502438D01*
X99999999Y-117502438D02*
X99857142Y-117454819D01*
X99857142Y-117454819D02*
X99761904Y-117454819D01*
X99761904Y-117454819D02*
X99619047Y-117502438D01*
X99619047Y-117502438D02*
X99571428Y-117550057D01*
X99190475Y-118169104D02*
X98714285Y-118169104D01*
X99285713Y-118454819D02*
X98952380Y-117454819D01*
X98952380Y-117454819D02*
X98619047Y-118454819D01*
X97809523Y-118454819D02*
X98285713Y-118454819D01*
X98285713Y-118454819D02*
X98285713Y-117454819D01*
X97476189Y-118454819D02*
X97476189Y-117454819D01*
X96666666Y-117931009D02*
X96523809Y-117978628D01*
X96523809Y-117978628D02*
X96476190Y-118026247D01*
X96476190Y-118026247D02*
X96428571Y-118121485D01*
X96428571Y-118121485D02*
X96428571Y-118264342D01*
X96428571Y-118264342D02*
X96476190Y-118359580D01*
X96476190Y-118359580D02*
X96523809Y-118407200D01*
X96523809Y-118407200D02*
X96619047Y-118454819D01*
X96619047Y-118454819D02*
X96999999Y-118454819D01*
X96999999Y-118454819D02*
X96999999Y-117454819D01*
X96999999Y-117454819D02*
X96666666Y-117454819D01*
X96666666Y-117454819D02*
X96571428Y-117502438D01*
X96571428Y-117502438D02*
X96523809Y-117550057D01*
X96523809Y-117550057D02*
X96476190Y-117645295D01*
X96476190Y-117645295D02*
X96476190Y-117740533D01*
X96476190Y-117740533D02*
X96523809Y-117835771D01*
X96523809Y-117835771D02*
X96571428Y-117883390D01*
X96571428Y-117883390D02*
X96666666Y-117931009D01*
X96666666Y-117931009D02*
X96999999Y-117931009D01*
X95428571Y-118454819D02*
X95761904Y-117978628D01*
X95999999Y-118454819D02*
X95999999Y-117454819D01*
X95999999Y-117454819D02*
X95619047Y-117454819D01*
X95619047Y-117454819D02*
X95523809Y-117502438D01*
X95523809Y-117502438D02*
X95476190Y-117550057D01*
X95476190Y-117550057D02*
X95428571Y-117645295D01*
X95428571Y-117645295D02*
X95428571Y-117788152D01*
X95428571Y-117788152D02*
X95476190Y-117883390D01*
X95476190Y-117883390D02*
X95523809Y-117931009D01*
X95523809Y-117931009D02*
X95619047Y-117978628D01*
X95619047Y-117978628D02*
X95999999Y-117978628D01*
X95047618Y-118169104D02*
X94571428Y-118169104D01*
X95142856Y-118454819D02*
X94809523Y-117454819D01*
X94809523Y-117454819D02*
X94476190Y-118454819D01*
X94285713Y-117454819D02*
X93714285Y-117454819D01*
X93999999Y-118454819D02*
X93999999Y-117454819D01*
X93380951Y-118454819D02*
X93380951Y-117454819D01*
X92714285Y-117454819D02*
X92523809Y-117454819D01*
X92523809Y-117454819D02*
X92428571Y-117502438D01*
X92428571Y-117502438D02*
X92333333Y-117597676D01*
X92333333Y-117597676D02*
X92285714Y-117788152D01*
X92285714Y-117788152D02*
X92285714Y-118121485D01*
X92285714Y-118121485D02*
X92333333Y-118311961D01*
X92333333Y-118311961D02*
X92428571Y-118407200D01*
X92428571Y-118407200D02*
X92523809Y-118454819D01*
X92523809Y-118454819D02*
X92714285Y-118454819D01*
X92714285Y-118454819D02*
X92809523Y-118407200D01*
X92809523Y-118407200D02*
X92904761Y-118311961D01*
X92904761Y-118311961D02*
X92952380Y-118121485D01*
X92952380Y-118121485D02*
X92952380Y-117788152D01*
X92952380Y-117788152D02*
X92904761Y-117597676D01*
X92904761Y-117597676D02*
X92809523Y-117502438D01*
X92809523Y-117502438D02*
X92714285Y-117454819D01*
X91857142Y-118454819D02*
X91857142Y-117454819D01*
X91857142Y-117454819D02*
X91285714Y-118454819D01*
X91285714Y-118454819D02*
X91285714Y-117454819D01*
X120309522Y-125454819D02*
X119690475Y-125454819D01*
X119690475Y-125454819D02*
X120023808Y-125835771D01*
X120023808Y-125835771D02*
X119880951Y-125835771D01*
X119880951Y-125835771D02*
X119785713Y-125883390D01*
X119785713Y-125883390D02*
X119738094Y-125931009D01*
X119738094Y-125931009D02*
X119690475Y-126026247D01*
X119690475Y-126026247D02*
X119690475Y-126264342D01*
X119690475Y-126264342D02*
X119738094Y-126359580D01*
X119738094Y-126359580D02*
X119785713Y-126407200D01*
X119785713Y-126407200D02*
X119880951Y-126454819D01*
X119880951Y-126454819D02*
X120166665Y-126454819D01*
X120166665Y-126454819D02*
X120261903Y-126407200D01*
X120261903Y-126407200D02*
X120309522Y-126359580D01*
X119261903Y-126359580D02*
X119214284Y-126407200D01*
X119214284Y-126407200D02*
X119261903Y-126454819D01*
X119261903Y-126454819D02*
X119309522Y-126407200D01*
X119309522Y-126407200D02*
X119261903Y-126359580D01*
X119261903Y-126359580D02*
X119261903Y-126454819D01*
X118880951Y-125454819D02*
X118261904Y-125454819D01*
X118261904Y-125454819D02*
X118595237Y-125835771D01*
X118595237Y-125835771D02*
X118452380Y-125835771D01*
X118452380Y-125835771D02*
X118357142Y-125883390D01*
X118357142Y-125883390D02*
X118309523Y-125931009D01*
X118309523Y-125931009D02*
X118261904Y-126026247D01*
X118261904Y-126026247D02*
X118261904Y-126264342D01*
X118261904Y-126264342D02*
X118309523Y-126359580D01*
X118309523Y-126359580D02*
X118357142Y-126407200D01*
X118357142Y-126407200D02*
X118452380Y-126454819D01*
X118452380Y-126454819D02*
X118738094Y-126454819D01*
X118738094Y-126454819D02*
X118833332Y-126407200D01*
X118833332Y-126407200D02*
X118880951Y-126359580D01*
X117976189Y-125454819D02*
X117642856Y-126454819D01*
X117642856Y-126454819D02*
X117309523Y-125454819D01*
X115738094Y-126454819D02*
X116214284Y-126454819D01*
X116214284Y-126454819D02*
X116214284Y-125454819D01*
X115214284Y-125454819D02*
X115023808Y-125454819D01*
X115023808Y-125454819D02*
X114928570Y-125502438D01*
X114928570Y-125502438D02*
X114833332Y-125597676D01*
X114833332Y-125597676D02*
X114785713Y-125788152D01*
X114785713Y-125788152D02*
X114785713Y-126121485D01*
X114785713Y-126121485D02*
X114833332Y-126311961D01*
X114833332Y-126311961D02*
X114928570Y-126407200D01*
X114928570Y-126407200D02*
X115023808Y-126454819D01*
X115023808Y-126454819D02*
X115214284Y-126454819D01*
X115214284Y-126454819D02*
X115309522Y-126407200D01*
X115309522Y-126407200D02*
X115404760Y-126311961D01*
X115404760Y-126311961D02*
X115452379Y-126121485D01*
X115452379Y-126121485D02*
X115452379Y-125788152D01*
X115452379Y-125788152D02*
X115404760Y-125597676D01*
X115404760Y-125597676D02*
X115309522Y-125502438D01*
X115309522Y-125502438D02*
X115214284Y-125454819D01*
X113833332Y-125502438D02*
X113928570Y-125454819D01*
X113928570Y-125454819D02*
X114071427Y-125454819D01*
X114071427Y-125454819D02*
X114214284Y-125502438D01*
X114214284Y-125502438D02*
X114309522Y-125597676D01*
X114309522Y-125597676D02*
X114357141Y-125692914D01*
X114357141Y-125692914D02*
X114404760Y-125883390D01*
X114404760Y-125883390D02*
X114404760Y-126026247D01*
X114404760Y-126026247D02*
X114357141Y-126216723D01*
X114357141Y-126216723D02*
X114309522Y-126311961D01*
X114309522Y-126311961D02*
X114214284Y-126407200D01*
X114214284Y-126407200D02*
X114071427Y-126454819D01*
X114071427Y-126454819D02*
X113976189Y-126454819D01*
X113976189Y-126454819D02*
X113833332Y-126407200D01*
X113833332Y-126407200D02*
X113785713Y-126359580D01*
X113785713Y-126359580D02*
X113785713Y-126026247D01*
X113785713Y-126026247D02*
X113976189Y-126026247D01*
X113357141Y-126454819D02*
X113357141Y-125454819D01*
X112309523Y-126359580D02*
X112357142Y-126407200D01*
X112357142Y-126407200D02*
X112499999Y-126454819D01*
X112499999Y-126454819D02*
X112595237Y-126454819D01*
X112595237Y-126454819D02*
X112738094Y-126407200D01*
X112738094Y-126407200D02*
X112833332Y-126311961D01*
X112833332Y-126311961D02*
X112880951Y-126216723D01*
X112880951Y-126216723D02*
X112928570Y-126026247D01*
X112928570Y-126026247D02*
X112928570Y-125883390D01*
X112928570Y-125883390D02*
X112880951Y-125692914D01*
X112880951Y-125692914D02*
X112833332Y-125597676D01*
X112833332Y-125597676D02*
X112738094Y-125502438D01*
X112738094Y-125502438D02*
X112595237Y-125454819D01*
X112595237Y-125454819D02*
X112499999Y-125454819D01*
X112499999Y-125454819D02*
X112357142Y-125502438D01*
X112357142Y-125502438D02*
X112309523Y-125550057D01*
X110404761Y-125407200D02*
X111261903Y-126692914D01*
X109452379Y-125454819D02*
X109119046Y-126454819D01*
X109119046Y-126454819D02*
X108785713Y-125454819D01*
X108452379Y-126454819D02*
X108452379Y-125454819D01*
X107976189Y-126454819D02*
X107976189Y-125454819D01*
X107976189Y-125454819D02*
X107404761Y-126454819D01*
X107404761Y-126454819D02*
X107404761Y-125454819D01*
X105738094Y-125788152D02*
X105738094Y-126454819D01*
X105976189Y-125407200D02*
X106214284Y-126121485D01*
X106214284Y-126121485D02*
X105595237Y-126121485D01*
X105214284Y-126359580D02*
X105166665Y-126407200D01*
X105166665Y-126407200D02*
X105214284Y-126454819D01*
X105214284Y-126454819D02*
X105261903Y-126407200D01*
X105261903Y-126407200D02*
X105214284Y-126359580D01*
X105214284Y-126359580D02*
X105214284Y-126454819D01*
X104547618Y-125454819D02*
X104452380Y-125454819D01*
X104452380Y-125454819D02*
X104357142Y-125502438D01*
X104357142Y-125502438D02*
X104309523Y-125550057D01*
X104309523Y-125550057D02*
X104261904Y-125645295D01*
X104261904Y-125645295D02*
X104214285Y-125835771D01*
X104214285Y-125835771D02*
X104214285Y-126073866D01*
X104214285Y-126073866D02*
X104261904Y-126264342D01*
X104261904Y-126264342D02*
X104309523Y-126359580D01*
X104309523Y-126359580D02*
X104357142Y-126407200D01*
X104357142Y-126407200D02*
X104452380Y-126454819D01*
X104452380Y-126454819D02*
X104547618Y-126454819D01*
X104547618Y-126454819D02*
X104642856Y-126407200D01*
X104642856Y-126407200D02*
X104690475Y-126359580D01*
X104690475Y-126359580D02*
X104738094Y-126264342D01*
X104738094Y-126264342D02*
X104785713Y-126073866D01*
X104785713Y-126073866D02*
X104785713Y-125835771D01*
X104785713Y-125835771D02*
X104738094Y-125645295D01*
X104738094Y-125645295D02*
X104690475Y-125550057D01*
X104690475Y-125550057D02*
X104642856Y-125502438D01*
X104642856Y-125502438D02*
X104547618Y-125454819D01*
X103785713Y-126073866D02*
X103023809Y-126073866D01*
X102071428Y-125454819D02*
X102547618Y-125454819D01*
X102547618Y-125454819D02*
X102595237Y-125931009D01*
X102595237Y-125931009D02*
X102547618Y-125883390D01*
X102547618Y-125883390D02*
X102452380Y-125835771D01*
X102452380Y-125835771D02*
X102214285Y-125835771D01*
X102214285Y-125835771D02*
X102119047Y-125883390D01*
X102119047Y-125883390D02*
X102071428Y-125931009D01*
X102071428Y-125931009D02*
X102023809Y-126026247D01*
X102023809Y-126026247D02*
X102023809Y-126264342D01*
X102023809Y-126264342D02*
X102071428Y-126359580D01*
X102071428Y-126359580D02*
X102119047Y-126407200D01*
X102119047Y-126407200D02*
X102214285Y-126454819D01*
X102214285Y-126454819D02*
X102452380Y-126454819D01*
X102452380Y-126454819D02*
X102547618Y-126407200D01*
X102547618Y-126407200D02*
X102595237Y-126359580D01*
X101595237Y-126359580D02*
X101547618Y-126407200D01*
X101547618Y-126407200D02*
X101595237Y-126454819D01*
X101595237Y-126454819D02*
X101642856Y-126407200D01*
X101642856Y-126407200D02*
X101595237Y-126359580D01*
X101595237Y-126359580D02*
X101595237Y-126454819D01*
X100642857Y-125454819D02*
X101119047Y-125454819D01*
X101119047Y-125454819D02*
X101166666Y-125931009D01*
X101166666Y-125931009D02*
X101119047Y-125883390D01*
X101119047Y-125883390D02*
X101023809Y-125835771D01*
X101023809Y-125835771D02*
X100785714Y-125835771D01*
X100785714Y-125835771D02*
X100690476Y-125883390D01*
X100690476Y-125883390D02*
X100642857Y-125931009D01*
X100642857Y-125931009D02*
X100595238Y-126026247D01*
X100595238Y-126026247D02*
X100595238Y-126264342D01*
X100595238Y-126264342D02*
X100642857Y-126359580D01*
X100642857Y-126359580D02*
X100690476Y-126407200D01*
X100690476Y-126407200D02*
X100785714Y-126454819D01*
X100785714Y-126454819D02*
X101023809Y-126454819D01*
X101023809Y-126454819D02*
X101119047Y-126407200D01*
X101119047Y-126407200D02*
X101166666Y-126359580D01*
X100309523Y-125454819D02*
X99976190Y-126454819D01*
X99976190Y-126454819D02*
X99642857Y-125454819D01*
D12*
X144283333Y-77218633D02*
X144283333Y-77718633D01*
X144283333Y-77718633D02*
X144316666Y-77818633D01*
X144316666Y-77818633D02*
X144383333Y-77885300D01*
X144383333Y-77885300D02*
X144483333Y-77918633D01*
X144483333Y-77918633D02*
X144550000Y-77918633D01*
X143950000Y-77918633D02*
X143950000Y-77218633D01*
X143950000Y-77218633D02*
X143683333Y-77218633D01*
X143683333Y-77218633D02*
X143616667Y-77251966D01*
X143616667Y-77251966D02*
X143583333Y-77285300D01*
X143583333Y-77285300D02*
X143550000Y-77351966D01*
X143550000Y-77351966D02*
X143550000Y-77451966D01*
X143550000Y-77451966D02*
X143583333Y-77518633D01*
X143583333Y-77518633D02*
X143616667Y-77551966D01*
X143616667Y-77551966D02*
X143683333Y-77585300D01*
X143683333Y-77585300D02*
X143950000Y-77585300D01*
X142950000Y-77451966D02*
X142950000Y-77918633D01*
X143116667Y-77185300D02*
X143283333Y-77685300D01*
X143283333Y-77685300D02*
X142850000Y-77685300D01*
X129283333Y-76718633D02*
X129283333Y-77218633D01*
X129283333Y-77218633D02*
X129316666Y-77318633D01*
X129316666Y-77318633D02*
X129383333Y-77385300D01*
X129383333Y-77385300D02*
X129483333Y-77418633D01*
X129483333Y-77418633D02*
X129550000Y-77418633D01*
X128950000Y-77418633D02*
X128950000Y-76718633D01*
X128950000Y-76718633D02*
X128683333Y-76718633D01*
X128683333Y-76718633D02*
X128616667Y-76751966D01*
X128616667Y-76751966D02*
X128583333Y-76785300D01*
X128583333Y-76785300D02*
X128550000Y-76851966D01*
X128550000Y-76851966D02*
X128550000Y-76951966D01*
X128550000Y-76951966D02*
X128583333Y-77018633D01*
X128583333Y-77018633D02*
X128616667Y-77051966D01*
X128616667Y-77051966D02*
X128683333Y-77085300D01*
X128683333Y-77085300D02*
X128950000Y-77085300D01*
X128316667Y-76718633D02*
X127883333Y-76718633D01*
X127883333Y-76718633D02*
X128116667Y-76985300D01*
X128116667Y-76985300D02*
X128016667Y-76985300D01*
X128016667Y-76985300D02*
X127950000Y-77018633D01*
X127950000Y-77018633D02*
X127916667Y-77051966D01*
X127916667Y-77051966D02*
X127883333Y-77118633D01*
X127883333Y-77118633D02*
X127883333Y-77285300D01*
X127883333Y-77285300D02*
X127916667Y-77351966D01*
X127916667Y-77351966D02*
X127950000Y-77385300D01*
X127950000Y-77385300D02*
X128016667Y-77418633D01*
X128016667Y-77418633D02*
X128216667Y-77418633D01*
X128216667Y-77418633D02*
X128283333Y-77385300D01*
X128283333Y-77385300D02*
X128316667Y-77351966D01*
X74283333Y-76718633D02*
X74283333Y-77218633D01*
X74283333Y-77218633D02*
X74316666Y-77318633D01*
X74316666Y-77318633D02*
X74383333Y-77385300D01*
X74383333Y-77385300D02*
X74483333Y-77418633D01*
X74483333Y-77418633D02*
X74550000Y-77418633D01*
X73950000Y-77418633D02*
X73950000Y-76718633D01*
X73950000Y-76718633D02*
X73683333Y-76718633D01*
X73683333Y-76718633D02*
X73616667Y-76751966D01*
X73616667Y-76751966D02*
X73583333Y-76785300D01*
X73583333Y-76785300D02*
X73550000Y-76851966D01*
X73550000Y-76851966D02*
X73550000Y-76951966D01*
X73550000Y-76951966D02*
X73583333Y-77018633D01*
X73583333Y-77018633D02*
X73616667Y-77051966D01*
X73616667Y-77051966D02*
X73683333Y-77085300D01*
X73683333Y-77085300D02*
X73950000Y-77085300D01*
X72883333Y-77418633D02*
X73283333Y-77418633D01*
X73083333Y-77418633D02*
X73083333Y-76718633D01*
X73083333Y-76718633D02*
X73150000Y-76818633D01*
X73150000Y-76818633D02*
X73216667Y-76885300D01*
X73216667Y-76885300D02*
X73283333Y-76918633D01*
X89283333Y-76718633D02*
X89283333Y-77218633D01*
X89283333Y-77218633D02*
X89316666Y-77318633D01*
X89316666Y-77318633D02*
X89383333Y-77385300D01*
X89383333Y-77385300D02*
X89483333Y-77418633D01*
X89483333Y-77418633D02*
X89550000Y-77418633D01*
X88950000Y-77418633D02*
X88950000Y-76718633D01*
X88950000Y-76718633D02*
X88683333Y-76718633D01*
X88683333Y-76718633D02*
X88616667Y-76751966D01*
X88616667Y-76751966D02*
X88583333Y-76785300D01*
X88583333Y-76785300D02*
X88550000Y-76851966D01*
X88550000Y-76851966D02*
X88550000Y-76951966D01*
X88550000Y-76951966D02*
X88583333Y-77018633D01*
X88583333Y-77018633D02*
X88616667Y-77051966D01*
X88616667Y-77051966D02*
X88683333Y-77085300D01*
X88683333Y-77085300D02*
X88950000Y-77085300D01*
X88283333Y-76785300D02*
X88250000Y-76751966D01*
X88250000Y-76751966D02*
X88183333Y-76718633D01*
X88183333Y-76718633D02*
X88016667Y-76718633D01*
X88016667Y-76718633D02*
X87950000Y-76751966D01*
X87950000Y-76751966D02*
X87916667Y-76785300D01*
X87916667Y-76785300D02*
X87883333Y-76851966D01*
X87883333Y-76851966D02*
X87883333Y-76918633D01*
X87883333Y-76918633D02*
X87916667Y-77018633D01*
X87916667Y-77018633D02*
X88316667Y-77418633D01*
X88316667Y-77418633D02*
X87883333Y-77418633D01*
%TO.C,C40*%
D10*
X86790000Y-89140580D02*
X86790000Y-88859420D01*
X87810000Y-89140580D02*
X87810000Y-88859420D01*
%TO.C,C26*%
X144490000Y-71840580D02*
X144490000Y-71559420D01*
X145510000Y-71840580D02*
X145510000Y-71559420D01*
%TO.C,C16*%
X84340580Y-83990000D02*
X84059420Y-83990000D01*
X84340580Y-85010000D02*
X84059420Y-85010000D01*
%TO.C,C9*%
X92030000Y-71840580D02*
X92030000Y-71559420D01*
X93050000Y-71840580D02*
X93050000Y-71559420D01*
%TO.C,C43*%
X79940580Y-88990000D02*
X79659420Y-88990000D01*
X79940580Y-90010000D02*
X79659420Y-90010000D01*
%TO.C,C31*%
X140440580Y-82190000D02*
X140159420Y-82190000D01*
X140440580Y-83210000D02*
X140159420Y-83210000D01*
%TO.C,C21*%
X133640580Y-85990000D02*
X133359420Y-85990000D01*
X133640580Y-87010000D02*
X133359420Y-87010000D01*
%TO.C,C8*%
X79940580Y-83990000D02*
X79659420Y-83990000D01*
X79940580Y-85010000D02*
X79659420Y-85010000D01*
%TO.C,C46*%
X132190000Y-89140580D02*
X132190000Y-88859420D01*
X133210000Y-89140580D02*
X133210000Y-88859420D01*
%TO.C,C3*%
X71950000Y-71840580D02*
X71950000Y-71559420D01*
X72970000Y-71840580D02*
X72970000Y-71559420D01*
%TO.C,C55*%
X144990000Y-89140580D02*
X144990000Y-88859420D01*
X146010000Y-89140580D02*
X146010000Y-88859420D01*
%TO.C,C45*%
X136490000Y-80140580D02*
X136490000Y-79859420D01*
X137510000Y-80140580D02*
X137510000Y-79859420D01*
%TO.C,C57*%
X88990000Y-85640580D02*
X88990000Y-85359420D01*
X90010000Y-85640580D02*
X90010000Y-85359420D01*
%TO.C,C24*%
X135940580Y-83990000D02*
X135659420Y-83990000D01*
X135940580Y-85010000D02*
X135659420Y-85010000D01*
%TO.C,C27*%
X141950000Y-71840580D02*
X141950000Y-71559420D01*
X142970000Y-71840580D02*
X142970000Y-71559420D01*
%TO.C,C23*%
X135840580Y-82190000D02*
X135559420Y-82190000D01*
X135840580Y-83210000D02*
X135559420Y-83210000D01*
%TO.C,C48*%
X138140580Y-86490000D02*
X137859420Y-86490000D01*
X138140580Y-87510000D02*
X137859420Y-87510000D01*
%TO.C,C7*%
X79840580Y-82190000D02*
X79559420Y-82190000D01*
X79840580Y-83210000D02*
X79559420Y-83210000D01*
%TO.C,C2*%
X74490000Y-71840580D02*
X74490000Y-71559420D01*
X75510000Y-71840580D02*
X75510000Y-71559420D01*
%TO.C,JP4*%
X142300000Y-74500000D02*
X142300000Y-76500000D01*
X142300000Y-76500000D02*
X145100000Y-76500000D01*
X145100000Y-74500000D02*
X142300000Y-74500000D01*
X145100000Y-76500000D02*
X145100000Y-74500000D01*
%TO.C,JP3*%
X127300000Y-74500000D02*
X127300000Y-76500000D01*
X127300000Y-76500000D02*
X130100000Y-76500000D01*
X130100000Y-74500000D02*
X127300000Y-74500000D01*
X130100000Y-76500000D02*
X130100000Y-74500000D01*
%TO.C,C6*%
X78490000Y-80140580D02*
X78490000Y-79859420D01*
X79510000Y-80140580D02*
X79510000Y-79859420D01*
%TO.C,R9*%
X82237258Y-76477500D02*
X81762742Y-76477500D01*
X82237258Y-77522500D02*
X81762742Y-77522500D01*
%TO.C,C4*%
X76190000Y-83640580D02*
X76190000Y-83359420D01*
X77210000Y-83640580D02*
X77210000Y-83359420D01*
%TO.C,C52*%
X85640580Y-92990000D02*
X85359420Y-92990000D01*
X85640580Y-94010000D02*
X85359420Y-94010000D01*
%TO.C,C49*%
X138990000Y-90140580D02*
X138990000Y-89859420D01*
X140010000Y-90140580D02*
X140010000Y-89859420D01*
%TO.C,C54*%
X141640580Y-92990000D02*
X141359420Y-92990000D01*
X141640580Y-94010000D02*
X141359420Y-94010000D01*
%TO.C,C20*%
X132190000Y-83640580D02*
X132190000Y-83359420D01*
X133210000Y-83640580D02*
X133210000Y-83359420D01*
%TO.C,C64*%
X129990000Y-87140580D02*
X129990000Y-86859420D01*
X131010000Y-87140580D02*
X131010000Y-86859420D01*
%TO.C,C59*%
X81490000Y-93640580D02*
X81490000Y-93359420D01*
X82510000Y-93640580D02*
X82510000Y-93359420D01*
%TO.C,C25*%
X147030000Y-71840580D02*
X147030000Y-71559420D01*
X148050000Y-71840580D02*
X148050000Y-71559420D01*
%TO.C,C10*%
X89490000Y-71840580D02*
X89490000Y-71559420D01*
X90510000Y-71840580D02*
X90510000Y-71559420D01*
%TO.C,C51*%
X145490000Y-92840580D02*
X145490000Y-92559420D01*
X146510000Y-92840580D02*
X146510000Y-92559420D01*
%TO.C,C39*%
X76190000Y-89140580D02*
X76190000Y-88859420D01*
X77210000Y-89140580D02*
X77210000Y-88859420D01*
%TO.C,C19*%
X126950000Y-71840580D02*
X126950000Y-71559420D01*
X127970000Y-71840580D02*
X127970000Y-71559420D01*
%TO.C,R10*%
X138237258Y-76477500D02*
X137762742Y-76477500D01*
X138237258Y-77522500D02*
X137762742Y-77522500D01*
%TO.C,C12*%
X86790000Y-83640580D02*
X86790000Y-83359420D01*
X87810000Y-83640580D02*
X87810000Y-83359420D01*
%TO.C,C50*%
X135940580Y-88990000D02*
X135659420Y-88990000D01*
X135940580Y-90010000D02*
X135659420Y-90010000D01*
%TO.C,C32*%
X140340580Y-83990000D02*
X140059420Y-83990000D01*
X140340580Y-85010000D02*
X140059420Y-85010000D01*
%TO.C,C15*%
X84440580Y-82190000D02*
X84159420Y-82190000D01*
X84440580Y-83210000D02*
X84159420Y-83210000D01*
%TO.C,C44*%
X89490000Y-92840580D02*
X89490000Y-92559420D01*
X90510000Y-92840580D02*
X90510000Y-92559420D01*
%TO.C,C61*%
X144990000Y-85640580D02*
X144990000Y-85359420D01*
X146010000Y-85640580D02*
X146010000Y-85359420D01*
%TO.C,JP1*%
X72300000Y-74500000D02*
X72300000Y-76500000D01*
X72300000Y-76500000D02*
X75100000Y-76500000D01*
X75100000Y-74500000D02*
X72300000Y-74500000D01*
X75100000Y-76500000D02*
X75100000Y-74500000D01*
%TO.C,C47*%
X142790000Y-89140580D02*
X142790000Y-88859420D01*
X143810000Y-89140580D02*
X143810000Y-88859420D01*
%TO.C,C42*%
X82990000Y-90140580D02*
X82990000Y-89859420D01*
X84010000Y-90140580D02*
X84010000Y-89859420D01*
%TO.C,C22*%
X134490000Y-80140580D02*
X134490000Y-79859420D01*
X135510000Y-80140580D02*
X135510000Y-79859420D01*
%TO.C,C1*%
X77030000Y-71840580D02*
X77030000Y-71559420D01*
X78050000Y-71840580D02*
X78050000Y-71559420D01*
%TO.C,C11*%
X86950000Y-71840580D02*
X86950000Y-71559420D01*
X87970000Y-71840580D02*
X87970000Y-71559420D01*
%TO.C,C38*%
X80490000Y-80140580D02*
X80490000Y-79859420D01*
X81510000Y-80140580D02*
X81510000Y-79859420D01*
%TO.C,C53*%
X88990000Y-89140580D02*
X88990000Y-88859420D01*
X90010000Y-89140580D02*
X90010000Y-88859420D01*
%TO.C,C62*%
X133640580Y-91490000D02*
X133359420Y-91490000D01*
X133640580Y-92510000D02*
X133359420Y-92510000D01*
%TO.C,C63*%
X137490000Y-93640580D02*
X137490000Y-93359420D01*
X138510000Y-93640580D02*
X138510000Y-93359420D01*
%TO.C,C29*%
X142640580Y-85990000D02*
X142359420Y-85990000D01*
X142640580Y-87010000D02*
X142359420Y-87010000D01*
%TO.C,C5*%
X77640580Y-85990000D02*
X77359420Y-85990000D01*
X77640580Y-87010000D02*
X77359420Y-87010000D01*
%TO.C,C41*%
X82140580Y-86490000D02*
X81859420Y-86490000D01*
X82140580Y-87510000D02*
X81859420Y-87510000D01*
%TO.C,C28*%
X142790000Y-83640580D02*
X142790000Y-83359420D01*
X143810000Y-83640580D02*
X143810000Y-83359420D01*
%TO.C,C58*%
X77640580Y-91490000D02*
X77359420Y-91490000D01*
X77640580Y-92510000D02*
X77359420Y-92510000D01*
%TO.C,C60*%
X73990000Y-87140580D02*
X73990000Y-86859420D01*
X75010000Y-87140580D02*
X75010000Y-86859420D01*
%TO.C,C13*%
X86640580Y-85990000D02*
X86359420Y-85990000D01*
X86640580Y-87010000D02*
X86359420Y-87010000D01*
%TO.C,C17*%
X132030000Y-71840580D02*
X132030000Y-71559420D01*
X133050000Y-71840580D02*
X133050000Y-71559420D01*
%TO.C,C18*%
X129490000Y-71840580D02*
X129490000Y-71559420D01*
X130510000Y-71840580D02*
X130510000Y-71559420D01*
%TO.C,C30*%
X140490000Y-80140580D02*
X140490000Y-79859420D01*
X141510000Y-80140580D02*
X141510000Y-79859420D01*
%TO.C,C14*%
X84490000Y-80140580D02*
X84490000Y-79859420D01*
X85510000Y-80140580D02*
X85510000Y-79859420D01*
%TO.C,JP2*%
X87300000Y-74500000D02*
X87300000Y-76500000D01*
X87300000Y-76500000D02*
X90100000Y-76500000D01*
X90100000Y-74500000D02*
X87300000Y-74500000D01*
X90100000Y-76500000D02*
X90100000Y-74500000D01*
%TD*%
M02*
