%TF.GenerationSoftware,KiCad,Pcbnew,10.0.5*%
%TF.CreationDate,2026-09-16T20:36:37-05:00*%
%TF.ProjectId,ECSense_4CH_I2C,45435365-6e73-4655-9f34-43485f493243,B*%
%TF.SameCoordinates,Original*%
%TF.FileFunction,Paste,Top*%
%TF.FilePolarity,Positive*%
%FSLAX46Y46*%
G04 Gerber Fmt 4.6, Leading zero omitted, Abs format (unit mm)*
G04 Created by KiCad (PCBNEW 10.0.5) date 2026-09-16 20:36:37*
%MOMM*%
%LPD*%
G01*
G04 APERTURE LIST*
G04 Aperture macros list*
%AMRoundRect*
0 Rectangle with rounded corners*
0 $1 Rounding radius*
0 $2 $3 $4 $5 $6 $7 $8 $9 X,Y pos of 4 corners*
0 Add a 4 corners polygon primitive as box body*
4,1,4,$2,$3,$4,$5,$6,$7,$8,$9,$2,$3,0*
0 Add four circle primitives for the rounded corners*
1,1,$1+$1,$2,$3*
1,1,$1+$1,$4,$5*
1,1,$1+$1,$6,$7*
1,1,$1+$1,$8,$9*
0 Add four rect primitives between the rounded corners*
20,1,$1+$1,$2,$3,$4,$5,0*
20,1,$1+$1,$4,$5,$6,$7,0*
20,1,$1+$1,$6,$7,$8,$9,0*
20,1,$1+$1,$8,$9,$2,$3,0*%
G04 Aperture macros list end*
%ADD10RoundRect,0.200000X0.275000X-0.200000X0.275000X0.200000X-0.275000X0.200000X-0.275000X-0.200000X0*%
%ADD11RoundRect,0.225000X0.250000X-0.225000X0.250000X0.225000X-0.250000X0.225000X-0.250000X-0.225000X0*%
%ADD12RoundRect,0.150000X-0.825000X-0.150000X0.825000X-0.150000X0.825000X0.150000X-0.825000X0.150000X0*%
%ADD13RoundRect,0.025000X-0.100000X-0.100000X0.100000X-0.100000X0.100000X0.100000X-0.100000X0.100000X0*%
%ADD14RoundRect,0.200000X-0.200000X-0.275000X0.200000X-0.275000X0.200000X0.275000X-0.200000X0.275000X0*%
%ADD15RoundRect,0.150000X-0.587500X-0.150000X0.587500X-0.150000X0.587500X0.150000X-0.587500X0.150000X0*%
%ADD16RoundRect,0.150000X-0.512500X-0.150000X0.512500X-0.150000X0.512500X0.150000X-0.512500X0.150000X0*%
%ADD17RoundRect,0.218750X0.381250X-0.218750X0.381250X0.218750X-0.381250X0.218750X-0.381250X-0.218750X0*%
%ADD18R,0.500000X0.300000*%
G04 APERTURE END LIST*
D10*
%TO.C,R2*%
X116500000Y-110825000D03*
X116500000Y-109175000D03*
%TD*%
D11*
%TO.C,C36*%
X107000000Y-98275000D03*
X107000000Y-96725000D03*
%TD*%
D12*
%TO.C,U5*%
X122525000Y-106095000D03*
X122525000Y-107365000D03*
X122525000Y-108635000D03*
X122525000Y-109905000D03*
X127475000Y-109905000D03*
X127475000Y-108635000D03*
X127475000Y-107365000D03*
X127475000Y-106095000D03*
%TD*%
D13*
%TO.C,U2*%
X135500000Y-83000000D03*
X136000000Y-83000000D03*
X136500000Y-83000000D03*
X137000000Y-83000000D03*
X137500000Y-83000000D03*
X138000000Y-83000000D03*
X138500000Y-83000000D03*
X139000000Y-83000000D03*
X139500000Y-83000000D03*
X140000000Y-83000000D03*
X140500000Y-83000000D03*
X135500000Y-83500000D03*
X136000000Y-83500000D03*
X136500000Y-83500000D03*
X137000000Y-83500000D03*
X137500000Y-83500000D03*
X138000000Y-83500000D03*
X138500000Y-83500000D03*
X139000000Y-83500000D03*
X139500000Y-83500000D03*
X140000000Y-83500000D03*
X140500000Y-83500000D03*
X135500000Y-84000000D03*
X136000000Y-84000000D03*
X140000000Y-84000000D03*
X140500000Y-84000000D03*
X135500000Y-84500000D03*
X136000000Y-84500000D03*
X137500000Y-84500000D03*
X138000000Y-84500000D03*
X138500000Y-84500000D03*
X140000000Y-84500000D03*
X140500000Y-84500000D03*
X135500000Y-85000000D03*
X136000000Y-85000000D03*
X137500000Y-85000000D03*
X138500000Y-85000000D03*
X140000000Y-85000000D03*
X140500000Y-85000000D03*
X135500000Y-85500000D03*
X136000000Y-85500000D03*
X137500000Y-85500000D03*
X138000000Y-85500000D03*
X138500000Y-85500000D03*
X140000000Y-85500000D03*
X140500000Y-85500000D03*
X135500000Y-86000000D03*
X136000000Y-86000000D03*
X140000000Y-86000000D03*
X140500000Y-86000000D03*
X135500000Y-86500000D03*
X136000000Y-86500000D03*
X136500000Y-86500000D03*
X137000000Y-86500000D03*
X137500000Y-86500000D03*
X138000000Y-86500000D03*
X138500000Y-86500000D03*
X139000000Y-86500000D03*
X139500000Y-86500000D03*
X140000000Y-86500000D03*
X140500000Y-86500000D03*
X135500000Y-87000000D03*
X136000000Y-87000000D03*
X136500000Y-87000000D03*
X137000000Y-87000000D03*
X137500000Y-87000000D03*
X138000000Y-87000000D03*
X138500000Y-87000000D03*
X139000000Y-87000000D03*
X139500000Y-87000000D03*
X140000000Y-87000000D03*
X140500000Y-87000000D03*
%TD*%
D14*
%TO.C,R8*%
X140175000Y-101000000D03*
X141825000Y-101000000D03*
%TD*%
D11*
%TO.C,C34*%
X112000000Y-106775000D03*
X112000000Y-105225000D03*
%TD*%
D10*
%TO.C,R11*%
X110000000Y-90825000D03*
X110000000Y-89175000D03*
%TD*%
D15*
%TO.C,D1*%
X111062500Y-115050000D03*
X111062500Y-116950000D03*
X112937500Y-116000000D03*
%TD*%
D14*
%TO.C,R7*%
X84175000Y-101000000D03*
X85825000Y-101000000D03*
%TD*%
D16*
%TO.C,U3*%
X106862500Y-106050000D03*
X106862500Y-107000000D03*
X106862500Y-107950000D03*
X109137500Y-107950000D03*
X109137500Y-106050000D03*
%TD*%
D10*
%TO.C,R1*%
X114000000Y-110825000D03*
X114000000Y-109175000D03*
%TD*%
D11*
%TO.C,C56*%
X113000000Y-57775000D03*
X113000000Y-56225000D03*
%TD*%
%TO.C,C35*%
X112000000Y-103775000D03*
X112000000Y-102225000D03*
%TD*%
D17*
%TO.C,FB1*%
X107000000Y-102062500D03*
X107000000Y-99937500D03*
%TD*%
D11*
%TO.C,C33*%
X104000000Y-107775000D03*
X104000000Y-106225000D03*
%TD*%
D14*
%TO.C,R4*%
X120675000Y-116000000D03*
X122325000Y-116000000D03*
%TD*%
D13*
%TO.C,U1*%
X79500000Y-83000000D03*
X80000000Y-83000000D03*
X80500000Y-83000000D03*
X81000000Y-83000000D03*
X81500000Y-83000000D03*
X82000000Y-83000000D03*
X82500000Y-83000000D03*
X83000000Y-83000000D03*
X83500000Y-83000000D03*
X84000000Y-83000000D03*
X84500000Y-83000000D03*
X79500000Y-83500000D03*
X80000000Y-83500000D03*
X80500000Y-83500000D03*
X81000000Y-83500000D03*
X81500000Y-83500000D03*
X82000000Y-83500000D03*
X82500000Y-83500000D03*
X83000000Y-83500000D03*
X83500000Y-83500000D03*
X84000000Y-83500000D03*
X84500000Y-83500000D03*
X79500000Y-84000000D03*
X80000000Y-84000000D03*
X84000000Y-84000000D03*
X84500000Y-84000000D03*
X79500000Y-84500000D03*
X80000000Y-84500000D03*
X81500000Y-84500000D03*
X82000000Y-84500000D03*
X82500000Y-84500000D03*
X84000000Y-84500000D03*
X84500000Y-84500000D03*
X79500000Y-85000000D03*
X80000000Y-85000000D03*
X81500000Y-85000000D03*
X82500000Y-85000000D03*
X84000000Y-85000000D03*
X84500000Y-85000000D03*
X79500000Y-85500000D03*
X80000000Y-85500000D03*
X81500000Y-85500000D03*
X82000000Y-85500000D03*
X82500000Y-85500000D03*
X84000000Y-85500000D03*
X84500000Y-85500000D03*
X79500000Y-86000000D03*
X80000000Y-86000000D03*
X84000000Y-86000000D03*
X84500000Y-86000000D03*
X79500000Y-86500000D03*
X80000000Y-86500000D03*
X80500000Y-86500000D03*
X81000000Y-86500000D03*
X81500000Y-86500000D03*
X82000000Y-86500000D03*
X82500000Y-86500000D03*
X83000000Y-86500000D03*
X83500000Y-86500000D03*
X84000000Y-86500000D03*
X84500000Y-86500000D03*
X79500000Y-87000000D03*
X80000000Y-87000000D03*
X80500000Y-87000000D03*
X81000000Y-87000000D03*
X81500000Y-87000000D03*
X82000000Y-87000000D03*
X82500000Y-87000000D03*
X83000000Y-87000000D03*
X83500000Y-87000000D03*
X84000000Y-87000000D03*
X84500000Y-87000000D03*
%TD*%
D18*
%TO.C,U4*%
X109300000Y-56600000D03*
X109300000Y-57400000D03*
X110700000Y-57400000D03*
X110700000Y-56600000D03*
%TD*%
D11*
%TO.C,C65*%
X131000000Y-106775000D03*
X131000000Y-105225000D03*
%TD*%
D10*
%TO.C,R3*%
X119000000Y-110825000D03*
X119000000Y-109175000D03*
%TD*%
D14*
%TO.C,R6*%
X136175000Y-101000000D03*
X137825000Y-101000000D03*
%TD*%
%TO.C,R5*%
X80175000Y-101000000D03*
X81825000Y-101000000D03*
%TD*%
D11*
%TO.C,C37*%
X110000000Y-98275000D03*
X110000000Y-96725000D03*
%TD*%
M02*
