%TF.GenerationSoftware,KiCad,Pcbnew,10.0.5*%
%TF.CreationDate,2026-09-16T20:36:37-05:00*%
%TF.ProjectId,ECSense_4CH_I2C,45435365-6e73-4655-9f34-43485f493243,B*%
%TF.SameCoordinates,Original*%
%TF.FileFunction,Copper,L3,Inr*%
%TF.FilePolarity,Positive*%
%FSLAX46Y46*%
G04 Gerber Fmt 4.6, Leading zero omitted, Abs format (unit mm)*
G04 Created by KiCad (PCBNEW 10.0.5) date 2026-09-16 20:36:37*
%MOMM*%
%LPD*%
G01*
G04 APERTURE LIST*
G04 Aperture macros list*
%AMRoundRect*
0 Rectangle with rounded corners*
0 $1 Rounding radius*
0 $2 $3 $4 $5 $6 $7 $8 $9 X,Y pos of 4 corners*
0 Add a 4 corners polygon primitive as box body*
4,1,4,$2,$3,$4,$5,$6,$7,$8,$9,$2,$3,0*
0 Add four circle primitives for the rounded corners*
1,1,$1+$1,$2,$3*
1,1,$1+$1,$4,$5*
1,1,$1+$1,$6,$7*
1,1,$1+$1,$8,$9*
0 Add four rect primitives between the rounded corners*
20,1,$1+$1,$2,$3,$4,$5,0*
20,1,$1+$1,$4,$5,$6,$7,0*
20,1,$1+$1,$6,$7,$8,$9,0*
20,1,$1+$1,$8,$9,$2,$3,0*%
G04 Aperture macros list end*
%TA.AperFunction,ComponentPad*%
%ADD10R,1.800000X1.800000*%
%TD*%
%TA.AperFunction,ComponentPad*%
%ADD11C,1.800000*%
%TD*%
%TA.AperFunction,ComponentPad*%
%ADD12R,1.000000X1.000000*%
%TD*%
%TA.AperFunction,ComponentPad*%
%ADD13C,1.000000*%
%TD*%
%TA.AperFunction,ComponentPad*%
%ADD14R,1.700000X1.700000*%
%TD*%
%TA.AperFunction,ComponentPad*%
%ADD15C,1.700000*%
%TD*%
%TA.AperFunction,ComponentPad*%
%ADD16RoundRect,0.250000X-0.350000X-0.625000X0.350000X-0.625000X0.350000X0.625000X-0.350000X0.625000X0*%
%TD*%
%TA.AperFunction,ComponentPad*%
%ADD17O,1.200000X1.750000*%
%TD*%
%TA.AperFunction,ViaPad*%
%ADD18C,0.400000*%
%TD*%
%TA.AperFunction,ViaPad*%
%ADD19C,0.600000*%
%TD*%
%TA.AperFunction,Conductor*%
%ADD20C,0.100000*%
%TD*%
%TA.AperFunction,Conductor*%
%ADD21C,0.075000*%
%TD*%
%TA.AperFunction,Conductor*%
%ADD22C,0.090000*%
%TD*%
G04 APERTURE END LIST*
D10*
%TO.N,/CH1_CE*%
%TO.C,J1*%
X77540000Y-69000000D03*
D11*
%TO.N,/CH1_SE*%
X75000000Y-69000000D03*
%TO.N,/CH1_RE*%
X72460000Y-69000000D03*
%TD*%
D10*
%TO.N,/CH4_CE*%
%TO.C,J4*%
X147540000Y-69000000D03*
D11*
%TO.N,/CH4_SE*%
X145000000Y-69000000D03*
%TO.N,/CH4_RE*%
X142460000Y-69000000D03*
%TD*%
D12*
%TO.N,+3V3*%
%TO.C,J6*%
X80000000Y-113000000D03*
D13*
%TO.N,/U1_SWDIO*%
X81270000Y-113000000D03*
%TO.N,/U1_SWCLK*%
X82540000Y-113000000D03*
%TO.N,GND*%
X83810000Y-113000000D03*
%TO.N,/~{RESET}*%
X85080000Y-113000000D03*
%TD*%
D14*
%TO.N,+3V3*%
%TO.C,J9*%
X141000000Y-123000000D03*
D15*
%TO.N,/U2_TX*%
X143540000Y-123000000D03*
%TO.N,/U2_RX*%
X146080000Y-123000000D03*
%TO.N,GND*%
X148620000Y-123000000D03*
%TD*%
D14*
%TO.N,+3V3*%
%TO.C,J8*%
X71000000Y-123000000D03*
D15*
%TO.N,/U1_TX*%
X73540000Y-123000000D03*
%TO.N,/U1_RX*%
X76080000Y-123000000D03*
%TO.N,GND*%
X78620000Y-123000000D03*
%TD*%
D10*
%TO.N,/CH2_CE*%
%TO.C,J2*%
X92540000Y-69000000D03*
D11*
%TO.N,/CH2_SE*%
X90000000Y-69000000D03*
%TO.N,/CH2_RE*%
X87460000Y-69000000D03*
%TD*%
D16*
%TO.N,VIN*%
%TO.C,J5*%
X105000000Y-123000000D03*
D17*
%TO.N,GND*%
X107000000Y-123000000D03*
%TO.N,/SDA*%
X109000000Y-123000000D03*
%TO.N,/SCL*%
X111000000Y-123000000D03*
%TO.N,/~{ALERT}*%
X113000000Y-123000000D03*
%TO.N,/~{RESET}*%
X115000000Y-123000000D03*
%TD*%
D12*
%TO.N,+3V3*%
%TO.C,J7*%
X135000000Y-113000000D03*
D13*
%TO.N,/U2_SWDIO*%
X136270000Y-113000000D03*
%TO.N,/U2_SWCLK*%
X137540000Y-113000000D03*
%TO.N,GND*%
X138810000Y-113000000D03*
%TO.N,/~{RESET}*%
X140080000Y-113000000D03*
%TD*%
D10*
%TO.N,/CH3_CE*%
%TO.C,J3*%
X132540000Y-69000000D03*
D11*
%TO.N,/CH3_SE*%
X130000000Y-69000000D03*
%TO.N,/CH3_RE*%
X127460000Y-69000000D03*
%TD*%
D18*
%TO.N,+3V3*%
X85240600Y-100416000D03*
X135684000Y-90510900D03*
X121862000Y-113993000D03*
X129744000Y-88043800D03*
X138433000Y-100390000D03*
X113341000Y-58517000D03*
X80442800Y-93912100D03*
X73773500Y-87300400D03*
%TO.N,/SCL*%
X114809000Y-110125000D03*
X127686000Y-108049000D03*
X134951000Y-88082300D03*
X108923000Y-57826100D03*
X113231000Y-110533000D03*
X82222100Y-91751200D03*
%TO.N,+3V3A*%
X88568600Y-87206400D03*
X144518000Y-87259100D03*
D19*
%TO.N,AGND*%
X160000000Y-60000000D03*
D18*
X133145000Y-71530000D03*
X81950000Y-84075000D03*
D19*
X120000000Y-60000000D03*
X100000000Y-53000000D03*
D18*
X143729000Y-70925000D03*
D19*
X110000000Y-80000000D03*
D18*
X93121800Y-71533700D03*
X132091000Y-91046800D03*
D19*
X60000000Y-60000000D03*
X155000000Y-53000000D03*
D18*
X78600000Y-87275000D03*
X89853800Y-71658600D03*
D19*
X60000000Y-80000000D03*
D18*
X83111500Y-85891000D03*
X141000000Y-71584400D03*
D19*
X65000000Y-53000000D03*
D18*
X78850000Y-83825000D03*
D19*
X120000000Y-53000000D03*
X160000000Y-80000000D03*
D18*
X110632000Y-88273100D03*
X139592000Y-85806500D03*
X138121000Y-83902500D03*
%TO.N,/CH1_CE*%
X77091800Y-83471800D03*
%TO.N,/CH1_SE*%
X79984500Y-81504000D03*
X75759400Y-72395000D03*
%TO.N,/CH1_RE*%
X74096900Y-72910100D03*
%TO.N,/SDA*%
X137525000Y-86075000D03*
X122444000Y-119444000D03*
X126222000Y-109905000D03*
X113242000Y-109227000D03*
X108767000Y-56755900D03*
X81500200Y-86092500D03*
D19*
%TO.N,GND*%
X120000000Y-100000000D03*
X166000000Y-95000000D03*
D18*
X81141900Y-101086000D03*
X128693000Y-87461700D03*
X113235000Y-56966200D03*
X136353000Y-90257100D03*
X75590800Y-86164900D03*
D19*
X65000000Y-128000000D03*
X54000000Y-95000000D03*
X155000000Y-128000000D03*
X166000000Y-115000000D03*
X54000000Y-115000000D03*
D18*
X81998400Y-90725000D03*
X112673000Y-118520000D03*
X145236000Y-91956000D03*
X137821000Y-90181200D03*
X138062000Y-85088500D03*
D19*
X90000000Y-128000000D03*
D18*
X80375000Y-85750000D03*
X82572300Y-85911300D03*
X105618000Y-106476000D03*
X83095100Y-88489900D03*
X90000000Y-92661500D03*
D19*
X130000000Y-128000000D03*
D18*
X110268000Y-101476000D03*
X109751000Y-89868600D03*
%TO.N,/CH4_CE*%
X142527000Y-83500000D03*
%TO.N,/CH4_SE*%
X144237000Y-71253800D03*
X143668000Y-80076600D03*
%TO.N,/CH4_RE*%
X141810000Y-83000000D03*
%TO.N,/CH3_RE*%
X130520000Y-83000000D03*
%TO.N,/CH3_SE*%
X133824000Y-82174300D03*
%TO.N,/CH3_LPF*%
X135990000Y-81989900D03*
%TO.N,/U2_VREF182*%
X136262000Y-81575100D03*
%TO.N,/U2_RCAL1*%
X138070000Y-79454800D03*
X138096000Y-82588700D03*
%TO.N,/U2_RCAL0*%
X139005000Y-79467700D03*
%TO.N,/CH4_LPF*%
X140010000Y-81990500D03*
%TO.N,/CH3_CE*%
X133475000Y-83500000D03*
%TO.N,/CH3_VZERO*%
X137172000Y-83902500D03*
%TO.N,/CH4_VZERO*%
X142144600Y-82197800D03*
X140496000Y-82081800D03*
%TO.N,/CH3_CAPPOT*%
X132964000Y-83531900D03*
%TO.N,/CH3_VBIAS*%
X135197200Y-81846100D03*
X132524000Y-85007500D03*
%TO.N,/CH4_VBIAS*%
X138833000Y-83902500D03*
X141017000Y-83724800D03*
%TO.N,/CH4_CAPPOT*%
X143300000Y-81986100D03*
%TO.N,/CH3_RC0*%
X134696000Y-85303500D03*
%TO.N,/CH3_RC1*%
X133124000Y-87259000D03*
X136880000Y-85270200D03*
%TO.N,/U2_BM*%
X139139000Y-85339200D03*
X140859000Y-101000000D03*
%TO.N,/CH4_RC1*%
X141674000Y-83998500D03*
X137688000Y-82312600D03*
%TO.N,/CH4_RC0*%
X142037000Y-85262100D03*
%TO.N,/U2_AVDD_REG*%
X133525000Y-86605000D03*
X136687000Y-88231000D03*
%TO.N,/U2_VREF25*%
X133302000Y-89173400D03*
X136401000Y-85254500D03*
%TO.N,/U2_ADCVBIAS*%
X144244000Y-86593900D03*
%TO.N,/U2_DVDD_REG_AD*%
X135176000Y-87315700D03*
%TO.N,/U2_VDCDC_CAP2P*%
X144906000Y-89181500D03*
%TO.N,/U2_SWCLK*%
X136537000Y-86098000D03*
%TO.N,/U2_SWDIO*%
X137044000Y-86073200D03*
%TO.N,/~{ALERT}*%
X117750000Y-109561000D03*
X138550000Y-86096500D03*
X83596300Y-86096300D03*
%TO.N,/U2_VDCDC_CAP2N*%
X140917000Y-86545400D03*
X144736000Y-88225000D03*
%TO.N,/U2_RX*%
X136040000Y-90837600D03*
%TO.N,/U2_TX*%
X135555000Y-87954200D03*
%TO.N,/U2_ADDR*%
X136507000Y-87492800D03*
X134931000Y-101000000D03*
X133921000Y-90182100D03*
%TO.N,/U2_DVDD_REG*%
X138577000Y-90273400D03*
%TO.N,/U2_VDCDC_CAP1N*%
X139219000Y-87932400D03*
%TO.N,/U2_VDCDC_CAP1P*%
X142275000Y-92737400D03*
%TO.N,/~{RESET}*%
X84611000Y-88916500D03*
X140000000Y-91468700D03*
%TO.N,/U2_VDCDC_CAPOUT*%
X143037000Y-90512000D03*
%TO.N,/U1_SWDIO*%
X79656100Y-94240200D03*
%TO.N,/U1_SWCLK*%
X80872600Y-86094300D03*
%TO.N,/U1_BM*%
X82511600Y-101981000D03*
X81902000Y-84902000D03*
X86448400Y-104448000D03*
X82511600Y-101000000D03*
%TO.N,/U1_TX*%
X75829500Y-89680900D03*
%TO.N,/U1_RX*%
X79083100Y-87300300D03*
%TO.N,/CH2_CE*%
X86428100Y-83885600D03*
%TO.N,/CH2_SE*%
X84490000Y-82079200D03*
%TO.N,/CH2_RE*%
X87460000Y-71659300D03*
X85803300Y-83000000D03*
%TO.N,/CH1_LPF*%
X79992400Y-81992400D03*
%TO.N,/U1_VREF182*%
X81912600Y-82587400D03*
%TO.N,/U1_RCAL1*%
X80442800Y-78587400D03*
X82404600Y-82595400D03*
%TO.N,/U1_RCAL0*%
X82774900Y-82273700D03*
X82482800Y-79454800D03*
%TO.N,/CH2_LPF*%
X84011400Y-81991200D03*
%TO.N,/CH1_VZERO*%
X80895200Y-85255500D03*
%TO.N,/CH2_VZERO*%
X85674700Y-82100300D03*
X82833300Y-83901800D03*
%TO.N,/CH1_CAPPOT*%
X77462500Y-82692200D03*
%TO.N,/CH1_VBIAS*%
X79189800Y-81946900D03*
%TO.N,/CH2_VBIAS*%
X84975000Y-83746600D03*
%TO.N,/CH2_CAPPOT*%
X85710900Y-84131600D03*
%TO.N,/CH1_RC0*%
X78291700Y-84500000D03*
%TO.N,/CH1_RC1*%
X76725000Y-85330300D03*
%TO.N,/CH2_RC1*%
X83090000Y-85410000D03*
X85160000Y-85871900D03*
%TO.N,/CH2_RC0*%
X87245700Y-85008600D03*
%TO.N,/U1_AVDD_REG*%
X82335200Y-87888300D03*
X81598400Y-88057900D03*
X78890300Y-85260200D03*
%TO.N,/U1_VREF25*%
X76097400Y-89172400D03*
X80398400Y-85258700D03*
%TO.N,/U1_ADCVBIAS*%
X85319900Y-85255000D03*
X88068700Y-88977600D03*
%TO.N,/U1_DVDD_REG_AD*%
X79098100Y-86164900D03*
%TO.N,/U1_VDCDC_CAP2P*%
X88365300Y-88357700D03*
%TO.N,/U1_VDCDC_CAP2N*%
X86688500Y-88809900D03*
%TO.N,/U1_ADDR*%
X78253400Y-89082500D03*
X80728900Y-87695100D03*
X79510700Y-101562000D03*
%TO.N,/U1_DVDD_REG*%
X83044300Y-87758900D03*
%TO.N,/U1_VDCDC_CAP1N*%
X83480800Y-87480700D03*
%TO.N,/U1_VDCDC_CAP1P*%
X83959700Y-87459700D03*
X86275000Y-89522100D03*
%TO.N,/U1_VDCDC_CAPOUT*%
X88875100Y-90447700D03*
X85049100Y-87296800D03*
%TD*%
%TO.N,+3V3*%
D20*
X73773500Y-88149600D02*
X73773500Y-87300400D01*
X85240600Y-98709900D02*
X85240600Y-100416000D01*
X86794400Y-105579000D02*
X80000000Y-112373000D01*
X141000000Y-123000000D02*
X141000000Y-122023000D01*
X86794400Y-101969000D02*
X86794400Y-105579000D01*
X80000000Y-113000000D02*
X80000000Y-113627000D01*
X79396600Y-113627000D02*
X71000000Y-122023000D01*
X135000000Y-116023000D02*
X135000000Y-113000000D01*
X85240600Y-100416000D02*
X86794400Y-101969000D01*
X129744000Y-88043800D02*
X132211000Y-90510900D01*
X80442800Y-93912100D02*
X79536000Y-93912100D01*
X71000000Y-123000000D02*
X71000000Y-122023000D01*
X141000000Y-122023000D02*
X135000000Y-116023000D01*
X79536000Y-93912100D02*
X73773500Y-88149600D01*
X122855000Y-113000000D02*
X121862000Y-113993000D01*
X135000000Y-113000000D02*
X122855000Y-113000000D01*
X80000000Y-113000000D02*
X80000000Y-112373000D01*
X80442800Y-93912100D02*
X85240600Y-98709900D01*
X80000000Y-113627000D02*
X79396600Y-113627000D01*
X132211000Y-90510900D02*
X135684000Y-90510900D01*
%TO.N,/SCL*%
X114401000Y-110533000D02*
X114809000Y-110125000D01*
X82222100Y-91751200D02*
X101004000Y-110533000D01*
X101004000Y-110533000D02*
X113231000Y-110533000D01*
X113231000Y-110533000D02*
X114401000Y-110533000D01*
%TO.N,+3V3A*%
X138389000Y-84886700D02*
X137780000Y-84277900D01*
X137780000Y-84009400D02*
X137303000Y-83532700D01*
X143076000Y-87259100D02*
X142000000Y-86182900D01*
X134886000Y-83532700D02*
X131283000Y-87135000D01*
X137780000Y-84277900D02*
X137780000Y-84009400D01*
X138389000Y-85157800D02*
X138389000Y-84886700D01*
X142000000Y-86182900D02*
X139414000Y-86182900D01*
X139414000Y-86182900D02*
X138389000Y-85157800D01*
X137303000Y-83532700D02*
X134886000Y-83532700D01*
X88640000Y-87135000D02*
X88568600Y-87206400D01*
X131283000Y-87135000D02*
X88640000Y-87135000D01*
X144518000Y-87259100D02*
X143076000Y-87259100D01*
%TO.N,AGND*%
X113406000Y-91046800D02*
X110632000Y-88273100D01*
X133145000Y-71530000D02*
X141000000Y-71530000D01*
X141000000Y-71530000D02*
X143124000Y-71530000D01*
X89978700Y-71533700D02*
X89853800Y-71658600D01*
X132091000Y-91046800D02*
X113406000Y-91046800D01*
X143124000Y-71530000D02*
X143729000Y-70925000D01*
X93121800Y-71533700D02*
X89978700Y-71533700D01*
X93121800Y-71533700D02*
X133141000Y-71533700D01*
X141000000Y-71530000D02*
X141000000Y-71584400D01*
X133141000Y-71533700D02*
X133145000Y-71530000D01*
%TO.N,/CH1_SE*%
X75759400Y-72395000D02*
X75759400Y-77278900D01*
X75000000Y-71635600D02*
X75000000Y-69000000D01*
X75759400Y-77278900D02*
X79984500Y-81504000D01*
X75759400Y-72395000D02*
X75000000Y-71635600D01*
%TO.N,/SDA*%
X126222000Y-109905000D02*
X115050000Y-109905000D01*
D21*
X80400000Y-86075000D02*
X80700000Y-86375000D01*
X80800000Y-86400000D02*
X80825000Y-86425000D01*
D20*
X75455400Y-85838100D02*
X79451000Y-85838100D01*
X75263800Y-86605600D02*
X75263800Y-86029700D01*
D21*
X80825000Y-86425000D02*
X80925000Y-86425000D01*
D20*
X114373000Y-109227000D02*
X113242000Y-109227000D01*
D21*
X81175000Y-86200000D02*
X81200000Y-86175000D01*
X81025000Y-85775000D02*
X81000000Y-85750000D01*
X81150000Y-86250000D02*
X81175000Y-86225000D01*
X81175000Y-85950000D02*
X81025000Y-85800000D01*
D20*
X137016000Y-90580000D02*
X137016000Y-87051600D01*
D21*
X80700000Y-86375000D02*
X80725000Y-86375000D01*
X81175000Y-86000000D02*
X81175000Y-85950000D01*
X137175000Y-85775000D02*
X137200000Y-85800000D01*
D20*
X79451000Y-85838100D02*
X79627700Y-85661400D01*
D21*
X80950000Y-86400000D02*
X81000000Y-86400000D01*
X79627700Y-85661400D02*
X79675000Y-85675000D01*
X136775000Y-85750000D02*
X137125000Y-85750000D01*
X79675000Y-85675000D02*
X79850000Y-85675000D01*
D20*
X100253000Y-109227000D02*
X82201100Y-91175500D01*
X136184000Y-85952400D02*
X136393000Y-85744000D01*
X89516100Y-76024200D02*
X89516100Y-71524900D01*
D21*
X80925000Y-86425000D02*
X80950000Y-86400000D01*
D20*
X82201100Y-91175500D02*
X79833700Y-91175500D01*
X79833700Y-91175500D02*
X75263800Y-86605600D01*
X126222000Y-101373000D02*
X137016000Y-90580000D01*
D21*
X81025000Y-86375000D02*
X81050000Y-86375000D01*
X81000000Y-85750000D02*
X81000000Y-85700000D01*
X80300000Y-86075000D02*
X80400000Y-86075000D01*
D20*
X81019900Y-85612100D02*
X81500200Y-86092500D01*
D21*
X81200000Y-86025000D02*
X81175000Y-86000000D01*
X80275000Y-86050000D02*
X80300000Y-86075000D01*
D20*
X126222000Y-109905000D02*
X126222000Y-101373000D01*
D21*
X137475000Y-86050000D02*
X137525000Y-86075000D01*
D20*
X91332000Y-69709000D02*
X91332000Y-68182900D01*
X75263800Y-86029700D02*
X75455400Y-85838100D01*
X81227600Y-84312700D02*
X89516100Y-76024200D01*
D21*
X137125000Y-85750000D02*
X137150000Y-85775000D01*
D20*
X137016000Y-87051600D02*
X136184000Y-86220400D01*
D21*
X81025000Y-85800000D02*
X81025000Y-85775000D01*
X80725000Y-86375000D02*
X80750000Y-86400000D01*
D20*
X136184000Y-86220400D02*
X136184000Y-85952400D01*
X115050000Y-109905000D02*
X114373000Y-109227000D01*
X81019900Y-85612100D02*
X81227600Y-85404400D01*
D21*
X81175000Y-86225000D02*
X81175000Y-86200000D01*
X81000000Y-86400000D02*
X81025000Y-86375000D01*
D20*
X80970600Y-85661400D02*
X81019900Y-85612100D01*
X136393000Y-85744000D02*
X136714000Y-85744000D01*
D21*
X137200000Y-85800000D02*
X137225000Y-85800000D01*
D20*
X89516100Y-71524900D02*
X91332000Y-69709000D01*
D21*
X81150000Y-86275000D02*
X81150000Y-86250000D01*
X81000000Y-85700000D02*
X80970600Y-85661400D01*
D20*
X81227600Y-85404400D02*
X81227600Y-84312700D01*
D21*
X137150000Y-85775000D02*
X137175000Y-85775000D01*
X136714000Y-85744000D02*
X136775000Y-85750000D01*
X80750000Y-86400000D02*
X80800000Y-86400000D01*
X80225000Y-86050000D02*
X80275000Y-86050000D01*
D20*
X113242000Y-109227000D02*
X100253000Y-109227000D01*
D21*
X79850000Y-85675000D02*
X80225000Y-86050000D01*
X81050000Y-86375000D02*
X81150000Y-86275000D01*
X81200000Y-86175000D02*
X81200000Y-86025000D01*
D20*
X102759000Y-56755900D02*
X108767000Y-56755900D01*
D21*
X137225000Y-85800000D02*
X137475000Y-86050000D01*
D20*
X91332000Y-68182900D02*
X102759000Y-56755900D01*
%TO.N,GND*%
X131207000Y-87461700D02*
X128693000Y-87461700D01*
X107727000Y-122909000D02*
X112116000Y-118520000D01*
X107727000Y-123000000D02*
X107727000Y-122909000D01*
X143461000Y-90181200D02*
X138904000Y-90181200D01*
X82000500Y-90725000D02*
X81998400Y-90725000D01*
X76171300Y-86745400D02*
X75590800Y-86164900D01*
X81998400Y-88489900D02*
X81998400Y-90725000D01*
X107000000Y-123000000D02*
X107727000Y-123000000D01*
X81243900Y-87239700D02*
X80749600Y-86745400D01*
X138250000Y-90138100D02*
X138250000Y-90181200D01*
X138062000Y-85088500D02*
X138885000Y-85911300D01*
X138442000Y-89946700D02*
X138250000Y-90138100D01*
X107000000Y-123000000D02*
X106273000Y-123000000D01*
X105532000Y-124029000D02*
X106273000Y-123288000D01*
X138904000Y-90138000D02*
X138713000Y-89946700D01*
X83937000Y-92661500D02*
X82000500Y-90725000D01*
X138713000Y-89946700D02*
X138442000Y-89946700D01*
X138250000Y-90181200D02*
X137821000Y-90181200D01*
X134117000Y-84551200D02*
X131207000Y-87461700D01*
X137525000Y-84551200D02*
X134117000Y-84551200D01*
X81243900Y-87239700D02*
X82572300Y-85911300D01*
X90000000Y-92661500D02*
X83937000Y-92661500D01*
X138885000Y-85911300D02*
X138885000Y-89117600D01*
X80749600Y-86745400D02*
X76171300Y-86745400D01*
X79649200Y-124029000D02*
X105532000Y-124029000D01*
X138885000Y-89117600D02*
X137821000Y-90181200D01*
X138904000Y-90181200D02*
X138904000Y-90138000D01*
X112116000Y-118520000D02*
X112673000Y-118520000D01*
X138062000Y-85088500D02*
X137525000Y-84551200D01*
X81998400Y-88489900D02*
X81998400Y-87994200D01*
X106273000Y-123288000D02*
X106273000Y-123000000D01*
X81998400Y-88489900D02*
X83095100Y-88489900D01*
X81998400Y-87994200D02*
X81243900Y-87239700D01*
X145236000Y-91956000D02*
X143461000Y-90181200D01*
X78620000Y-123000000D02*
X79649200Y-124029000D01*
%TO.N,/CH4_SE*%
X144237000Y-69762800D02*
X145000000Y-69000000D01*
X144237000Y-71253800D02*
X144237000Y-69762800D01*
%TO.N,/U2_RCAL1*%
X138070000Y-82562900D02*
X138096000Y-82588700D01*
X138070000Y-79454800D02*
X138070000Y-82562900D01*
%TO.N,/CH4_VZERO*%
D22*
X140496000Y-82081800D02*
X142028600Y-82081800D01*
X142028600Y-82081800D02*
X142144600Y-82197800D01*
%TO.N,/CH3_VBIAS*%
X135197200Y-82334300D02*
X132524000Y-85007500D01*
X135197200Y-81846100D02*
X135197200Y-82334300D01*
%TO.N,/CH4_VBIAS*%
D20*
X138833000Y-83902500D02*
X139011000Y-83724800D01*
X139011000Y-83724800D02*
X141017000Y-83724800D01*
%TO.N,/CH3_RC1*%
X134813000Y-85710800D02*
X133677000Y-85710800D01*
X132948000Y-87082100D02*
X133124000Y-87259000D01*
X136880000Y-85270200D02*
X136514000Y-84904600D01*
X135619000Y-84904600D02*
X134813000Y-85710800D01*
X133677000Y-85710800D02*
X132948000Y-86440000D01*
X132948000Y-86440000D02*
X132948000Y-87082100D01*
X136514000Y-84904600D02*
X135619000Y-84904600D01*
%TO.N,/CH4_RC1*%
D22*
X137688000Y-82853300D02*
X137688000Y-82312600D01*
X138669300Y-84257000D02*
X138477000Y-84064700D01*
X138477000Y-84064700D02*
X138477000Y-83642300D01*
X141415500Y-84257000D02*
X138669300Y-84257000D01*
X138477000Y-83642300D02*
X137688000Y-82853300D01*
X141674000Y-83998500D02*
X141415500Y-84257000D01*
%TO.N,/U2_AVDD_REG*%
D20*
X136839000Y-87339200D02*
X136839000Y-88079500D01*
X133525000Y-86605000D02*
X136105000Y-86605000D01*
X136839000Y-88079500D02*
X136687000Y-88231000D01*
X136105000Y-86605000D02*
X136839000Y-87339200D01*
%TO.N,/U2_VREF25*%
X135642000Y-86013300D02*
X136401000Y-85254500D01*
X133124000Y-86772800D02*
X133124000Y-86515300D01*
X133470000Y-89004600D02*
X133470000Y-87118800D01*
X133470000Y-87118800D02*
X133124000Y-86772800D01*
X133124000Y-86515300D02*
X133626000Y-86013300D01*
X133302000Y-89173400D02*
X133470000Y-89004600D01*
X133626000Y-86013300D02*
X135642000Y-86013300D01*
%TO.N,/~{ALERT}*%
X136928000Y-84840300D02*
X136816000Y-84727900D01*
X134632000Y-84904600D02*
X134457000Y-85079800D01*
X103314000Y-95125300D02*
X99014900Y-90825800D01*
X88107800Y-90825800D02*
X83596300Y-86314300D01*
X134976000Y-84904600D02*
X134632000Y-84904600D01*
X133570000Y-85472400D02*
X131333000Y-87708600D01*
X129489000Y-87788400D02*
X110651000Y-87788400D01*
X83596300Y-86314300D02*
X83596300Y-86096300D01*
X136816000Y-84727900D02*
X135153000Y-84727900D01*
X131210000Y-87708600D02*
X131201000Y-87717000D01*
X134088000Y-85079800D02*
X133696000Y-85472400D01*
X137358000Y-84904600D02*
X137060000Y-84904600D01*
X99014900Y-90825800D02*
X88107800Y-90825800D01*
X133696000Y-85472400D02*
X133570000Y-85472400D01*
X131201000Y-87717000D02*
X129560000Y-87717000D01*
X136996000Y-84840300D02*
X136928000Y-84840300D01*
X137060000Y-84904600D02*
X136996000Y-84840300D01*
X138550000Y-86096500D02*
X137358000Y-84904600D01*
X135153000Y-84727900D02*
X134976000Y-84904600D01*
X110651000Y-87788400D02*
X103314000Y-95125300D01*
X129560000Y-87717000D02*
X129489000Y-87788400D01*
X134457000Y-85079800D02*
X134088000Y-85079800D01*
X117750000Y-109561000D02*
X103314000Y-95125300D01*
X131333000Y-87708600D02*
X131210000Y-87708600D01*
%TO.N,/U2_VDCDC_CAP2N*%
X142597000Y-88225000D02*
X140917000Y-86545400D01*
X144736000Y-88225000D02*
X142597000Y-88225000D01*
%TO.N,/U2_ADDR*%
X136507000Y-87595500D02*
X136507000Y-87492800D01*
X133921000Y-90182100D02*
X136507000Y-87595500D01*
%TO.N,/~{RESET}*%
X123086000Y-112293000D02*
X115000000Y-120380000D01*
X107620000Y-113000000D02*
X115000000Y-120380000D01*
X139373000Y-112293000D02*
X123086000Y-112293000D01*
X115000000Y-120380000D02*
X115000000Y-123000000D01*
X85080000Y-113000000D02*
X107620000Y-113000000D01*
X140080000Y-113000000D02*
X139373000Y-112293000D01*
%TO.N,/U1_BM*%
X86448400Y-104448000D02*
X84979400Y-104448000D01*
X84979400Y-104448000D02*
X82511600Y-101981000D01*
%TO.N,/CH2_RE*%
X87460000Y-71659300D02*
X87460000Y-69000000D01*
%TO.N,/U1_RCAL1*%
X80442800Y-78587400D02*
X80442800Y-80633600D01*
X80442800Y-80633600D02*
X82404600Y-82595400D01*
%TO.N,/U1_RCAL0*%
X82482800Y-79454800D02*
X82774900Y-79746900D01*
X82774900Y-79746900D02*
X82774900Y-82273700D01*
%TO.N,/CH2_VZERO*%
X85674700Y-82100300D02*
X83873200Y-83901800D01*
X83873200Y-83901800D02*
X82833300Y-83901800D01*
%TO.N,/CH2_RC1*%
X84698100Y-85410000D02*
X83090000Y-85410000D01*
X85160000Y-85871900D02*
X84698100Y-85410000D01*
%TO.N,/U1_VREF25*%
X76097400Y-89172400D02*
X75087000Y-88162000D01*
X79288000Y-85661400D02*
X79690600Y-85258800D01*
X75087000Y-88162000D02*
X75087000Y-85929100D01*
X75354700Y-85661400D02*
X79288000Y-85661400D01*
X75087000Y-85929100D02*
X75354700Y-85661400D01*
X80398400Y-85258800D02*
X80398400Y-85258700D01*
X79690600Y-85258800D02*
X80398400Y-85258800D01*
%TO.N,/U1_ADCVBIAS*%
X88038600Y-87973700D02*
X88038600Y-88947500D01*
X88038600Y-88947500D02*
X88068700Y-88977600D01*
X85319900Y-85255000D02*
X88038600Y-87973700D01*
%TO.N,/U1_ADDR*%
X78253400Y-89082500D02*
X79341500Y-89082500D01*
X79341500Y-89082500D02*
X80728900Y-87695100D01*
%TO.N,/U1_VDCDC_CAP1P*%
X83959700Y-87459700D02*
X86022100Y-89522100D01*
X86022100Y-89522100D02*
X86275000Y-89522100D01*
%TO.N,/U1_VDCDC_CAPOUT*%
X85049100Y-87296800D02*
X85724200Y-87296800D01*
X85724200Y-87296800D02*
X88875100Y-90447700D01*
%TD*%
%TA.AperFunction,Conductor*%
%TO.N,+3V3*%
G36*
X88099615Y-98005631D02*
G01*
X88124747Y-98016040D01*
X88148752Y-98032080D01*
X99255558Y-109138826D01*
X100785554Y-110668814D01*
X100785561Y-110668822D01*
X100787418Y-110670679D01*
X100791636Y-110674897D01*
X100862103Y-110745364D01*
X100954172Y-110783500D01*
X100954173Y-110783500D01*
X101053828Y-110783500D01*
X112869736Y-110783500D01*
X112898050Y-110789131D01*
X112923182Y-110799541D01*
X112947188Y-110815581D01*
X112985087Y-110853480D01*
X113076413Y-110906207D01*
X113173589Y-110932244D01*
X113177287Y-110933500D01*
X113283729Y-110933500D01*
X113293992Y-110933500D01*
X113302880Y-110928367D01*
X113385587Y-110906207D01*
X113476913Y-110853480D01*
X113514813Y-110815579D01*
X113538817Y-110799541D01*
X113563948Y-110789131D01*
X113592264Y-110783500D01*
X114450827Y-110783500D01*
X114450828Y-110783500D01*
X114542897Y-110745364D01*
X114730682Y-110557578D01*
X114754685Y-110541541D01*
X114779816Y-110531131D01*
X114808132Y-110525500D01*
X114871992Y-110525500D01*
X114880880Y-110520367D01*
X114963587Y-110498207D01*
X115054913Y-110445480D01*
X115129480Y-110370913D01*
X115182207Y-110279587D01*
X115187234Y-110260826D01*
X115196706Y-110225478D01*
X115196708Y-110225478D01*
X115196711Y-110225455D01*
X115196957Y-110224537D01*
X115209717Y-110198673D01*
X115219946Y-110185342D01*
X115259515Y-110158909D01*
X115262843Y-110158018D01*
X115281981Y-110155500D01*
X125860736Y-110155500D01*
X125889050Y-110161131D01*
X125914182Y-110171541D01*
X125938188Y-110187581D01*
X125976087Y-110225480D01*
X126067413Y-110278207D01*
X126164589Y-110304244D01*
X126168287Y-110305500D01*
X126274729Y-110305500D01*
X126284992Y-110305500D01*
X126293880Y-110300367D01*
X126376587Y-110278207D01*
X126467913Y-110225480D01*
X126542480Y-110150913D01*
X126595207Y-110059587D01*
X126617367Y-109976880D01*
X126622500Y-109967991D01*
X126622500Y-109851286D01*
X126621244Y-109847589D01*
X126595357Y-109750976D01*
X126595220Y-109750446D01*
X126595208Y-109750415D01*
X126542479Y-109659086D01*
X126504581Y-109621188D01*
X126488541Y-109597182D01*
X126478131Y-109572050D01*
X126472500Y-109543736D01*
X126472500Y-107996270D01*
X127285500Y-107996270D01*
X127285500Y-108101729D01*
X127312791Y-108203582D01*
X127312792Y-108203585D01*
X127312793Y-108203587D01*
X127365520Y-108294913D01*
X127440087Y-108369480D01*
X127531413Y-108422207D01*
X127628589Y-108448244D01*
X127632287Y-108449500D01*
X127738729Y-108449500D01*
X127748992Y-108449500D01*
X127757880Y-108444367D01*
X127840587Y-108422207D01*
X127931913Y-108369480D01*
X128006480Y-108294913D01*
X128059207Y-108203587D01*
X128081367Y-108120880D01*
X128086500Y-108111991D01*
X128086500Y-107995286D01*
X128085244Y-107991589D01*
X128059357Y-107894976D01*
X128059220Y-107894446D01*
X128059208Y-107894415D01*
X128059203Y-107894406D01*
X128006480Y-107803087D01*
X127931913Y-107728520D01*
X127931911Y-107728518D01*
X127840592Y-107675795D01*
X127840587Y-107675793D01*
X127840585Y-107675792D01*
X127840583Y-107675791D01*
X127840582Y-107675791D01*
X127738729Y-107648500D01*
X127738728Y-107648500D01*
X127633272Y-107648500D01*
X127633271Y-107648500D01*
X127552932Y-107670026D01*
X127531413Y-107675792D01*
X127531411Y-107675793D01*
X127531406Y-107675795D01*
X127440088Y-107728518D01*
X127365518Y-107803088D01*
X127312795Y-107894406D01*
X127312793Y-107894411D01*
X127312792Y-107894413D01*
X127312791Y-107894417D01*
X127285500Y-107996270D01*
X126472500Y-107996270D01*
X126472500Y-101522139D01*
X126478132Y-101493823D01*
X126481165Y-101486500D01*
X126488540Y-101468693D01*
X126504581Y-101444688D01*
X127002045Y-100947270D01*
X134530500Y-100947270D01*
X134530500Y-101052729D01*
X134556293Y-101148991D01*
X134557792Y-101154584D01*
X134557801Y-101154603D01*
X134577539Y-101188789D01*
X134577541Y-101188792D01*
X134577542Y-101188793D01*
X134610520Y-101245913D01*
X134685087Y-101320480D01*
X134776413Y-101373207D01*
X134873589Y-101399244D01*
X134877287Y-101400500D01*
X134983729Y-101400500D01*
X134993992Y-101400500D01*
X135002880Y-101395367D01*
X135085587Y-101373207D01*
X135176913Y-101320480D01*
X135251480Y-101245913D01*
X135304207Y-101154587D01*
X135331499Y-101052729D01*
X135331500Y-101052729D01*
X135331500Y-100947271D01*
X135331499Y-100947270D01*
X140458500Y-100947270D01*
X140458500Y-101052729D01*
X140484293Y-101148991D01*
X140485792Y-101154584D01*
X140485801Y-101154603D01*
X140505539Y-101188789D01*
X140505541Y-101188792D01*
X140505542Y-101188793D01*
X140538520Y-101245913D01*
X140613087Y-101320480D01*
X140704413Y-101373207D01*
X140801589Y-101399244D01*
X140805287Y-101400500D01*
X140911729Y-101400500D01*
X140921992Y-101400500D01*
X140930880Y-101395367D01*
X141013587Y-101373207D01*
X141104913Y-101320480D01*
X141179480Y-101245913D01*
X141232207Y-101154587D01*
X141254367Y-101071880D01*
X141259500Y-101062991D01*
X141259500Y-100946286D01*
X141258244Y-100942589D01*
X141232357Y-100845976D01*
X141232220Y-100845446D01*
X141232208Y-100845415D01*
X141232203Y-100845406D01*
X141179480Y-100754087D01*
X141104913Y-100679520D01*
X141104911Y-100679518D01*
X141013592Y-100626795D01*
X141013587Y-100626793D01*
X141013585Y-100626792D01*
X141013583Y-100626791D01*
X141013582Y-100626791D01*
X140911729Y-100599500D01*
X140911728Y-100599500D01*
X140806272Y-100599500D01*
X140806271Y-100599500D01*
X140725932Y-100621026D01*
X140704413Y-100626792D01*
X140704411Y-100626793D01*
X140704406Y-100626795D01*
X140613088Y-100679518D01*
X140538518Y-100754088D01*
X140485795Y-100845406D01*
X140485793Y-100845411D01*
X140485792Y-100845413D01*
X140485791Y-100845417D01*
X140458500Y-100947270D01*
X135331499Y-100947270D01*
X135331207Y-100946181D01*
X135331241Y-100945526D01*
X135330244Y-100942589D01*
X135304357Y-100845976D01*
X135304220Y-100845446D01*
X135304208Y-100845415D01*
X135304203Y-100845406D01*
X135251480Y-100754087D01*
X135176913Y-100679520D01*
X135176911Y-100679518D01*
X135085592Y-100626795D01*
X135085587Y-100626793D01*
X135085585Y-100626792D01*
X135085583Y-100626791D01*
X135085582Y-100626791D01*
X134983729Y-100599500D01*
X134983728Y-100599500D01*
X134878272Y-100599500D01*
X134878271Y-100599500D01*
X134797932Y-100621026D01*
X134776413Y-100626792D01*
X134776411Y-100626793D01*
X134776406Y-100626795D01*
X134685088Y-100679518D01*
X134610518Y-100754088D01*
X134557795Y-100845406D01*
X134557793Y-100845411D01*
X134557792Y-100845413D01*
X134557791Y-100845417D01*
X134530500Y-100947270D01*
X127002045Y-100947270D01*
X129917510Y-98032076D01*
X129941511Y-98016040D01*
X129966642Y-98005631D01*
X129994957Y-98000000D01*
X159911281Y-98000000D01*
X159939591Y-98005629D01*
X159950003Y-98009942D01*
X159990053Y-98049985D01*
X159990056Y-98049992D01*
X159994367Y-98060400D01*
X160000000Y-98088718D01*
X160000000Y-126911281D01*
X159994367Y-126939599D01*
X159990056Y-126950007D01*
X159950008Y-126990055D01*
X159950007Y-126990056D01*
X159939599Y-126994367D01*
X159911281Y-127000000D01*
X60088719Y-127000000D01*
X60060404Y-126994368D01*
X60049995Y-126990057D01*
X60009946Y-126950013D01*
X60005629Y-126939591D01*
X60000000Y-126911281D01*
X60000000Y-122130302D01*
X69950000Y-122130302D01*
X69950000Y-122875000D01*
X70426000Y-122875000D01*
X70478326Y-122896674D01*
X70500000Y-122949000D01*
X70500000Y-123051000D01*
X70478326Y-123103326D01*
X70426000Y-123125000D01*
X69950000Y-123125000D01*
X69950000Y-123869697D01*
X69956425Y-123902004D01*
X69961602Y-123928034D01*
X69998587Y-123983385D01*
X70005807Y-123994191D01*
X70005808Y-123994192D01*
X70071964Y-124038396D01*
X70130303Y-124050000D01*
X70875000Y-124050000D01*
X70875000Y-123574000D01*
X70896674Y-123521674D01*
X70949000Y-123500000D01*
X71051000Y-123500000D01*
X71103326Y-123521674D01*
X71125000Y-123574000D01*
X71125000Y-124050000D01*
X71869696Y-124050000D01*
X71869697Y-124050000D01*
X71928035Y-124038396D01*
X71994191Y-123994192D01*
X71994192Y-123994191D01*
X72038396Y-123928035D01*
X72050000Y-123869697D01*
X72050000Y-123125000D01*
X71574000Y-123125000D01*
X71521674Y-123103326D01*
X71500000Y-123051000D01*
X71500000Y-122949000D01*
X71521674Y-122896674D01*
X71522010Y-122896535D01*
X72489500Y-122896535D01*
X72489500Y-123103463D01*
X72529865Y-123306399D01*
X72529870Y-123306420D01*
X72609059Y-123497598D01*
X72713677Y-123654172D01*
X72724023Y-123669655D01*
X72870345Y-123815977D01*
X73042402Y-123930941D01*
X73233580Y-124010130D01*
X73436535Y-124050500D01*
X73436536Y-124050500D01*
X73643464Y-124050500D01*
X73643465Y-124050500D01*
X73846420Y-124010130D01*
X74037598Y-123930941D01*
X74209655Y-123815977D01*
X74355977Y-123669655D01*
X74470941Y-123497598D01*
X74550130Y-123306420D01*
X74590500Y-123103465D01*
X74590500Y-122896535D01*
X75029500Y-122896535D01*
X75029500Y-123103463D01*
X75069865Y-123306399D01*
X75069870Y-123306420D01*
X75149059Y-123497598D01*
X75253677Y-123654172D01*
X75264023Y-123669655D01*
X75410345Y-123815977D01*
X75582402Y-123930941D01*
X75773580Y-124010130D01*
X75976535Y-124050500D01*
X75976536Y-124050500D01*
X76183464Y-124050500D01*
X76183465Y-124050500D01*
X76386420Y-124010130D01*
X76577598Y-123930941D01*
X76749655Y-123815977D01*
X76895977Y-123669655D01*
X77010941Y-123497598D01*
X77090130Y-123306420D01*
X77130500Y-123103465D01*
X77130500Y-122896535D01*
X77569500Y-122896535D01*
X77569500Y-123103463D01*
X77609865Y-123306399D01*
X77609870Y-123306420D01*
X77689059Y-123497598D01*
X77793677Y-123654172D01*
X77804023Y-123669655D01*
X77950345Y-123815977D01*
X78122402Y-123930941D01*
X78313580Y-124010130D01*
X78516535Y-124050500D01*
X78516536Y-124050500D01*
X78723464Y-124050500D01*
X78723465Y-124050500D01*
X78926420Y-124010130D01*
X79103185Y-123936911D01*
X79116385Y-123932839D01*
X79122091Y-123931648D01*
X79122092Y-123931649D01*
X79143359Y-123927211D01*
X79193043Y-123934223D01*
X79198168Y-123936931D01*
X79215916Y-123950026D01*
X79471184Y-124205245D01*
X79507334Y-124241395D01*
X79507417Y-124241449D01*
X79508684Y-124241941D01*
X79553121Y-124260342D01*
X79553126Y-124260347D01*
X79553127Y-124260345D01*
X79599372Y-124279500D01*
X79599396Y-124279504D01*
X79599397Y-124279505D01*
X79599397Y-124279504D01*
X79599398Y-124279505D01*
X79624311Y-124279502D01*
X79649225Y-124279500D01*
X105482172Y-124279500D01*
X105581828Y-124279500D01*
X105673897Y-124241364D01*
X106204616Y-123710642D01*
X106228616Y-123694606D01*
X106239031Y-123690293D01*
X106295660Y-123690293D01*
X106301295Y-123692627D01*
X106334507Y-123719882D01*
X106373674Y-123778500D01*
X106378211Y-123785289D01*
X106489711Y-123896789D01*
X106579712Y-123956926D01*
X106589359Y-123971362D01*
X106617674Y-123983091D01*
X106618301Y-123983385D01*
X106620364Y-123984210D01*
X106621082Y-123984502D01*
X106682956Y-124010131D01*
X106766503Y-124044737D01*
X106921158Y-124075500D01*
X106921160Y-124075500D01*
X107078840Y-124075500D01*
X107078842Y-124075500D01*
X107233497Y-124044737D01*
X107379179Y-123984394D01*
X107510289Y-123896789D01*
X107621789Y-123785289D01*
X107709394Y-123654179D01*
X107769737Y-123508497D01*
X107800500Y-123353842D01*
X107800500Y-123304857D01*
X107806131Y-123276543D01*
X107813492Y-123258771D01*
X107853536Y-123218725D01*
X107868897Y-123212364D01*
X107939364Y-123141897D01*
X107977500Y-123049828D01*
X107977500Y-123049822D01*
X107978533Y-123044634D01*
X107982739Y-123030763D01*
X107993543Y-123004680D01*
X108009578Y-122980682D01*
X108062769Y-122927491D01*
X108086769Y-122911455D01*
X108094136Y-122908404D01*
X108150771Y-122908406D01*
X108190815Y-122948447D01*
X108193864Y-122955806D01*
X108199500Y-122984131D01*
X108199500Y-123353840D01*
X108207137Y-123392237D01*
X108230260Y-123508489D01*
X108230263Y-123508500D01*
X108230265Y-123508505D01*
X108267441Y-123598255D01*
X108290603Y-123654174D01*
X108290605Y-123654177D01*
X108290606Y-123654179D01*
X108306900Y-123678565D01*
X108373674Y-123778500D01*
X108378211Y-123785289D01*
X108489711Y-123896789D01*
X108579712Y-123956926D01*
X108589359Y-123971362D01*
X108617674Y-123983091D01*
X108618301Y-123983385D01*
X108620364Y-123984210D01*
X108621082Y-123984502D01*
X108682956Y-124010131D01*
X108766503Y-124044737D01*
X108921158Y-124075500D01*
X108921160Y-124075500D01*
X109078840Y-124075500D01*
X109078842Y-124075500D01*
X109233497Y-124044737D01*
X109379179Y-123984394D01*
X109510289Y-123896789D01*
X109621789Y-123785289D01*
X109709394Y-123654179D01*
X109769737Y-123508497D01*
X109800500Y-123353842D01*
X109800500Y-122646159D01*
X110199500Y-122646159D01*
X110199500Y-123353840D01*
X110207137Y-123392237D01*
X110230260Y-123508489D01*
X110230263Y-123508500D01*
X110230265Y-123508505D01*
X110267441Y-123598255D01*
X110290603Y-123654174D01*
X110290605Y-123654177D01*
X110290606Y-123654179D01*
X110306900Y-123678565D01*
X110373674Y-123778500D01*
X110378211Y-123785289D01*
X110489711Y-123896789D01*
X110579712Y-123956926D01*
X110589359Y-123971362D01*
X110617674Y-123983091D01*
X110618301Y-123983385D01*
X110620364Y-123984210D01*
X110621082Y-123984502D01*
X110682956Y-124010131D01*
X110766503Y-124044737D01*
X110921158Y-124075500D01*
X110921160Y-124075500D01*
X111078840Y-124075500D01*
X111078842Y-124075500D01*
X111233497Y-124044737D01*
X111379179Y-123984394D01*
X111510289Y-123896789D01*
X111621789Y-123785289D01*
X111709394Y-123654179D01*
X111769737Y-123508497D01*
X111800500Y-123353842D01*
X111800500Y-122646159D01*
X112199500Y-122646159D01*
X112199500Y-123353840D01*
X112207137Y-123392237D01*
X112230260Y-123508489D01*
X112230263Y-123508500D01*
X112230265Y-123508505D01*
X112267441Y-123598255D01*
X112290603Y-123654174D01*
X112290605Y-123654177D01*
X112290606Y-123654179D01*
X112306900Y-123678565D01*
X112373674Y-123778500D01*
X112378211Y-123785289D01*
X112489711Y-123896789D01*
X112579712Y-123956926D01*
X112589359Y-123971362D01*
X112617674Y-123983091D01*
X112618301Y-123983385D01*
X112620364Y-123984210D01*
X112621082Y-123984502D01*
X112682956Y-124010131D01*
X112766503Y-124044737D01*
X112921158Y-124075500D01*
X112921160Y-124075500D01*
X113078840Y-124075500D01*
X113078842Y-124075500D01*
X113233497Y-124044737D01*
X113379179Y-123984394D01*
X113510289Y-123896789D01*
X113621789Y-123785289D01*
X113709394Y-123654179D01*
X113769737Y-123508497D01*
X113800500Y-123353842D01*
X113800500Y-122646158D01*
X113769737Y-122491503D01*
X113747422Y-122437629D01*
X113709396Y-122345825D01*
X113709395Y-122345823D01*
X113709394Y-122345821D01*
X113621789Y-122214711D01*
X113510289Y-122103211D01*
X113510286Y-122103209D01*
X113434914Y-122052847D01*
X113420285Y-122043072D01*
X113410639Y-122028635D01*
X113233505Y-121955265D01*
X113233500Y-121955263D01*
X113233489Y-121955260D01*
X113129925Y-121934661D01*
X113129924Y-121934660D01*
X113078842Y-121924500D01*
X112921158Y-121924500D01*
X112877314Y-121933219D01*
X112877315Y-121933220D01*
X112766511Y-121955259D01*
X112766493Y-121955265D01*
X112620825Y-122015602D01*
X112489441Y-122103390D01*
X112488065Y-122104856D01*
X112379856Y-122213065D01*
X112378390Y-122214441D01*
X112290604Y-122345823D01*
X112290603Y-122345823D01*
X112230265Y-122491493D01*
X112230263Y-122491499D01*
X112230260Y-122491509D01*
X112225418Y-122515855D01*
X112199500Y-122646159D01*
X111800500Y-122646159D01*
X111800500Y-122646158D01*
X111769737Y-122491503D01*
X111747422Y-122437629D01*
X111709396Y-122345825D01*
X111709395Y-122345823D01*
X111709394Y-122345821D01*
X111621789Y-122214711D01*
X111510289Y-122103211D01*
X111510286Y-122103209D01*
X111434914Y-122052847D01*
X111420285Y-122043072D01*
X111410639Y-122028635D01*
X111233505Y-121955265D01*
X111233500Y-121955263D01*
X111233489Y-121955260D01*
X111129925Y-121934661D01*
X111129924Y-121934660D01*
X111078842Y-121924500D01*
X110921158Y-121924500D01*
X110877314Y-121933219D01*
X110877315Y-121933220D01*
X110766511Y-121955259D01*
X110766493Y-121955265D01*
X110620825Y-122015602D01*
X110489441Y-122103390D01*
X110488065Y-122104856D01*
X110379856Y-122213065D01*
X110378390Y-122214441D01*
X110290604Y-122345823D01*
X110290603Y-122345823D01*
X110230265Y-122491493D01*
X110230263Y-122491499D01*
X110230260Y-122491509D01*
X110225418Y-122515855D01*
X110199500Y-122646159D01*
X109800500Y-122646159D01*
X109800500Y-122646158D01*
X109769737Y-122491503D01*
X109747422Y-122437629D01*
X109709396Y-122345825D01*
X109709395Y-122345823D01*
X109709394Y-122345821D01*
X109621789Y-122214711D01*
X109510289Y-122103211D01*
X109510286Y-122103209D01*
X109434914Y-122052847D01*
X109420285Y-122043072D01*
X109410639Y-122028635D01*
X109233504Y-121955265D01*
X109233495Y-121955262D01*
X109226024Y-121953776D01*
X109218149Y-121952209D01*
X109191472Y-121941158D01*
X109182365Y-121935072D01*
X109150902Y-121887978D01*
X109158217Y-121838667D01*
X109160648Y-121834118D01*
X109173581Y-121816678D01*
X112187682Y-118802578D01*
X112211685Y-118786541D01*
X112236816Y-118776131D01*
X112265132Y-118770500D01*
X112311736Y-118770500D01*
X112340050Y-118776131D01*
X112365182Y-118786541D01*
X112389188Y-118802581D01*
X112427087Y-118840480D01*
X112518413Y-118893207D01*
X112615589Y-118919244D01*
X112619287Y-118920500D01*
X112725729Y-118920500D01*
X112735992Y-118920500D01*
X112744880Y-118915367D01*
X112827587Y-118893207D01*
X112918913Y-118840480D01*
X112949834Y-118809558D01*
X112973837Y-118793520D01*
X112984250Y-118789208D01*
X113040882Y-118789208D01*
X113051293Y-118793520D01*
X113075299Y-118809560D01*
X114717418Y-120451679D01*
X114733457Y-120475682D01*
X114743868Y-120500816D01*
X114749500Y-120529131D01*
X114749500Y-121898140D01*
X114743866Y-121926461D01*
X114736506Y-121944228D01*
X114696459Y-121984274D01*
X114620821Y-122015604D01*
X114489441Y-122103389D01*
X114488060Y-122104861D01*
X114379856Y-122213065D01*
X114378390Y-122214441D01*
X114290604Y-122345823D01*
X114290603Y-122345823D01*
X114230265Y-122491493D01*
X114230263Y-122491499D01*
X114230260Y-122491509D01*
X114225418Y-122515855D01*
X114199500Y-122646159D01*
X114199500Y-123353840D01*
X114207137Y-123392237D01*
X114230260Y-123508489D01*
X114230263Y-123508500D01*
X114230265Y-123508505D01*
X114267441Y-123598255D01*
X114290603Y-123654174D01*
X114290605Y-123654177D01*
X114290606Y-123654179D01*
X114306900Y-123678565D01*
X114373674Y-123778500D01*
X114378211Y-123785289D01*
X114489711Y-123896789D01*
X114579712Y-123956926D01*
X114589359Y-123971362D01*
X114617674Y-123983091D01*
X114618301Y-123983385D01*
X114620364Y-123984210D01*
X114621082Y-123984502D01*
X114682956Y-124010131D01*
X114766503Y-124044737D01*
X114921158Y-124075500D01*
X114921160Y-124075500D01*
X115078840Y-124075500D01*
X115078842Y-124075500D01*
X115233497Y-124044737D01*
X115379179Y-123984394D01*
X115510289Y-123896789D01*
X115621789Y-123785289D01*
X115709394Y-123654179D01*
X115769737Y-123508497D01*
X115800500Y-123353842D01*
X115800500Y-122646158D01*
X115769737Y-122491503D01*
X115747422Y-122437629D01*
X115709396Y-122345825D01*
X115709395Y-122345823D01*
X115709394Y-122345821D01*
X115621789Y-122214711D01*
X115537380Y-122130302D01*
X139950000Y-122130302D01*
X139950000Y-122875000D01*
X140426000Y-122875000D01*
X140478326Y-122896674D01*
X140500000Y-122949000D01*
X140500000Y-123051000D01*
X140478326Y-123103326D01*
X140426000Y-123125000D01*
X139950000Y-123125000D01*
X139950000Y-123869697D01*
X139956425Y-123902004D01*
X139961602Y-123928034D01*
X139998587Y-123983385D01*
X140005807Y-123994191D01*
X140005808Y-123994192D01*
X140071964Y-124038396D01*
X140130303Y-124050000D01*
X140875000Y-124050000D01*
X140875000Y-123574000D01*
X140896674Y-123521674D01*
X140949000Y-123500000D01*
X141051000Y-123500000D01*
X141103326Y-123521674D01*
X141125000Y-123574000D01*
X141125000Y-124050000D01*
X141869696Y-124050000D01*
X141869697Y-124050000D01*
X141928035Y-124038396D01*
X141994191Y-123994192D01*
X141994192Y-123994191D01*
X142038396Y-123928035D01*
X142050000Y-123869697D01*
X142050000Y-123125000D01*
X141574000Y-123125000D01*
X141521674Y-123103326D01*
X141500000Y-123051000D01*
X141500000Y-122949000D01*
X141521674Y-122896674D01*
X141522010Y-122896535D01*
X142489500Y-122896535D01*
X142489500Y-123103463D01*
X142529865Y-123306399D01*
X142529870Y-123306420D01*
X142609059Y-123497598D01*
X142713677Y-123654172D01*
X142724023Y-123669655D01*
X142870345Y-123815977D01*
X143042402Y-123930941D01*
X143233580Y-124010130D01*
X143436535Y-124050500D01*
X143436536Y-124050500D01*
X143643464Y-124050500D01*
X143643465Y-124050500D01*
X143846420Y-124010130D01*
X144037598Y-123930941D01*
X144209655Y-123815977D01*
X144355977Y-123669655D01*
X144470941Y-123497598D01*
X144550130Y-123306420D01*
X144590500Y-123103465D01*
X144590500Y-122896535D01*
X145029500Y-122896535D01*
X145029500Y-123103463D01*
X145069865Y-123306399D01*
X145069870Y-123306420D01*
X145149059Y-123497598D01*
X145253677Y-123654172D01*
X145264023Y-123669655D01*
X145410345Y-123815977D01*
X145582402Y-123930941D01*
X145773580Y-124010130D01*
X145976535Y-124050500D01*
X145976536Y-124050500D01*
X146183464Y-124050500D01*
X146183465Y-124050500D01*
X146386420Y-124010130D01*
X146577598Y-123930941D01*
X146749655Y-123815977D01*
X146895977Y-123669655D01*
X147010941Y-123497598D01*
X147090130Y-123306420D01*
X147130500Y-123103465D01*
X147130500Y-122896535D01*
X147569500Y-122896535D01*
X147569500Y-123103463D01*
X147609865Y-123306399D01*
X147609870Y-123306420D01*
X147689059Y-123497598D01*
X147793677Y-123654172D01*
X147804023Y-123669655D01*
X147950345Y-123815977D01*
X148122402Y-123930941D01*
X148313580Y-124010130D01*
X148516535Y-124050500D01*
X148516536Y-124050500D01*
X148723464Y-124050500D01*
X148723465Y-124050500D01*
X148926420Y-124010130D01*
X149117598Y-123930941D01*
X149289655Y-123815977D01*
X149435977Y-123669655D01*
X149550941Y-123497598D01*
X149630130Y-123306420D01*
X149670500Y-123103465D01*
X149670500Y-122896535D01*
X149630130Y-122693580D01*
X149550941Y-122502402D01*
X149435977Y-122330345D01*
X149289655Y-122184023D01*
X149256877Y-122162122D01*
X149209255Y-122130302D01*
X149117598Y-122069059D01*
X149117595Y-122069057D01*
X149117594Y-122069057D01*
X148926420Y-121989870D01*
X148926413Y-121989868D01*
X148926408Y-121989867D01*
X148926404Y-121989866D01*
X148837620Y-121972206D01*
X148773516Y-121959455D01*
X148773515Y-121959454D01*
X148723465Y-121949500D01*
X148516535Y-121949500D01*
X148476385Y-121957486D01*
X148313599Y-121989865D01*
X148313578Y-121989870D01*
X148122400Y-122069059D01*
X147950075Y-122184202D01*
X147948699Y-122185668D01*
X147805668Y-122328699D01*
X147804202Y-122330075D01*
X147689059Y-122502400D01*
X147609870Y-122693578D01*
X147609865Y-122693599D01*
X147569500Y-122896535D01*
X147130500Y-122896535D01*
X147090130Y-122693580D01*
X147010941Y-122502402D01*
X146895977Y-122330345D01*
X146749655Y-122184023D01*
X146716877Y-122162122D01*
X146669255Y-122130302D01*
X146577598Y-122069059D01*
X146577595Y-122069057D01*
X146577594Y-122069057D01*
X146386420Y-121989870D01*
X146386413Y-121989868D01*
X146386408Y-121989867D01*
X146386404Y-121989866D01*
X146297620Y-121972206D01*
X146233516Y-121959455D01*
X146233515Y-121959454D01*
X146183465Y-121949500D01*
X145976535Y-121949500D01*
X145936385Y-121957486D01*
X145773599Y-121989865D01*
X145773578Y-121989870D01*
X145582400Y-122069059D01*
X145410075Y-122184202D01*
X145408699Y-122185668D01*
X145265668Y-122328699D01*
X145264202Y-122330075D01*
X145149059Y-122502400D01*
X145069870Y-122693578D01*
X145069865Y-122693599D01*
X145029500Y-122896535D01*
X144590500Y-122896535D01*
X144550130Y-122693580D01*
X144470941Y-122502402D01*
X144355977Y-122330345D01*
X144209655Y-122184023D01*
X144176877Y-122162122D01*
X144129255Y-122130302D01*
X144037598Y-122069059D01*
X144037595Y-122069057D01*
X144037594Y-122069057D01*
X143846420Y-121989870D01*
X143846413Y-121989868D01*
X143846408Y-121989867D01*
X143846404Y-121989866D01*
X143757620Y-121972206D01*
X143693516Y-121959455D01*
X143693515Y-121959454D01*
X143643465Y-121949500D01*
X143436535Y-121949500D01*
X143396385Y-121957486D01*
X143233599Y-121989865D01*
X143233578Y-121989870D01*
X143042400Y-122069059D01*
X142870075Y-122184202D01*
X142868699Y-122185668D01*
X142725668Y-122328699D01*
X142724202Y-122330075D01*
X142609059Y-122502400D01*
X142529870Y-122693578D01*
X142529865Y-122693599D01*
X142489500Y-122896535D01*
X141522010Y-122896535D01*
X141574000Y-122875000D01*
X142050000Y-122875000D01*
X142050000Y-122130302D01*
X142038396Y-122071964D01*
X141994192Y-122005808D01*
X141994190Y-122005806D01*
X141928034Y-121961602D01*
X141898762Y-121955780D01*
X141869697Y-121950000D01*
X141869693Y-121950000D01*
X141125000Y-121950000D01*
X141125000Y-122426000D01*
X141103326Y-122478326D01*
X141051000Y-122500000D01*
X140949000Y-122500000D01*
X140896674Y-122478326D01*
X140875000Y-122426000D01*
X140875000Y-121950000D01*
X140130303Y-121950000D01*
X140130298Y-121950000D01*
X140071966Y-121961601D01*
X140005808Y-122005806D01*
X140005806Y-122005808D01*
X139961602Y-122071964D01*
X139955389Y-122103206D01*
X139950000Y-122130302D01*
X115537380Y-122130302D01*
X115510289Y-122103211D01*
X115510285Y-122103208D01*
X115510283Y-122103206D01*
X115434924Y-122052853D01*
X115379178Y-122015605D01*
X115309780Y-121986859D01*
X115285771Y-121970816D01*
X115272172Y-121957216D01*
X115250500Y-121904892D01*
X115250500Y-120529117D01*
X115256132Y-120500801D01*
X115266539Y-120475673D01*
X115282575Y-120451671D01*
X115739119Y-119995072D01*
X116342846Y-119391270D01*
X122043500Y-119391270D01*
X122043500Y-119496729D01*
X122070791Y-119598582D01*
X122070792Y-119598585D01*
X122070793Y-119598587D01*
X122123520Y-119689913D01*
X122198087Y-119764480D01*
X122289413Y-119817207D01*
X122386589Y-119843244D01*
X122390287Y-119844500D01*
X122496729Y-119844500D01*
X122506992Y-119844500D01*
X122515880Y-119839367D01*
X122598587Y-119817207D01*
X122689913Y-119764480D01*
X122764480Y-119689913D01*
X122817207Y-119598587D01*
X122839367Y-119515880D01*
X122844500Y-119506991D01*
X122844500Y-119390286D01*
X122843244Y-119386589D01*
X122817357Y-119289976D01*
X122817220Y-119289446D01*
X122817208Y-119289415D01*
X122817203Y-119289406D01*
X122764480Y-119198087D01*
X122689913Y-119123520D01*
X122689911Y-119123518D01*
X122598592Y-119070795D01*
X122598587Y-119070793D01*
X122598585Y-119070792D01*
X122598583Y-119070791D01*
X122598582Y-119070791D01*
X122496729Y-119043500D01*
X122496728Y-119043500D01*
X122391272Y-119043500D01*
X122391271Y-119043500D01*
X122310932Y-119065026D01*
X122289413Y-119070792D01*
X122289411Y-119070793D01*
X122289406Y-119070795D01*
X122198088Y-119123518D01*
X122123518Y-119198088D01*
X122070795Y-119289406D01*
X122070793Y-119289411D01*
X122070792Y-119289413D01*
X122070791Y-119289417D01*
X122043500Y-119391270D01*
X116342846Y-119391270D01*
X117464477Y-118269500D01*
X122691306Y-113042025D01*
X123157688Y-112575584D01*
X123181694Y-112559543D01*
X123196378Y-112553460D01*
X123206817Y-112549134D01*
X123235140Y-112543500D01*
X134211281Y-112543500D01*
X134239591Y-112549129D01*
X134250003Y-112553442D01*
X134290053Y-112593485D01*
X134290056Y-112593492D01*
X134294367Y-112603900D01*
X134300000Y-112632218D01*
X134300000Y-112875000D01*
X134601443Y-112875000D01*
X134653769Y-112896674D01*
X134675443Y-112949000D01*
X134675000Y-112955752D01*
X134675000Y-113047637D01*
X134673121Y-113047637D01*
X134660154Y-113096044D01*
X134611107Y-113124366D01*
X134601443Y-113125000D01*
X134300000Y-113125000D01*
X134300000Y-113519697D01*
X134304857Y-113544115D01*
X134311602Y-113578034D01*
X134340162Y-113620776D01*
X134355807Y-113644191D01*
X134355808Y-113644192D01*
X134421964Y-113688396D01*
X134480303Y-113700000D01*
X134875000Y-113700000D01*
X134875000Y-113398557D01*
X134896674Y-113346231D01*
X134949000Y-113324557D01*
X134955753Y-113325000D01*
X135047637Y-113325000D01*
X135047637Y-113326878D01*
X135096044Y-113339846D01*
X135124366Y-113388893D01*
X135125000Y-113398557D01*
X135125000Y-113700000D01*
X135519696Y-113700000D01*
X135519697Y-113700000D01*
X135578035Y-113688396D01*
X135644191Y-113644192D01*
X135644192Y-113644191D01*
X135688395Y-113578035D01*
X135688395Y-113578033D01*
X135689560Y-113575223D01*
X135696391Y-113562442D01*
X135703685Y-113551526D01*
X135750774Y-113520060D01*
X135800097Y-113527376D01*
X135804645Y-113529807D01*
X135822080Y-113542736D01*
X135823458Y-113544114D01*
X135938189Y-113620775D01*
X136065672Y-113673580D01*
X136201007Y-113700500D01*
X136201009Y-113700500D01*
X136338991Y-113700500D01*
X136338993Y-113700500D01*
X136474328Y-113673580D01*
X136601811Y-113620775D01*
X136716542Y-113544114D01*
X136814114Y-113446542D01*
X136835296Y-113414839D01*
X136855708Y-113394428D01*
X136865081Y-113388165D01*
X136920624Y-113377119D01*
X136923865Y-113377764D01*
X136970952Y-113409227D01*
X136995886Y-113446542D01*
X137093458Y-113544114D01*
X137208189Y-113620775D01*
X137335672Y-113673580D01*
X137471007Y-113700500D01*
X137471009Y-113700500D01*
X137608991Y-113700500D01*
X137608993Y-113700500D01*
X137744328Y-113673580D01*
X137871811Y-113620775D01*
X137986542Y-113544114D01*
X138084114Y-113446542D01*
X138105296Y-113414839D01*
X138125708Y-113394428D01*
X138135081Y-113388165D01*
X138190624Y-113377119D01*
X138193865Y-113377764D01*
X138240952Y-113409227D01*
X138265886Y-113446542D01*
X138363458Y-113544114D01*
X138478189Y-113620775D01*
X138605672Y-113673580D01*
X138741007Y-113700500D01*
X138741009Y-113700500D01*
X138878991Y-113700500D01*
X138878993Y-113700500D01*
X139014328Y-113673580D01*
X139141811Y-113620775D01*
X139256542Y-113544114D01*
X139354114Y-113446542D01*
X139375296Y-113414839D01*
X139395708Y-113394428D01*
X139405081Y-113388165D01*
X139460624Y-113377119D01*
X139463865Y-113377764D01*
X139510952Y-113409227D01*
X139535886Y-113446542D01*
X139633458Y-113544114D01*
X139748189Y-113620775D01*
X139875672Y-113673580D01*
X140011007Y-113700500D01*
X140011009Y-113700500D01*
X140148991Y-113700500D01*
X140148993Y-113700500D01*
X140284328Y-113673580D01*
X140411811Y-113620775D01*
X140526542Y-113544114D01*
X140624114Y-113446542D01*
X140700775Y-113331811D01*
X140753580Y-113204328D01*
X140780500Y-113068993D01*
X140780500Y-112931007D01*
X140753580Y-112795672D01*
X140734455Y-112749500D01*
X140712721Y-112697029D01*
X140700777Y-112668193D01*
X140666905Y-112617500D01*
X140624114Y-112553458D01*
X140526541Y-112455885D01*
X140475774Y-112421964D01*
X140411805Y-112379221D01*
X140284336Y-112326422D01*
X140284331Y-112326420D01*
X140284318Y-112326416D01*
X140284319Y-112326416D01*
X140193694Y-112308391D01*
X140193694Y-112308390D01*
X140148993Y-112299500D01*
X140011007Y-112299500D01*
X139972491Y-112307161D01*
X139875676Y-112326417D01*
X139874769Y-112326728D01*
X139873239Y-112327427D01*
X139853639Y-112335545D01*
X139825318Y-112341177D01*
X139806085Y-112341176D01*
X139753763Y-112319502D01*
X139514899Y-112080638D01*
X139514894Y-112080634D01*
X139514893Y-112080633D01*
X139422828Y-112042500D01*
X123145156Y-112042500D01*
X123145031Y-112042497D01*
X123143309Y-112042497D01*
X123135812Y-112042497D01*
X123085985Y-112042500D01*
X123036165Y-112042500D01*
X123036162Y-112042500D01*
X123036161Y-112042501D01*
X123036159Y-112042501D01*
X123036158Y-112042502D01*
X123010798Y-112053008D01*
X122992839Y-112060448D01*
X122992834Y-112060450D01*
X122944099Y-112080635D01*
X122944092Y-112080640D01*
X122911759Y-112112978D01*
X122911756Y-112112982D01*
X122868609Y-112156129D01*
X122868518Y-112156223D01*
X115062720Y-119962986D01*
X115038719Y-119979026D01*
X115028313Y-119983338D01*
X114971676Y-119983346D01*
X114961261Y-119979033D01*
X114937252Y-119962991D01*
X107761899Y-112787638D01*
X107761894Y-112787634D01*
X107761893Y-112787633D01*
X107669828Y-112749500D01*
X85798619Y-112749500D01*
X85770301Y-112743867D01*
X85752532Y-112736507D01*
X85712484Y-112696458D01*
X85700776Y-112668191D01*
X85666905Y-112617500D01*
X85624114Y-112553458D01*
X85526542Y-112455886D01*
X85526536Y-112455882D01*
X85475774Y-112421964D01*
X85411805Y-112379221D01*
X85284336Y-112326422D01*
X85284331Y-112326420D01*
X85284318Y-112326416D01*
X85284319Y-112326416D01*
X85193694Y-112308391D01*
X85193694Y-112308390D01*
X85148993Y-112299500D01*
X85011007Y-112299500D01*
X84972642Y-112307131D01*
X84875678Y-112326417D01*
X84875668Y-112326420D01*
X84875662Y-112326422D01*
X84748191Y-112379222D01*
X84633461Y-112455882D01*
X84633461Y-112455883D01*
X84535883Y-112553460D01*
X84535883Y-112553461D01*
X84535881Y-112553463D01*
X84521100Y-112575585D01*
X84514706Y-112585155D01*
X84494288Y-112605572D01*
X84484922Y-112611830D01*
X84429373Y-112622878D01*
X84426134Y-112622234D01*
X84379046Y-112590770D01*
X84375294Y-112585155D01*
X84354118Y-112553463D01*
X84354116Y-112553461D01*
X84354115Y-112553460D01*
X84354115Y-112553459D01*
X84256541Y-112455885D01*
X84205774Y-112421964D01*
X84141805Y-112379221D01*
X84014336Y-112326422D01*
X84014331Y-112326420D01*
X84014318Y-112326416D01*
X84014319Y-112326416D01*
X83923694Y-112308391D01*
X83923694Y-112308390D01*
X83878993Y-112299500D01*
X83741007Y-112299500D01*
X83702642Y-112307131D01*
X83605678Y-112326417D01*
X83605668Y-112326420D01*
X83605662Y-112326422D01*
X83478191Y-112379222D01*
X83363461Y-112455882D01*
X83363461Y-112455883D01*
X83265883Y-112553460D01*
X83265883Y-112553461D01*
X83265881Y-112553463D01*
X83251100Y-112575585D01*
X83244706Y-112585155D01*
X83224288Y-112605572D01*
X83214922Y-112611830D01*
X83159373Y-112622878D01*
X83156134Y-112622234D01*
X83109046Y-112590770D01*
X83105294Y-112585155D01*
X83084118Y-112553463D01*
X83084116Y-112553461D01*
X83084115Y-112553460D01*
X83084115Y-112553459D01*
X82986541Y-112455885D01*
X82935774Y-112421964D01*
X82871805Y-112379221D01*
X82744336Y-112326422D01*
X82744331Y-112326420D01*
X82744318Y-112326416D01*
X82744319Y-112326416D01*
X82653694Y-112308391D01*
X82653694Y-112308390D01*
X82608993Y-112299500D01*
X82471007Y-112299500D01*
X82432642Y-112307131D01*
X82335678Y-112326417D01*
X82335668Y-112326420D01*
X82335662Y-112326422D01*
X82208191Y-112379222D01*
X82093461Y-112455882D01*
X82093461Y-112455883D01*
X81995883Y-112553460D01*
X81995883Y-112553461D01*
X81995881Y-112553463D01*
X81981100Y-112575585D01*
X81974706Y-112585155D01*
X81954288Y-112605572D01*
X81944922Y-112611830D01*
X81889373Y-112622878D01*
X81886134Y-112622234D01*
X81839046Y-112590770D01*
X81835294Y-112585155D01*
X81814118Y-112553463D01*
X81814116Y-112553461D01*
X81814115Y-112553460D01*
X81814115Y-112553459D01*
X81716541Y-112455885D01*
X81665774Y-112421964D01*
X81601805Y-112379221D01*
X81474336Y-112326422D01*
X81474331Y-112326420D01*
X81474318Y-112326416D01*
X81474319Y-112326416D01*
X81383694Y-112308391D01*
X81383694Y-112308390D01*
X81338993Y-112299500D01*
X81201007Y-112299500D01*
X81162642Y-112307131D01*
X81065678Y-112326417D01*
X81065668Y-112326420D01*
X81065662Y-112326422D01*
X80938191Y-112379222D01*
X80823525Y-112455840D01*
X80823461Y-112455883D01*
X80823454Y-112455887D01*
X80820634Y-112458200D01*
X80820185Y-112457653D01*
X80800723Y-112470652D01*
X80790607Y-112474841D01*
X80733970Y-112474841D01*
X80697024Y-112441350D01*
X80694591Y-112436797D01*
X80691626Y-112428508D01*
X80691183Y-112428692D01*
X80688396Y-112421964D01*
X80644192Y-112355808D01*
X80644190Y-112355806D01*
X80578034Y-112311602D01*
X80548762Y-112305780D01*
X80519697Y-112300000D01*
X80519693Y-112300000D01*
X80125000Y-112300000D01*
X80125000Y-112601442D01*
X80103326Y-112653768D01*
X80051000Y-112675442D01*
X80044245Y-112675000D01*
X80042787Y-112675000D01*
X79957213Y-112675000D01*
X79952363Y-112675000D01*
X79952363Y-112673126D01*
X79903939Y-112660140D01*
X79875631Y-112611085D01*
X79875000Y-112601442D01*
X79875000Y-112300000D01*
X79480303Y-112300000D01*
X79480298Y-112300000D01*
X79421966Y-112311601D01*
X79355808Y-112355806D01*
X79355806Y-112355808D01*
X79311602Y-112421964D01*
X79307747Y-112441350D01*
X79300000Y-112480302D01*
X79300000Y-112875000D01*
X79601443Y-112875000D01*
X79653769Y-112896674D01*
X79675443Y-112949000D01*
X79675000Y-112955752D01*
X79675000Y-113047637D01*
X79673121Y-113047637D01*
X79660154Y-113096044D01*
X79611107Y-113124366D01*
X79601443Y-113125000D01*
X79300000Y-113125000D01*
X79300000Y-113519697D01*
X79304857Y-113544115D01*
X79311602Y-113578034D01*
X79340162Y-113620776D01*
X79355807Y-113644191D01*
X79355808Y-113644192D01*
X79421964Y-113688396D01*
X79480303Y-113700000D01*
X79875000Y-113700000D01*
X79875000Y-113398557D01*
X79896674Y-113346231D01*
X79949000Y-113324557D01*
X79955753Y-113325000D01*
X80047637Y-113325000D01*
X80047637Y-113326878D01*
X80096044Y-113339846D01*
X80124366Y-113388893D01*
X80125000Y-113398557D01*
X80125000Y-113700000D01*
X80519696Y-113700000D01*
X80519697Y-113700000D01*
X80578035Y-113688396D01*
X80644191Y-113644192D01*
X80644192Y-113644191D01*
X80688395Y-113578035D01*
X80688395Y-113578033D01*
X80689560Y-113575223D01*
X80696391Y-113562442D01*
X80703685Y-113551526D01*
X80750774Y-113520060D01*
X80800097Y-113527376D01*
X80804645Y-113529807D01*
X80822080Y-113542736D01*
X80823458Y-113544114D01*
X80938189Y-113620775D01*
X81065672Y-113673580D01*
X81201007Y-113700500D01*
X81201009Y-113700500D01*
X81338991Y-113700500D01*
X81338993Y-113700500D01*
X81474328Y-113673580D01*
X81601811Y-113620775D01*
X81716542Y-113544114D01*
X81814114Y-113446542D01*
X81835296Y-113414839D01*
X81855708Y-113394428D01*
X81865081Y-113388165D01*
X81920624Y-113377119D01*
X81923865Y-113377764D01*
X81970952Y-113409227D01*
X81995886Y-113446542D01*
X82093458Y-113544114D01*
X82208189Y-113620775D01*
X82335672Y-113673580D01*
X82471007Y-113700500D01*
X82471009Y-113700500D01*
X82608991Y-113700500D01*
X82608993Y-113700500D01*
X82744328Y-113673580D01*
X82871811Y-113620775D01*
X82986542Y-113544114D01*
X83084114Y-113446542D01*
X83105296Y-113414839D01*
X83125708Y-113394428D01*
X83135081Y-113388165D01*
X83190624Y-113377119D01*
X83193865Y-113377764D01*
X83240952Y-113409227D01*
X83265886Y-113446542D01*
X83363458Y-113544114D01*
X83478189Y-113620775D01*
X83605672Y-113673580D01*
X83741007Y-113700500D01*
X83741009Y-113700500D01*
X83878991Y-113700500D01*
X83878993Y-113700500D01*
X84014328Y-113673580D01*
X84141811Y-113620775D01*
X84256542Y-113544114D01*
X84354114Y-113446542D01*
X84375296Y-113414839D01*
X84395708Y-113394428D01*
X84405081Y-113388165D01*
X84460624Y-113377119D01*
X84463865Y-113377764D01*
X84510952Y-113409227D01*
X84535886Y-113446542D01*
X84633458Y-113544114D01*
X84748189Y-113620775D01*
X84875672Y-113673580D01*
X85011007Y-113700500D01*
X85011009Y-113700500D01*
X85148991Y-113700500D01*
X85148993Y-113700500D01*
X85284328Y-113673580D01*
X85411811Y-113620775D01*
X85526542Y-113544114D01*
X85624114Y-113446542D01*
X85700775Y-113331811D01*
X85709900Y-113309779D01*
X85725939Y-113285775D01*
X85739540Y-113272173D01*
X85791866Y-113250500D01*
X107470868Y-113250500D01*
X107499182Y-113256131D01*
X107524314Y-113266541D01*
X107548320Y-113282581D01*
X112383439Y-118117700D01*
X112399480Y-118141708D01*
X112403791Y-118152116D01*
X112403791Y-118208753D01*
X112401164Y-118215095D01*
X112361115Y-118255143D01*
X112340053Y-118263867D01*
X112311736Y-118269500D01*
X112066171Y-118269500D01*
X111974105Y-118307633D01*
X111974104Y-118307634D01*
X111974099Y-118307638D01*
X107864459Y-122417277D01*
X107840453Y-122433317D01*
X107830046Y-122437628D01*
X107773409Y-122437629D01*
X107770356Y-122436365D01*
X107730311Y-122396319D01*
X107709396Y-122345825D01*
X107709395Y-122345823D01*
X107709394Y-122345821D01*
X107699053Y-122330345D01*
X107621789Y-122214711D01*
X107510288Y-122103210D01*
X107434914Y-122052847D01*
X107420285Y-122043072D01*
X107410639Y-122028635D01*
X107233505Y-121955265D01*
X107233500Y-121955263D01*
X107233489Y-121955260D01*
X107129925Y-121934661D01*
X107129924Y-121934660D01*
X107078842Y-121924500D01*
X106921158Y-121924500D01*
X106877314Y-121933219D01*
X106877315Y-121933220D01*
X106766511Y-121955259D01*
X106766493Y-121955265D01*
X106620825Y-122015602D01*
X106489441Y-122103390D01*
X106488065Y-122104856D01*
X106379856Y-122213065D01*
X106378390Y-122214441D01*
X106290604Y-122345823D01*
X106290603Y-122345823D01*
X106230265Y-122491493D01*
X106230263Y-122491499D01*
X106230260Y-122491509D01*
X106199500Y-122646159D01*
X106199500Y-122695140D01*
X106193867Y-122723459D01*
X106186508Y-122741225D01*
X106146461Y-122781272D01*
X106131108Y-122787631D01*
X106131105Y-122787633D01*
X106060635Y-122858104D01*
X106060632Y-122858107D01*
X106022500Y-122950168D01*
X106022500Y-123138868D01*
X106016867Y-123167184D01*
X106006459Y-123192314D01*
X105990418Y-123216320D01*
X105937233Y-123269505D01*
X105913224Y-123285547D01*
X105905865Y-123288595D01*
X105849228Y-123288593D01*
X105809181Y-123248545D01*
X105806131Y-123241182D01*
X105800500Y-123212868D01*
X105800500Y-122320740D01*
X105800500Y-122320736D01*
X105800500Y-122320734D01*
X105797646Y-122290301D01*
X105770620Y-122213065D01*
X105752795Y-122162122D01*
X105752794Y-122162120D01*
X105752791Y-122162116D01*
X105709319Y-122103212D01*
X105709319Y-122103211D01*
X105684112Y-122069057D01*
X105672153Y-122052853D01*
X105672146Y-122052846D01*
X105562883Y-121972207D01*
X105562884Y-121972207D01*
X105562863Y-121972199D01*
X105489639Y-121946577D01*
X105477766Y-121935967D01*
X105434698Y-121927353D01*
X105431605Y-121927047D01*
X105431255Y-121927031D01*
X105429260Y-121926844D01*
X105404266Y-121924500D01*
X105404263Y-121924500D01*
X104595736Y-121924500D01*
X104595734Y-121924500D01*
X104571629Y-121926760D01*
X104568745Y-121927031D01*
X104567414Y-121927093D01*
X104565305Y-121927352D01*
X104565272Y-121927362D01*
X104437135Y-121972199D01*
X104437115Y-121972207D01*
X104327851Y-122052847D01*
X104327847Y-122052851D01*
X104247207Y-122162115D01*
X104247199Y-122162135D01*
X104202362Y-122290272D01*
X104202352Y-122290305D01*
X104202093Y-122292415D01*
X104202031Y-122293744D01*
X104199500Y-122320736D01*
X104199500Y-123679258D01*
X104199845Y-123682937D01*
X104196880Y-123711656D01*
X104193559Y-123722425D01*
X104157429Y-123766032D01*
X104150070Y-123769922D01*
X104115488Y-123778500D01*
X79798313Y-123778500D01*
X79769998Y-123772868D01*
X79744870Y-123762461D01*
X79720864Y-123746424D01*
X79572666Y-123598255D01*
X79556622Y-123574247D01*
X79549937Y-123558111D01*
X79546518Y-123511815D01*
X79547437Y-123508146D01*
X79550850Y-123497815D01*
X79550938Y-123497601D01*
X79550941Y-123497598D01*
X79630130Y-123306420D01*
X79670500Y-123103465D01*
X79670500Y-122896535D01*
X79630130Y-122693580D01*
X79550941Y-122502402D01*
X79435977Y-122330345D01*
X79289655Y-122184023D01*
X79256877Y-122162122D01*
X79209255Y-122130302D01*
X79117598Y-122069059D01*
X79117595Y-122069057D01*
X79117594Y-122069057D01*
X78926420Y-121989870D01*
X78926413Y-121989868D01*
X78926408Y-121989867D01*
X78926404Y-121989866D01*
X78837620Y-121972206D01*
X78773516Y-121959455D01*
X78773515Y-121959454D01*
X78723465Y-121949500D01*
X78516535Y-121949500D01*
X78476385Y-121957486D01*
X78313599Y-121989865D01*
X78313578Y-121989870D01*
X78122400Y-122069059D01*
X77950075Y-122184202D01*
X77948699Y-122185668D01*
X77805668Y-122328699D01*
X77804202Y-122330075D01*
X77689059Y-122502400D01*
X77609870Y-122693578D01*
X77609865Y-122693599D01*
X77569500Y-122896535D01*
X77130500Y-122896535D01*
X77090130Y-122693580D01*
X77010941Y-122502402D01*
X76895977Y-122330345D01*
X76749655Y-122184023D01*
X76716877Y-122162122D01*
X76669255Y-122130302D01*
X76577598Y-122069059D01*
X76577595Y-122069057D01*
X76577594Y-122069057D01*
X76386420Y-121989870D01*
X76386413Y-121989868D01*
X76386408Y-121989867D01*
X76386404Y-121989866D01*
X76297620Y-121972206D01*
X76233516Y-121959455D01*
X76233515Y-121959454D01*
X76183465Y-121949500D01*
X75976535Y-121949500D01*
X75936385Y-121957486D01*
X75773599Y-121989865D01*
X75773578Y-121989870D01*
X75582400Y-122069059D01*
X75410075Y-122184202D01*
X75408699Y-122185668D01*
X75265668Y-122328699D01*
X75264202Y-122330075D01*
X75149059Y-122502400D01*
X75069870Y-122693578D01*
X75069865Y-122693599D01*
X75029500Y-122896535D01*
X74590500Y-122896535D01*
X74550130Y-122693580D01*
X74470941Y-122502402D01*
X74355977Y-122330345D01*
X74209655Y-122184023D01*
X74176877Y-122162122D01*
X74129255Y-122130302D01*
X74037598Y-122069059D01*
X74037595Y-122069057D01*
X74037594Y-122069057D01*
X73846420Y-121989870D01*
X73846413Y-121989868D01*
X73846408Y-121989867D01*
X73846404Y-121989866D01*
X73757620Y-121972206D01*
X73693516Y-121959455D01*
X73693515Y-121959454D01*
X73643465Y-121949500D01*
X73436535Y-121949500D01*
X73396385Y-121957486D01*
X73233599Y-121989865D01*
X73233578Y-121989870D01*
X73042400Y-122069059D01*
X72870075Y-122184202D01*
X72868699Y-122185668D01*
X72725668Y-122328699D01*
X72724202Y-122330075D01*
X72609059Y-122502400D01*
X72529870Y-122693578D01*
X72529865Y-122693599D01*
X72489500Y-122896535D01*
X71522010Y-122896535D01*
X71574000Y-122875000D01*
X72050000Y-122875000D01*
X72050000Y-122130302D01*
X72038396Y-122071964D01*
X71994192Y-122005808D01*
X71994190Y-122005806D01*
X71928034Y-121961602D01*
X71898762Y-121955780D01*
X71869697Y-121950000D01*
X71869693Y-121950000D01*
X71125000Y-121950000D01*
X71125000Y-122426000D01*
X71103326Y-122478326D01*
X71051000Y-122500000D01*
X70949000Y-122500000D01*
X70896674Y-122478326D01*
X70875000Y-122426000D01*
X70875000Y-121950000D01*
X70130303Y-121950000D01*
X70130298Y-121950000D01*
X70071966Y-121961601D01*
X70005808Y-122005806D01*
X70005806Y-122005808D01*
X69961602Y-122071964D01*
X69955389Y-122103206D01*
X69950000Y-122130302D01*
X60000000Y-122130302D01*
X60000000Y-101509270D01*
X79110200Y-101509270D01*
X79110200Y-101614729D01*
X79137491Y-101716582D01*
X79137492Y-101716585D01*
X79137493Y-101716587D01*
X79190220Y-101807913D01*
X79264787Y-101882480D01*
X79356113Y-101935207D01*
X79453289Y-101961244D01*
X79456987Y-101962500D01*
X79563429Y-101962500D01*
X79573692Y-101962500D01*
X79582580Y-101957367D01*
X79665287Y-101935207D01*
X79677302Y-101928270D01*
X82111100Y-101928270D01*
X82111100Y-102033729D01*
X82138391Y-102135582D01*
X82138392Y-102135585D01*
X82138393Y-102135587D01*
X82191120Y-102226913D01*
X82265687Y-102301480D01*
X82357013Y-102354207D01*
X82454189Y-102380244D01*
X82457887Y-102381500D01*
X82458871Y-102381500D01*
X82458873Y-102381500D01*
X82512551Y-102381500D01*
X82540865Y-102387131D01*
X82565990Y-102397536D01*
X82589993Y-102413571D01*
X84790158Y-104613023D01*
X84801315Y-104629680D01*
X84814428Y-104637289D01*
X84837504Y-104660365D01*
X84837531Y-104660383D01*
X84837532Y-104660383D01*
X84837542Y-104660390D01*
X84837721Y-104660462D01*
X84885018Y-104680045D01*
X84885026Y-104680053D01*
X84885027Y-104680049D01*
X84929572Y-104698500D01*
X84929573Y-104698500D01*
X84929575Y-104698501D01*
X84929607Y-104698506D01*
X84929613Y-104698509D01*
X84985669Y-104698500D01*
X84993310Y-104698500D01*
X86087136Y-104698500D01*
X86115450Y-104704131D01*
X86140582Y-104714541D01*
X86164588Y-104730581D01*
X86202487Y-104768480D01*
X86293813Y-104821207D01*
X86390989Y-104847244D01*
X86394687Y-104848500D01*
X86501129Y-104848500D01*
X86511392Y-104848500D01*
X86520280Y-104843367D01*
X86602987Y-104821207D01*
X86694313Y-104768480D01*
X86768880Y-104693913D01*
X86821607Y-104602587D01*
X86843767Y-104519880D01*
X86848900Y-104510991D01*
X86848900Y-104394286D01*
X86847644Y-104390589D01*
X86821757Y-104293976D01*
X86821620Y-104293446D01*
X86821608Y-104293415D01*
X86768879Y-104202086D01*
X86694311Y-104127518D01*
X86602992Y-104074795D01*
X86602987Y-104074793D01*
X86602985Y-104074792D01*
X86602983Y-104074791D01*
X86602982Y-104074791D01*
X86501129Y-104047500D01*
X86501128Y-104047500D01*
X86395672Y-104047500D01*
X86395671Y-104047500D01*
X86315332Y-104069026D01*
X86293813Y-104074792D01*
X86293811Y-104074793D01*
X86293806Y-104074795D01*
X86202487Y-104127518D01*
X86164590Y-104165417D01*
X86140582Y-104181458D01*
X86115453Y-104191867D01*
X86087136Y-104197500D01*
X85128498Y-104197500D01*
X85100184Y-104191869D01*
X85086111Y-104186041D01*
X85075057Y-104181463D01*
X85051055Y-104165428D01*
X82944193Y-102059248D01*
X82928148Y-102035244D01*
X82917738Y-102010124D01*
X82912100Y-101981794D01*
X82912100Y-101927287D01*
X82910845Y-101923593D01*
X82890914Y-101849207D01*
X82884807Y-101826413D01*
X82832080Y-101735087D01*
X82757513Y-101660520D01*
X82757511Y-101660518D01*
X82666192Y-101607795D01*
X82666187Y-101607793D01*
X82666185Y-101607792D01*
X82666183Y-101607791D01*
X82666182Y-101607791D01*
X82564329Y-101580500D01*
X82564328Y-101580500D01*
X82458872Y-101580500D01*
X82458871Y-101580500D01*
X82378532Y-101602026D01*
X82357013Y-101607792D01*
X82357011Y-101607793D01*
X82357006Y-101607795D01*
X82265688Y-101660518D01*
X82191118Y-101735088D01*
X82138395Y-101826406D01*
X82138393Y-101826411D01*
X82138392Y-101826413D01*
X82138391Y-101826416D01*
X82138391Y-101826417D01*
X82111100Y-101928270D01*
X79677302Y-101928270D01*
X79756613Y-101882480D01*
X79831180Y-101807913D01*
X79883907Y-101716587D01*
X79906067Y-101633880D01*
X79911200Y-101624991D01*
X79911200Y-101508287D01*
X79909945Y-101504593D01*
X79890043Y-101430315D01*
X79888155Y-101423270D01*
X79883908Y-101407417D01*
X79883908Y-101407415D01*
X79879189Y-101399242D01*
X79831180Y-101316087D01*
X79756613Y-101241520D01*
X79738555Y-101231094D01*
X79738553Y-101231092D01*
X79684918Y-101200127D01*
X79665291Y-101188795D01*
X79665287Y-101188793D01*
X79665285Y-101188792D01*
X79665283Y-101188791D01*
X79665282Y-101188791D01*
X79563429Y-101161500D01*
X79563428Y-101161500D01*
X79457972Y-101161500D01*
X79457971Y-101161500D01*
X79377632Y-101183026D01*
X79356113Y-101188792D01*
X79356111Y-101188793D01*
X79356108Y-101188795D01*
X79331641Y-101202921D01*
X79264788Y-101241518D01*
X79190218Y-101316088D01*
X79137495Y-101407406D01*
X79137493Y-101407411D01*
X79137492Y-101407413D01*
X79137491Y-101407417D01*
X79110200Y-101509270D01*
X60000000Y-101509270D01*
X60000000Y-101033270D01*
X80741400Y-101033270D01*
X80741400Y-101138729D01*
X80768691Y-101240582D01*
X80768695Y-101240591D01*
X80816372Y-101323169D01*
X80816373Y-101323171D01*
X80821417Y-101331909D01*
X80821419Y-101331912D01*
X80821420Y-101331913D01*
X80895987Y-101406480D01*
X80987313Y-101459207D01*
X81084489Y-101485244D01*
X81088187Y-101486500D01*
X81194629Y-101486500D01*
X81204892Y-101486500D01*
X81213780Y-101481367D01*
X81296487Y-101459207D01*
X81387813Y-101406480D01*
X81462380Y-101331913D01*
X81515107Y-101240587D01*
X81537267Y-101157880D01*
X81542400Y-101148991D01*
X81542400Y-101032286D01*
X81541144Y-101028589D01*
X81523189Y-100961576D01*
X81519356Y-100947270D01*
X82111100Y-100947270D01*
X82111100Y-101052729D01*
X82136893Y-101148991D01*
X82138392Y-101154584D01*
X82138401Y-101154603D01*
X82158139Y-101188789D01*
X82158141Y-101188792D01*
X82158142Y-101188793D01*
X82191120Y-101245913D01*
X82265687Y-101320480D01*
X82357013Y-101373207D01*
X82454189Y-101399244D01*
X82457887Y-101400500D01*
X82564329Y-101400500D01*
X82574592Y-101400500D01*
X82583480Y-101395367D01*
X82666187Y-101373207D01*
X82757513Y-101320480D01*
X82832080Y-101245913D01*
X82884807Y-101154587D01*
X82906967Y-101071880D01*
X82912100Y-101062991D01*
X82912100Y-100946286D01*
X82910844Y-100942589D01*
X82884957Y-100845976D01*
X82884820Y-100845446D01*
X82884808Y-100845415D01*
X82884803Y-100845406D01*
X82832080Y-100754087D01*
X82757513Y-100679520D01*
X82757511Y-100679518D01*
X82666192Y-100626795D01*
X82666187Y-100626793D01*
X82666185Y-100626792D01*
X82666183Y-100626791D01*
X82666182Y-100626791D01*
X82564329Y-100599500D01*
X82564328Y-100599500D01*
X82458872Y-100599500D01*
X82458871Y-100599500D01*
X82378532Y-100621026D01*
X82357013Y-100626792D01*
X82357011Y-100626793D01*
X82357006Y-100626795D01*
X82265688Y-100679518D01*
X82191118Y-100754088D01*
X82138395Y-100845406D01*
X82138393Y-100845411D01*
X82138392Y-100845413D01*
X82138391Y-100845417D01*
X82111100Y-100947270D01*
X81519356Y-100947270D01*
X81515107Y-100931413D01*
X81462380Y-100840087D01*
X81387813Y-100765520D01*
X81387811Y-100765518D01*
X81296492Y-100712795D01*
X81296487Y-100712793D01*
X81296485Y-100712792D01*
X81296483Y-100712791D01*
X81296482Y-100712791D01*
X81194629Y-100685500D01*
X81194628Y-100685500D01*
X81089172Y-100685500D01*
X81089171Y-100685500D01*
X81008832Y-100707026D01*
X80987313Y-100712792D01*
X80987311Y-100712793D01*
X80987306Y-100712795D01*
X80895988Y-100765518D01*
X80821418Y-100840088D01*
X80768695Y-100931406D01*
X80768693Y-100931411D01*
X80768692Y-100931413D01*
X80768691Y-100931416D01*
X80768691Y-100931417D01*
X80741400Y-101033270D01*
X60000000Y-101033270D01*
X60000000Y-98088718D01*
X60005629Y-98060409D01*
X60009943Y-98049994D01*
X60049982Y-98009948D01*
X60060411Y-98005628D01*
X60088719Y-98000000D01*
X88071302Y-98000000D01*
X88099615Y-98005631D01*
G37*
%TD.AperFunction*%
%TD*%
%TA.AperFunction,Conductor*%
%TO.N,+3V3A*%
G36*
X158978326Y-76021674D02*
G01*
X159000000Y-76074000D01*
X159000000Y-96926000D01*
X158978326Y-96978326D01*
X158926000Y-97000000D01*
X131128345Y-97000000D01*
X131076019Y-96978326D01*
X131054345Y-96926000D01*
X131076018Y-96873675D01*
X135265411Y-92684670D01*
X141874500Y-92684670D01*
X141874500Y-92790129D01*
X141901791Y-92891982D01*
X141901795Y-92891991D01*
X141953750Y-92981979D01*
X141954520Y-92983313D01*
X142029087Y-93057880D01*
X142120413Y-93110607D01*
X142222270Y-93137899D01*
X142222271Y-93137900D01*
X142222273Y-93137900D01*
X142327729Y-93137900D01*
X142327729Y-93137899D01*
X142429587Y-93110607D01*
X142520913Y-93057880D01*
X142595480Y-92983313D01*
X142648207Y-92891987D01*
X142675499Y-92790129D01*
X142675500Y-92790129D01*
X142675500Y-92684671D01*
X142675499Y-92684670D01*
X142648208Y-92582817D01*
X142648207Y-92582813D01*
X142595480Y-92491487D01*
X142520913Y-92416920D01*
X142473119Y-92389326D01*
X142429591Y-92364195D01*
X142429582Y-92364191D01*
X142327729Y-92336900D01*
X142327727Y-92336900D01*
X142222273Y-92336900D01*
X142222271Y-92336900D01*
X142120417Y-92364191D01*
X142120408Y-92364195D01*
X142029086Y-92416920D01*
X141954520Y-92491486D01*
X141901795Y-92582808D01*
X141901791Y-92582817D01*
X141874500Y-92684670D01*
X135265411Y-92684670D01*
X136534228Y-91415970D01*
X139599500Y-91415970D01*
X139599500Y-91521429D01*
X139626791Y-91623282D01*
X139626795Y-91623291D01*
X139670200Y-91698470D01*
X139679520Y-91714613D01*
X139754087Y-91789180D01*
X139845413Y-91841907D01*
X139947270Y-91869199D01*
X139947271Y-91869200D01*
X139947273Y-91869200D01*
X140052729Y-91869200D01*
X140052729Y-91869199D01*
X140154587Y-91841907D01*
X140245913Y-91789180D01*
X140320480Y-91714613D01*
X140373207Y-91623287D01*
X140400499Y-91521429D01*
X140400500Y-91521429D01*
X140400500Y-91415971D01*
X140400499Y-91415970D01*
X140387452Y-91367279D01*
X140373207Y-91314113D01*
X140320480Y-91222787D01*
X140245913Y-91148220D01*
X140161578Y-91099529D01*
X140154591Y-91095495D01*
X140154582Y-91095491D01*
X140052729Y-91068200D01*
X140052727Y-91068200D01*
X139947273Y-91068200D01*
X139947271Y-91068200D01*
X139845417Y-91095491D01*
X139845408Y-91095495D01*
X139754086Y-91148220D01*
X139679520Y-91222786D01*
X139626795Y-91314108D01*
X139626791Y-91314117D01*
X139599500Y-91415970D01*
X136534228Y-91415970D01*
X137152286Y-90797969D01*
X137152313Y-90797948D01*
X137165388Y-90784873D01*
X137206736Y-90743524D01*
X137226020Y-90724242D01*
X137228739Y-90721760D01*
X137229027Y-90721169D01*
X137230446Y-90716868D01*
X137244102Y-90683903D01*
X137251730Y-90665489D01*
X137265507Y-90632231D01*
X137266450Y-90630162D01*
X137266500Y-90629936D01*
X137266500Y-90581700D01*
X137266500Y-90575012D01*
X137266503Y-90530184D01*
X137266501Y-90530180D01*
X137266502Y-90523549D01*
X137266500Y-90523515D01*
X137266500Y-87108698D01*
X137266526Y-87108424D01*
X137266522Y-87101309D01*
X137266524Y-87101307D01*
X137266500Y-87050887D01*
X137266500Y-87001772D01*
X137266500Y-87001771D01*
X137266476Y-87001652D01*
X137247402Y-86955666D01*
X137247388Y-86955632D01*
X137228364Y-86909703D01*
X137228295Y-86909600D01*
X137192582Y-86873921D01*
X137152863Y-86834202D01*
X137152646Y-86834024D01*
X136914496Y-86596103D01*
X136892797Y-86543788D01*
X136914446Y-86491451D01*
X136966761Y-86469752D01*
X136985950Y-86472273D01*
X136991273Y-86473700D01*
X137096729Y-86473700D01*
X137096729Y-86473699D01*
X137198587Y-86446407D01*
X137245941Y-86419066D01*
X137302093Y-86411674D01*
X137319941Y-86419067D01*
X137370413Y-86448207D01*
X137472270Y-86475499D01*
X137472271Y-86475500D01*
X137472273Y-86475500D01*
X137577729Y-86475500D01*
X137577729Y-86475499D01*
X137679587Y-86448207D01*
X137770913Y-86395480D01*
X137845480Y-86320913D01*
X137898207Y-86229587D01*
X137925499Y-86127729D01*
X137925500Y-86127729D01*
X137925500Y-86022273D01*
X137925245Y-86021322D01*
X137925310Y-86020827D01*
X137924867Y-86017462D01*
X137925768Y-86017343D01*
X137932631Y-85965168D01*
X137977560Y-85930685D01*
X138033714Y-85938071D01*
X138049044Y-85949832D01*
X138064382Y-85965168D01*
X138127823Y-86028604D01*
X138149500Y-86080928D01*
X138149500Y-86149229D01*
X138176791Y-86251082D01*
X138176795Y-86251091D01*
X138204736Y-86299486D01*
X138229520Y-86342413D01*
X138304087Y-86416980D01*
X138395413Y-86469707D01*
X138497270Y-86496999D01*
X138497271Y-86497000D01*
X138560500Y-86497000D01*
X138612826Y-86518674D01*
X138634500Y-86571000D01*
X138634500Y-88983151D01*
X138612826Y-89035477D01*
X138612816Y-89035487D01*
X137888996Y-89759036D01*
X137836680Y-89780700D01*
X137768271Y-89780700D01*
X137666417Y-89807991D01*
X137666408Y-89807995D01*
X137575086Y-89860720D01*
X137500520Y-89935286D01*
X137447795Y-90026608D01*
X137447791Y-90026617D01*
X137420500Y-90128470D01*
X137420500Y-90233929D01*
X137447791Y-90335782D01*
X137447792Y-90335785D01*
X137447793Y-90335787D01*
X137500520Y-90427113D01*
X137575087Y-90501680D01*
X137666413Y-90554407D01*
X137768270Y-90581699D01*
X137768271Y-90581700D01*
X137768273Y-90581700D01*
X137873729Y-90581700D01*
X137873729Y-90581699D01*
X137975587Y-90554407D01*
X138066913Y-90501680D01*
X138112472Y-90456121D01*
X138164797Y-90434446D01*
X138217123Y-90456120D01*
X138228884Y-90471446D01*
X138246339Y-90501679D01*
X138256520Y-90519313D01*
X138331087Y-90593880D01*
X138422413Y-90646607D01*
X138524270Y-90673899D01*
X138524271Y-90673900D01*
X138524273Y-90673900D01*
X138629729Y-90673900D01*
X138629729Y-90673899D01*
X138731587Y-90646607D01*
X138822913Y-90593880D01*
X138897480Y-90519313D01*
X138926701Y-90468699D01*
X138971634Y-90434222D01*
X138990787Y-90431700D01*
X142562500Y-90431700D01*
X142614826Y-90453374D01*
X142636500Y-90505700D01*
X142636500Y-90564729D01*
X142663791Y-90666582D01*
X142663795Y-90666591D01*
X142708214Y-90743527D01*
X142716520Y-90757913D01*
X142791087Y-90832480D01*
X142882413Y-90885207D01*
X142984270Y-90912499D01*
X142984271Y-90912500D01*
X142984273Y-90912500D01*
X143089729Y-90912500D01*
X143089729Y-90912499D01*
X143191587Y-90885207D01*
X143282913Y-90832480D01*
X143357480Y-90757913D01*
X143410207Y-90666587D01*
X143415484Y-90646891D01*
X143449961Y-90601959D01*
X143506113Y-90594565D01*
X143539283Y-90613714D01*
X144813823Y-91888110D01*
X144835500Y-91940435D01*
X144835500Y-92008729D01*
X144862791Y-92110582D01*
X144862795Y-92110591D01*
X144899043Y-92173374D01*
X144915520Y-92201913D01*
X144990087Y-92276480D01*
X145081413Y-92329207D01*
X145183270Y-92356499D01*
X145183271Y-92356500D01*
X145183273Y-92356500D01*
X145288729Y-92356500D01*
X145288729Y-92356499D01*
X145390587Y-92329207D01*
X145481913Y-92276480D01*
X145556480Y-92201913D01*
X145609207Y-92110587D01*
X145636499Y-92008729D01*
X145636500Y-92008729D01*
X145636500Y-91903271D01*
X145636499Y-91903270D01*
X145609208Y-91801417D01*
X145609207Y-91801413D01*
X145556480Y-91710087D01*
X145481913Y-91635520D01*
X145414517Y-91596609D01*
X145390591Y-91582795D01*
X145390582Y-91582791D01*
X145288729Y-91555500D01*
X145288727Y-91555500D01*
X145220385Y-91555500D01*
X145168062Y-91533829D01*
X143635441Y-90001380D01*
X143602895Y-89968834D01*
X143602887Y-89968829D01*
X143555027Y-89949007D01*
X143555027Y-89949006D01*
X143555024Y-89949006D01*
X143511068Y-89930799D01*
X143510833Y-89930700D01*
X143510818Y-89930697D01*
X143510814Y-89930697D01*
X143462978Y-89930699D01*
X143451019Y-89930700D01*
X139081694Y-89930700D01*
X139029368Y-89909026D01*
X139029327Y-89908985D01*
X138930596Y-89810098D01*
X138930308Y-89809747D01*
X138890004Y-89769443D01*
X138855064Y-89734448D01*
X138855063Y-89734447D01*
X138855061Y-89734446D01*
X138855040Y-89734432D01*
X138854898Y-89734336D01*
X138809013Y-89715330D01*
X138808958Y-89715307D01*
X138792781Y-89708591D01*
X138752765Y-89668511D01*
X138752811Y-89611873D01*
X138768837Y-89587912D01*
X139021451Y-89335393D01*
X139021532Y-89335328D01*
X139026895Y-89329964D01*
X139026897Y-89329964D01*
X139062716Y-89294144D01*
X139096926Y-89259947D01*
X139097349Y-89259536D01*
X139097351Y-89259533D01*
X139097445Y-89259301D01*
X139107831Y-89234229D01*
X139117701Y-89210400D01*
X139135491Y-89167475D01*
X139135491Y-89167449D01*
X139135500Y-89167428D01*
X139135500Y-89128770D01*
X144505500Y-89128770D01*
X144505500Y-89234229D01*
X144532791Y-89336082D01*
X144532795Y-89336091D01*
X144552372Y-89369999D01*
X144585520Y-89427413D01*
X144660087Y-89501980D01*
X144751413Y-89554707D01*
X144853270Y-89581999D01*
X144853271Y-89582000D01*
X144853273Y-89582000D01*
X144958729Y-89582000D01*
X144958729Y-89581999D01*
X145060587Y-89554707D01*
X145151913Y-89501980D01*
X145226480Y-89427413D01*
X145279207Y-89336087D01*
X145306499Y-89234229D01*
X145306500Y-89234229D01*
X145306500Y-89128771D01*
X145306499Y-89128770D01*
X145304329Y-89120673D01*
X145279207Y-89026913D01*
X145226480Y-88935587D01*
X145151913Y-88861020D01*
X145101649Y-88832000D01*
X145060591Y-88808295D01*
X145060582Y-88808291D01*
X144958729Y-88781000D01*
X144958727Y-88781000D01*
X144853273Y-88781000D01*
X144853271Y-88781000D01*
X144751417Y-88808291D01*
X144751408Y-88808295D01*
X144660086Y-88861020D01*
X144585520Y-88935586D01*
X144532795Y-89026908D01*
X144532791Y-89026917D01*
X144505500Y-89128770D01*
X139135500Y-89128770D01*
X139135500Y-89117647D01*
X139135509Y-89067820D01*
X139135507Y-89067817D01*
X139135509Y-89060674D01*
X139135500Y-89060572D01*
X139135500Y-88406900D01*
X139157174Y-88354574D01*
X139209500Y-88332900D01*
X139271729Y-88332900D01*
X139271729Y-88332899D01*
X139373587Y-88305607D01*
X139464913Y-88252880D01*
X139539480Y-88178313D01*
X139592207Y-88086987D01*
X139619499Y-87985129D01*
X139619500Y-87985129D01*
X139619500Y-87879671D01*
X139619499Y-87879670D01*
X139612029Y-87851793D01*
X139592207Y-87777813D01*
X139539480Y-87686487D01*
X139464913Y-87611920D01*
X139412723Y-87581788D01*
X139373591Y-87559195D01*
X139373582Y-87559191D01*
X139271729Y-87531900D01*
X139271727Y-87531900D01*
X139209500Y-87531900D01*
X139157174Y-87510226D01*
X139135500Y-87457900D01*
X139135500Y-86492670D01*
X140516500Y-86492670D01*
X140516500Y-86598129D01*
X140543791Y-86699982D01*
X140543795Y-86699991D01*
X140571794Y-86748487D01*
X140596520Y-86791313D01*
X140671087Y-86865880D01*
X140762413Y-86918607D01*
X140864270Y-86945899D01*
X140864271Y-86945900D01*
X140864273Y-86945900D01*
X140932646Y-86945900D01*
X140984966Y-86967568D01*
X142417348Y-88399609D01*
X142455104Y-88437365D01*
X142455121Y-88437376D01*
X142455126Y-88437378D01*
X142455129Y-88437381D01*
X142494858Y-88453832D01*
X142498906Y-88455508D01*
X142498905Y-88455508D01*
X142498909Y-88455509D01*
X142547172Y-88475500D01*
X142547174Y-88475500D01*
X142547176Y-88475501D01*
X142547199Y-88475506D01*
X142547201Y-88475505D01*
X142547202Y-88475506D01*
X142597030Y-88475500D01*
X144389455Y-88475500D01*
X144441781Y-88497174D01*
X144490087Y-88545480D01*
X144581413Y-88598207D01*
X144683270Y-88625499D01*
X144683271Y-88625500D01*
X144683273Y-88625500D01*
X144788729Y-88625500D01*
X144788729Y-88625499D01*
X144890587Y-88598207D01*
X144981913Y-88545480D01*
X145056480Y-88470913D01*
X145109207Y-88379587D01*
X145136499Y-88277729D01*
X145136500Y-88277729D01*
X145136500Y-88172271D01*
X145136499Y-88172270D01*
X145135735Y-88169420D01*
X145109207Y-88070413D01*
X145056480Y-87979087D01*
X144981913Y-87904520D01*
X144938873Y-87879671D01*
X144890591Y-87851795D01*
X144890582Y-87851791D01*
X144788729Y-87824500D01*
X144788727Y-87824500D01*
X144683273Y-87824500D01*
X144683271Y-87824500D01*
X144581417Y-87851791D01*
X144581408Y-87851795D01*
X144490086Y-87904520D01*
X144441781Y-87952826D01*
X144389455Y-87974500D01*
X142731390Y-87974500D01*
X142679070Y-87952832D01*
X141339180Y-86613260D01*
X141339178Y-86613255D01*
X141339174Y-86613254D01*
X141328415Y-86587280D01*
X141317500Y-86560937D01*
X141317500Y-86541170D01*
X143843500Y-86541170D01*
X143843500Y-86646629D01*
X143870791Y-86748482D01*
X143870795Y-86748491D01*
X143902492Y-86803391D01*
X143923520Y-86839813D01*
X143998087Y-86914380D01*
X144089413Y-86967107D01*
X144191270Y-86994399D01*
X144191271Y-86994400D01*
X144191273Y-86994400D01*
X144296729Y-86994400D01*
X144296729Y-86994399D01*
X144398587Y-86967107D01*
X144489913Y-86914380D01*
X144564480Y-86839813D01*
X144617207Y-86748487D01*
X144644499Y-86646629D01*
X144644500Y-86646629D01*
X144644500Y-86541171D01*
X144644499Y-86541170D01*
X144631504Y-86492673D01*
X144617207Y-86439313D01*
X144564480Y-86347987D01*
X144489913Y-86273420D01*
X144452409Y-86251767D01*
X144398591Y-86220695D01*
X144398582Y-86220691D01*
X144296729Y-86193400D01*
X144296727Y-86193400D01*
X144191273Y-86193400D01*
X144191271Y-86193400D01*
X144089417Y-86220691D01*
X144089408Y-86220695D01*
X143998086Y-86273420D01*
X143923520Y-86347986D01*
X143870795Y-86439308D01*
X143870791Y-86439317D01*
X143843500Y-86541170D01*
X141317500Y-86541170D01*
X141317500Y-86492671D01*
X141317499Y-86492670D01*
X141317172Y-86491451D01*
X141290207Y-86390813D01*
X141237480Y-86299487D01*
X141162913Y-86224920D01*
X141131873Y-86206999D01*
X141071591Y-86172195D01*
X141071582Y-86172191D01*
X140969729Y-86144900D01*
X140969727Y-86144900D01*
X140864273Y-86144900D01*
X140864271Y-86144900D01*
X140762417Y-86172191D01*
X140762408Y-86172195D01*
X140671086Y-86224920D01*
X140596520Y-86299486D01*
X140543795Y-86390808D01*
X140543791Y-86390817D01*
X140516500Y-86492670D01*
X139135500Y-86492670D01*
X139135500Y-86092991D01*
X139157174Y-86040665D01*
X139209500Y-86018991D01*
X139261826Y-86040665D01*
X139268139Y-86048894D01*
X139268568Y-86048566D01*
X139271518Y-86052411D01*
X139271520Y-86052413D01*
X139346087Y-86126980D01*
X139437413Y-86179707D01*
X139539270Y-86206999D01*
X139539271Y-86207000D01*
X139539273Y-86207000D01*
X139644729Y-86207000D01*
X139644729Y-86206999D01*
X139746587Y-86179707D01*
X139837913Y-86126980D01*
X139912480Y-86052413D01*
X139965207Y-85961087D01*
X139992499Y-85859229D01*
X139992500Y-85859229D01*
X139992500Y-85753771D01*
X139992499Y-85753770D01*
X139987526Y-85735212D01*
X139965207Y-85651913D01*
X139912480Y-85560587D01*
X139837913Y-85486020D01*
X139746591Y-85433295D01*
X139746582Y-85433291D01*
X139644729Y-85406000D01*
X139644727Y-85406000D01*
X139613500Y-85406000D01*
X139561174Y-85384326D01*
X139540338Y-85343104D01*
X139539500Y-85337582D01*
X139539500Y-85286473D01*
X139518841Y-85209370D01*
X141636500Y-85209370D01*
X141636500Y-85314829D01*
X141663791Y-85416682D01*
X141663795Y-85416691D01*
X141685467Y-85454227D01*
X141716520Y-85508013D01*
X141791087Y-85582580D01*
X141882413Y-85635307D01*
X141984270Y-85662599D01*
X141984271Y-85662600D01*
X141984273Y-85662600D01*
X142089729Y-85662600D01*
X142089729Y-85662599D01*
X142191587Y-85635307D01*
X142282913Y-85582580D01*
X142357480Y-85508013D01*
X142410207Y-85416687D01*
X142437499Y-85314829D01*
X142437500Y-85314829D01*
X142437500Y-85209371D01*
X142437499Y-85209370D01*
X142435597Y-85202273D01*
X142410207Y-85107513D01*
X142357480Y-85016187D01*
X142282913Y-84941620D01*
X142277024Y-84938220D01*
X142191591Y-84888895D01*
X142191582Y-84888891D01*
X142089729Y-84861600D01*
X142089727Y-84861600D01*
X141984273Y-84861600D01*
X141984271Y-84861600D01*
X141882417Y-84888891D01*
X141882408Y-84888895D01*
X141791086Y-84941620D01*
X141716520Y-85016186D01*
X141663795Y-85107508D01*
X141663791Y-85107517D01*
X141636500Y-85209370D01*
X139518841Y-85209370D01*
X139512207Y-85184613D01*
X139459480Y-85093287D01*
X139384913Y-85018720D01*
X139369498Y-85009820D01*
X139293591Y-84965995D01*
X139293582Y-84965991D01*
X139191729Y-84938700D01*
X139191727Y-84938700D01*
X139086273Y-84938700D01*
X139086271Y-84938700D01*
X138984417Y-84965991D01*
X138984408Y-84965995D01*
X138893086Y-85018720D01*
X138818520Y-85093286D01*
X138765795Y-85184608D01*
X138765791Y-85184617D01*
X138745431Y-85260601D01*
X138710952Y-85305534D01*
X138654800Y-85312926D01*
X138621633Y-85293780D01*
X138614324Y-85286473D01*
X138556938Y-85229100D01*
X138484180Y-85156359D01*
X138462500Y-85104036D01*
X138462500Y-85035771D01*
X138462499Y-85035770D01*
X138456742Y-85014286D01*
X138435207Y-84933913D01*
X138382480Y-84842587D01*
X138307913Y-84768020D01*
X138296769Y-84761586D01*
X138216591Y-84715295D01*
X138216582Y-84715291D01*
X138114729Y-84688000D01*
X138114727Y-84688000D01*
X138046549Y-84688000D01*
X137994223Y-84666326D01*
X137994208Y-84666311D01*
X137982758Y-84654855D01*
X137742574Y-84414536D01*
X137742472Y-84414411D01*
X137700106Y-84372045D01*
X137666952Y-84338872D01*
X137666900Y-84338837D01*
X137621649Y-84320094D01*
X137620091Y-84319448D01*
X137620076Y-84319433D01*
X137620073Y-84319441D01*
X137574898Y-84300714D01*
X137574897Y-84300713D01*
X137574864Y-84300700D01*
X137574828Y-84300700D01*
X137525070Y-84300700D01*
X137525045Y-84300699D01*
X137518822Y-84300698D01*
X137466503Y-84279007D01*
X137444846Y-84226674D01*
X137466520Y-84174372D01*
X137492480Y-84148413D01*
X137545207Y-84057087D01*
X137572499Y-83955229D01*
X137572500Y-83955229D01*
X137572500Y-83849771D01*
X137572499Y-83849770D01*
X137560795Y-83806091D01*
X137545207Y-83747913D01*
X137492480Y-83656587D01*
X137417913Y-83582020D01*
X137378157Y-83559067D01*
X137326591Y-83529295D01*
X137326582Y-83529291D01*
X137224729Y-83502000D01*
X137224727Y-83502000D01*
X137119273Y-83502000D01*
X137119271Y-83502000D01*
X137017417Y-83529291D01*
X137017408Y-83529295D01*
X136926086Y-83582020D01*
X136851520Y-83656586D01*
X136798795Y-83747908D01*
X136798791Y-83747917D01*
X136771500Y-83849770D01*
X136771500Y-83955229D01*
X136798791Y-84057082D01*
X136798795Y-84057091D01*
X136851520Y-84148413D01*
X136877481Y-84174374D01*
X136899155Y-84226700D01*
X136877481Y-84279026D01*
X136825155Y-84300700D01*
X134174158Y-84300700D01*
X134174097Y-84300694D01*
X134111442Y-84300700D01*
X134067161Y-84300700D01*
X134067151Y-84300703D01*
X134067151Y-84300704D01*
X134067127Y-84300714D01*
X134020353Y-84320092D01*
X134020349Y-84320094D01*
X133975092Y-84338839D01*
X133942237Y-84371702D01*
X133942232Y-84371707D01*
X133900436Y-84413502D01*
X133900404Y-84413540D01*
X131124902Y-87189521D01*
X131072578Y-87211200D01*
X129039545Y-87211200D01*
X128987219Y-87189526D01*
X128938913Y-87141220D01*
X128847591Y-87088495D01*
X128847582Y-87088491D01*
X128745729Y-87061200D01*
X128745727Y-87061200D01*
X128640273Y-87061200D01*
X128640271Y-87061200D01*
X128538417Y-87088491D01*
X128538408Y-87088495D01*
X128447086Y-87141220D01*
X128372520Y-87215786D01*
X128319795Y-87307108D01*
X128319791Y-87307117D01*
X128292500Y-87408970D01*
X128292500Y-87463900D01*
X128270826Y-87516226D01*
X128218500Y-87537900D01*
X116074000Y-87537900D01*
X116021674Y-87516226D01*
X116000000Y-87463900D01*
X116000000Y-84954770D01*
X132123500Y-84954770D01*
X132123500Y-85060229D01*
X132150791Y-85162082D01*
X132150795Y-85162091D01*
X132181291Y-85214911D01*
X132203520Y-85253413D01*
X132278087Y-85327980D01*
X132369413Y-85380707D01*
X132471270Y-85407999D01*
X132471271Y-85408000D01*
X132471273Y-85408000D01*
X132576729Y-85408000D01*
X132576729Y-85407999D01*
X132678587Y-85380707D01*
X132769913Y-85327980D01*
X132844480Y-85253413D01*
X132897207Y-85162087D01*
X132924499Y-85060229D01*
X132924500Y-85060229D01*
X132924500Y-84984840D01*
X132946173Y-84932515D01*
X135325856Y-82552831D01*
X135325859Y-82552830D01*
X135336264Y-82542425D01*
X135336265Y-82542425D01*
X135405325Y-82473365D01*
X135426674Y-82421824D01*
X135427107Y-82420780D01*
X135442701Y-82383133D01*
X135442701Y-82279509D01*
X135442700Y-82279495D01*
X135442700Y-82197645D01*
X135464373Y-82145320D01*
X135477766Y-82131927D01*
X135494127Y-82115565D01*
X135546452Y-82093891D01*
X135598778Y-82115564D01*
X135613315Y-82140681D01*
X135614939Y-82140009D01*
X135616795Y-82144491D01*
X135645899Y-82194900D01*
X135669520Y-82235813D01*
X135744087Y-82310380D01*
X135835413Y-82363107D01*
X135937270Y-82390399D01*
X135937271Y-82390400D01*
X135937273Y-82390400D01*
X136042729Y-82390400D01*
X136042729Y-82390399D01*
X136144587Y-82363107D01*
X136235913Y-82310380D01*
X136286423Y-82259870D01*
X137287500Y-82259870D01*
X137287500Y-82365329D01*
X137314791Y-82467182D01*
X137314795Y-82467191D01*
X137367520Y-82558513D01*
X137420826Y-82611819D01*
X137442500Y-82664145D01*
X137442500Y-82902134D01*
X137479873Y-82992362D01*
X137479876Y-82992366D01*
X137930166Y-83442656D01*
X137951840Y-83494982D01*
X137930166Y-83547308D01*
X137914841Y-83559067D01*
X137875087Y-83582019D01*
X137800520Y-83656586D01*
X137747795Y-83747908D01*
X137747791Y-83747917D01*
X137720500Y-83849770D01*
X137720500Y-83955229D01*
X137747791Y-84057082D01*
X137747795Y-84057091D01*
X137788038Y-84126793D01*
X137800520Y-84148413D01*
X137875087Y-84222980D01*
X137966413Y-84275707D01*
X138068270Y-84302999D01*
X138068271Y-84303000D01*
X138068273Y-84303000D01*
X138173729Y-84303000D01*
X138173729Y-84302999D01*
X138275587Y-84275707D01*
X138275593Y-84275703D01*
X138276025Y-84275525D01*
X138276266Y-84275524D01*
X138280271Y-84274452D01*
X138280558Y-84275524D01*
X138332662Y-84275521D01*
X138356674Y-84291564D01*
X138530234Y-84465124D01*
X138530237Y-84465126D01*
X138575351Y-84483812D01*
X138620467Y-84502500D01*
X138620468Y-84502500D01*
X141464332Y-84502500D01*
X141464333Y-84502500D01*
X141537368Y-84472248D01*
X141554563Y-84465126D01*
X141554563Y-84465125D01*
X141554565Y-84465125D01*
X141586749Y-84432941D01*
X141599015Y-84420675D01*
X141651340Y-84399000D01*
X141726729Y-84399000D01*
X141726729Y-84398999D01*
X141828587Y-84371707D01*
X141919913Y-84318980D01*
X141994480Y-84244413D01*
X142047207Y-84153087D01*
X142074499Y-84051229D01*
X142074500Y-84051229D01*
X142074500Y-83945771D01*
X142074499Y-83945770D01*
X142047208Y-83843917D01*
X142047207Y-83843913D01*
X141994480Y-83752587D01*
X141919913Y-83678020D01*
X141913395Y-83674257D01*
X141828591Y-83625295D01*
X141828582Y-83625291D01*
X141726729Y-83598000D01*
X141726727Y-83598000D01*
X141621273Y-83598000D01*
X141621271Y-83598000D01*
X141519417Y-83625291D01*
X141519406Y-83625296D01*
X141503814Y-83634298D01*
X141447661Y-83641689D01*
X141402729Y-83607209D01*
X141395339Y-83589368D01*
X141390207Y-83570213D01*
X141337480Y-83478887D01*
X141262913Y-83404320D01*
X141256295Y-83400499D01*
X141171591Y-83351595D01*
X141171582Y-83351591D01*
X141069729Y-83324300D01*
X141069727Y-83324300D01*
X140964273Y-83324300D01*
X140964271Y-83324300D01*
X140862417Y-83351591D01*
X140862408Y-83351595D01*
X140771086Y-83404320D01*
X140722781Y-83452626D01*
X140670455Y-83474300D01*
X139011211Y-83474300D01*
X138961384Y-83474258D01*
X138961383Y-83474258D01*
X138961379Y-83474258D01*
X138961375Y-83474259D01*
X138961289Y-83474276D01*
X138961179Y-83474297D01*
X138915201Y-83493341D01*
X138915146Y-83493364D01*
X138907821Y-83496391D01*
X138879559Y-83502000D01*
X138780273Y-83502000D01*
X138745524Y-83511310D01*
X138689371Y-83503916D01*
X138674047Y-83492157D01*
X138611850Y-83429960D01*
X138611843Y-83429954D01*
X138251076Y-83069187D01*
X138229402Y-83016861D01*
X138251076Y-82964535D01*
X138266399Y-82952777D01*
X138341913Y-82909180D01*
X138416480Y-82834613D01*
X138469207Y-82743287D01*
X138496499Y-82641429D01*
X138496500Y-82641429D01*
X138496500Y-82535971D01*
X138496499Y-82535970D01*
X138496151Y-82534673D01*
X138469207Y-82434113D01*
X138416480Y-82342787D01*
X138342174Y-82268481D01*
X138320500Y-82216155D01*
X138320500Y-81937770D01*
X139609500Y-81937770D01*
X139609500Y-82043229D01*
X139636791Y-82145082D01*
X139636795Y-82145091D01*
X139664348Y-82192814D01*
X139689520Y-82236413D01*
X139764087Y-82310980D01*
X139855413Y-82363707D01*
X139957270Y-82390999D01*
X139957271Y-82391000D01*
X139957273Y-82391000D01*
X140062729Y-82391000D01*
X140062729Y-82390999D01*
X140160328Y-82364848D01*
X140216481Y-82372240D01*
X140231807Y-82384000D01*
X140250087Y-82402280D01*
X140341413Y-82455007D01*
X140443270Y-82482299D01*
X140443271Y-82482300D01*
X140443273Y-82482300D01*
X140548729Y-82482300D01*
X140548729Y-82482299D01*
X140650587Y-82455007D01*
X140741913Y-82402280D01*
X140795219Y-82348974D01*
X140847545Y-82327300D01*
X141714185Y-82327300D01*
X141766511Y-82348974D01*
X141778270Y-82364299D01*
X141782555Y-82371720D01*
X141824120Y-82443713D01*
X141853581Y-82473174D01*
X141875255Y-82525500D01*
X141853581Y-82577826D01*
X141801255Y-82599500D01*
X141757271Y-82599500D01*
X141655417Y-82626791D01*
X141655408Y-82626795D01*
X141564086Y-82679520D01*
X141489520Y-82754086D01*
X141436795Y-82845408D01*
X141436791Y-82845417D01*
X141409500Y-82947270D01*
X141409500Y-83052729D01*
X141436791Y-83154582D01*
X141436795Y-83154591D01*
X141469605Y-83211420D01*
X141489520Y-83245913D01*
X141564087Y-83320480D01*
X141655413Y-83373207D01*
X141757270Y-83400499D01*
X141757271Y-83400500D01*
X141757273Y-83400500D01*
X141862729Y-83400500D01*
X141862729Y-83400499D01*
X141964587Y-83373207D01*
X142024892Y-83338389D01*
X142081044Y-83330996D01*
X142125977Y-83365474D01*
X142133371Y-83421626D01*
X142126500Y-83447271D01*
X142126500Y-83552729D01*
X142153791Y-83654582D01*
X142153795Y-83654591D01*
X142176475Y-83693873D01*
X142206520Y-83745913D01*
X142281087Y-83820480D01*
X142372413Y-83873207D01*
X142474270Y-83900499D01*
X142474271Y-83900500D01*
X142474273Y-83900500D01*
X142579729Y-83900500D01*
X142579729Y-83900499D01*
X142681587Y-83873207D01*
X142772913Y-83820480D01*
X142847480Y-83745913D01*
X142900207Y-83654587D01*
X142927499Y-83552729D01*
X142927500Y-83552729D01*
X142927500Y-83447271D01*
X142927499Y-83447270D01*
X142908755Y-83377317D01*
X142900207Y-83345413D01*
X142847480Y-83254087D01*
X142772913Y-83179520D01*
X142689567Y-83131400D01*
X142681591Y-83126795D01*
X142681582Y-83126791D01*
X142579729Y-83099500D01*
X142579727Y-83099500D01*
X142474273Y-83099500D01*
X142474271Y-83099500D01*
X142372417Y-83126791D01*
X142372408Y-83126795D01*
X142312107Y-83161610D01*
X142255954Y-83169002D01*
X142211021Y-83134524D01*
X142203629Y-83078371D01*
X142210499Y-83052729D01*
X142210500Y-83052729D01*
X142210500Y-82947271D01*
X142210499Y-82947270D01*
X142208045Y-82938113D01*
X142183207Y-82845413D01*
X142130480Y-82754087D01*
X142101019Y-82724626D01*
X142079345Y-82672300D01*
X142101019Y-82619974D01*
X142153345Y-82598300D01*
X142197329Y-82598300D01*
X142197329Y-82598299D01*
X142299187Y-82571007D01*
X142390513Y-82518280D01*
X142465080Y-82443713D01*
X142517807Y-82352387D01*
X142545099Y-82250529D01*
X142545100Y-82250529D01*
X142545100Y-82145071D01*
X142545099Y-82145070D01*
X142544941Y-82144482D01*
X142517807Y-82043213D01*
X142492643Y-81999627D01*
X142472953Y-81965523D01*
X142472952Y-81965522D01*
X142465080Y-81951887D01*
X142446563Y-81933370D01*
X142899500Y-81933370D01*
X142899500Y-82038829D01*
X142926791Y-82140682D01*
X142926795Y-82140691D01*
X142970364Y-82216155D01*
X142979520Y-82232013D01*
X143054087Y-82306580D01*
X143145413Y-82359307D01*
X143247270Y-82386599D01*
X143247271Y-82386600D01*
X143247273Y-82386600D01*
X143352729Y-82386600D01*
X143352729Y-82386599D01*
X143454587Y-82359307D01*
X143545913Y-82306580D01*
X143620480Y-82232013D01*
X143673207Y-82140687D01*
X143700499Y-82038829D01*
X143700500Y-82038829D01*
X143700500Y-81933371D01*
X143700499Y-81933370D01*
X143691243Y-81898827D01*
X143673207Y-81831513D01*
X143620480Y-81740187D01*
X143545913Y-81665620D01*
X143533737Y-81658590D01*
X143454591Y-81612895D01*
X143454582Y-81612891D01*
X143352729Y-81585600D01*
X143352727Y-81585600D01*
X143247273Y-81585600D01*
X143247271Y-81585600D01*
X143145417Y-81612891D01*
X143145408Y-81612895D01*
X143054086Y-81665620D01*
X142979520Y-81740186D01*
X142926795Y-81831508D01*
X142926791Y-81831517D01*
X142899500Y-81933370D01*
X142446563Y-81933370D01*
X142390513Y-81877320D01*
X142299191Y-81824595D01*
X142299182Y-81824591D01*
X142197329Y-81797300D01*
X142197327Y-81797300D01*
X142091873Y-81797300D01*
X142091871Y-81797300D01*
X141990017Y-81824591D01*
X141990004Y-81824596D01*
X141986906Y-81826386D01*
X141949907Y-81836300D01*
X140847545Y-81836300D01*
X140795219Y-81814626D01*
X140741913Y-81761320D01*
X140650591Y-81708595D01*
X140650582Y-81708591D01*
X140548729Y-81681300D01*
X140548727Y-81681300D01*
X140443273Y-81681300D01*
X140345670Y-81707452D01*
X140289518Y-81700059D01*
X140274192Y-81688299D01*
X140255913Y-81670020D01*
X140164591Y-81617295D01*
X140164582Y-81617291D01*
X140062729Y-81590000D01*
X140062727Y-81590000D01*
X139957273Y-81590000D01*
X139957271Y-81590000D01*
X139855417Y-81617291D01*
X139855408Y-81617295D01*
X139764086Y-81670020D01*
X139689520Y-81744586D01*
X139636795Y-81835908D01*
X139636791Y-81835917D01*
X139609500Y-81937770D01*
X138320500Y-81937770D01*
X138320500Y-80023870D01*
X143267500Y-80023870D01*
X143267500Y-80129329D01*
X143294791Y-80231182D01*
X143294792Y-80231185D01*
X143294793Y-80231187D01*
X143347520Y-80322513D01*
X143422087Y-80397080D01*
X143513413Y-80449807D01*
X143615270Y-80477099D01*
X143615271Y-80477100D01*
X143615273Y-80477100D01*
X143720729Y-80477100D01*
X143720729Y-80477099D01*
X143822587Y-80449807D01*
X143913913Y-80397080D01*
X143988480Y-80322513D01*
X144041207Y-80231187D01*
X144068499Y-80129329D01*
X144068500Y-80129329D01*
X144068500Y-80023871D01*
X144068499Y-80023870D01*
X144043159Y-79929300D01*
X144041207Y-79922013D01*
X143988480Y-79830687D01*
X143913913Y-79756120D01*
X143840289Y-79713613D01*
X143822591Y-79703395D01*
X143822582Y-79703391D01*
X143720729Y-79676100D01*
X143720727Y-79676100D01*
X143615273Y-79676100D01*
X143615271Y-79676100D01*
X143513417Y-79703391D01*
X143513408Y-79703395D01*
X143422086Y-79756120D01*
X143347520Y-79830686D01*
X143294795Y-79922008D01*
X143294791Y-79922017D01*
X143267500Y-80023870D01*
X138320500Y-80023870D01*
X138320500Y-79801345D01*
X138342174Y-79749019D01*
X138390480Y-79700713D01*
X138443207Y-79609387D01*
X138464293Y-79530689D01*
X138498771Y-79485758D01*
X138554923Y-79478365D01*
X138599857Y-79512844D01*
X138607249Y-79530691D01*
X138631791Y-79622282D01*
X138631792Y-79622285D01*
X138631793Y-79622287D01*
X138684520Y-79713613D01*
X138759087Y-79788180D01*
X138850413Y-79840907D01*
X138952270Y-79868199D01*
X138952271Y-79868200D01*
X138952273Y-79868200D01*
X139057729Y-79868200D01*
X139057729Y-79868199D01*
X139159587Y-79840907D01*
X139250913Y-79788180D01*
X139325480Y-79713613D01*
X139378207Y-79622287D01*
X139405499Y-79520429D01*
X139405500Y-79520429D01*
X139405500Y-79414971D01*
X139405499Y-79414970D01*
X139378208Y-79313117D01*
X139378207Y-79313113D01*
X139325480Y-79221787D01*
X139250913Y-79147220D01*
X139228570Y-79134320D01*
X139159591Y-79094495D01*
X139159582Y-79094491D01*
X139057729Y-79067200D01*
X139057727Y-79067200D01*
X138952273Y-79067200D01*
X138952271Y-79067200D01*
X138850417Y-79094491D01*
X138850408Y-79094495D01*
X138759086Y-79147220D01*
X138684520Y-79221786D01*
X138631795Y-79313108D01*
X138631791Y-79313117D01*
X138610706Y-79391808D01*
X138576228Y-79436741D01*
X138520075Y-79444133D01*
X138475142Y-79409655D01*
X138467750Y-79391808D01*
X138443208Y-79300217D01*
X138443207Y-79300213D01*
X138390480Y-79208887D01*
X138315913Y-79134320D01*
X138246934Y-79094495D01*
X138224591Y-79081595D01*
X138224582Y-79081591D01*
X138122729Y-79054300D01*
X138122727Y-79054300D01*
X138017273Y-79054300D01*
X138017271Y-79054300D01*
X137915417Y-79081591D01*
X137915408Y-79081595D01*
X137824086Y-79134320D01*
X137749520Y-79208886D01*
X137696795Y-79300208D01*
X137696791Y-79300217D01*
X137669500Y-79402070D01*
X137669500Y-79507529D01*
X137696791Y-79609382D01*
X137696795Y-79609391D01*
X137749520Y-79700713D01*
X137797826Y-79749019D01*
X137819500Y-79801345D01*
X137819500Y-81838100D01*
X137797826Y-81890426D01*
X137745500Y-81912100D01*
X137635271Y-81912100D01*
X137533417Y-81939391D01*
X137533408Y-81939395D01*
X137442086Y-81992120D01*
X137367520Y-82066686D01*
X137314795Y-82158008D01*
X137314791Y-82158017D01*
X137287500Y-82259870D01*
X136286423Y-82259870D01*
X136310480Y-82235813D01*
X136363207Y-82144487D01*
X136390499Y-82042629D01*
X136390500Y-82042629D01*
X136390500Y-82006091D01*
X136412174Y-81953765D01*
X136427496Y-81942008D01*
X136507913Y-81895580D01*
X136582480Y-81821013D01*
X136635207Y-81729687D01*
X136662499Y-81627829D01*
X136662500Y-81627829D01*
X136662500Y-81522371D01*
X136662499Y-81522370D01*
X136649242Y-81472895D01*
X136635207Y-81420513D01*
X136582480Y-81329187D01*
X136507913Y-81254620D01*
X136416591Y-81201895D01*
X136416582Y-81201891D01*
X136314729Y-81174600D01*
X136314727Y-81174600D01*
X136209273Y-81174600D01*
X136209271Y-81174600D01*
X136107417Y-81201891D01*
X136107408Y-81201895D01*
X136016086Y-81254620D01*
X135941520Y-81329186D01*
X135888795Y-81420508D01*
X135888791Y-81420517D01*
X135861500Y-81522370D01*
X135861500Y-81558907D01*
X135839826Y-81611233D01*
X135824500Y-81622993D01*
X135744085Y-81669421D01*
X135744083Y-81669422D01*
X135693071Y-81720434D01*
X135640745Y-81742108D01*
X135588420Y-81720433D01*
X135573905Y-81695309D01*
X135572261Y-81695991D01*
X135570408Y-81691517D01*
X135570407Y-81691513D01*
X135517680Y-81600187D01*
X135443113Y-81525620D01*
X135378667Y-81488412D01*
X135351791Y-81472895D01*
X135351782Y-81472891D01*
X135249929Y-81445600D01*
X135249927Y-81445600D01*
X135144473Y-81445600D01*
X135144471Y-81445600D01*
X135042617Y-81472891D01*
X135042608Y-81472895D01*
X134951286Y-81525620D01*
X134876720Y-81600186D01*
X134823995Y-81691508D01*
X134823991Y-81691517D01*
X134796700Y-81793370D01*
X134796700Y-81898829D01*
X134823991Y-82000682D01*
X134823995Y-82000691D01*
X134876720Y-82092013D01*
X134930026Y-82145319D01*
X134951700Y-82197645D01*
X134951700Y-82201958D01*
X134930026Y-82254284D01*
X133912991Y-83271318D01*
X133860665Y-83292992D01*
X133808339Y-83271318D01*
X133796576Y-83255986D01*
X133795479Y-83254086D01*
X133720913Y-83179520D01*
X133629591Y-83126795D01*
X133629582Y-83126791D01*
X133527729Y-83099500D01*
X133527727Y-83099500D01*
X133422273Y-83099500D01*
X133422271Y-83099500D01*
X133320417Y-83126791D01*
X133320408Y-83126795D01*
X133228873Y-83179643D01*
X133172720Y-83187035D01*
X133154877Y-83179644D01*
X133118587Y-83158693D01*
X133118582Y-83158691D01*
X133016729Y-83131400D01*
X133016727Y-83131400D01*
X132911273Y-83131400D01*
X132911271Y-83131400D01*
X132809417Y-83158691D01*
X132809408Y-83158695D01*
X132718086Y-83211420D01*
X132643520Y-83285986D01*
X132590795Y-83377308D01*
X132590791Y-83377317D01*
X132563500Y-83479170D01*
X132563500Y-83584629D01*
X132590791Y-83686482D01*
X132590795Y-83686491D01*
X132628955Y-83752586D01*
X132643520Y-83777813D01*
X132718087Y-83852380D01*
X132809413Y-83905107D01*
X132911270Y-83932399D01*
X132911271Y-83932400D01*
X132911273Y-83932400D01*
X133016728Y-83932400D01*
X133032395Y-83928201D01*
X133071229Y-83917796D01*
X133127381Y-83925188D01*
X133161860Y-83970120D01*
X133154468Y-84026273D01*
X133142708Y-84041600D01*
X132598983Y-84585326D01*
X132546657Y-84607000D01*
X132471271Y-84607000D01*
X132369417Y-84634291D01*
X132369408Y-84634295D01*
X132278086Y-84687020D01*
X132203520Y-84761586D01*
X132150795Y-84852908D01*
X132150791Y-84852917D01*
X132123500Y-84954770D01*
X116000000Y-84954770D01*
X116000000Y-82947270D01*
X130119500Y-82947270D01*
X130119500Y-83052729D01*
X130146791Y-83154582D01*
X130146795Y-83154591D01*
X130179605Y-83211420D01*
X130199520Y-83245913D01*
X130274087Y-83320480D01*
X130365413Y-83373207D01*
X130467270Y-83400499D01*
X130467271Y-83400500D01*
X130467273Y-83400500D01*
X130572729Y-83400500D01*
X130572729Y-83400499D01*
X130674587Y-83373207D01*
X130765913Y-83320480D01*
X130840480Y-83245913D01*
X130893207Y-83154587D01*
X130920499Y-83052729D01*
X130920500Y-83052729D01*
X130920500Y-82947271D01*
X130920499Y-82947270D01*
X130918045Y-82938113D01*
X130893207Y-82845413D01*
X130840480Y-82754087D01*
X130765913Y-82679520D01*
X130739283Y-82664145D01*
X130674591Y-82626795D01*
X130674582Y-82626791D01*
X130572729Y-82599500D01*
X130572727Y-82599500D01*
X130467273Y-82599500D01*
X130467271Y-82599500D01*
X130365417Y-82626791D01*
X130365408Y-82626795D01*
X130274086Y-82679520D01*
X130199520Y-82754086D01*
X130146795Y-82845408D01*
X130146791Y-82845417D01*
X130119500Y-82947270D01*
X116000000Y-82947270D01*
X116000000Y-82121570D01*
X133423500Y-82121570D01*
X133423500Y-82227029D01*
X133450791Y-82328882D01*
X133450795Y-82328891D01*
X133486307Y-82390399D01*
X133503520Y-82420213D01*
X133578087Y-82494780D01*
X133669413Y-82547507D01*
X133771270Y-82574799D01*
X133771271Y-82574800D01*
X133771273Y-82574800D01*
X133876729Y-82574800D01*
X133876729Y-82574799D01*
X133978587Y-82547507D01*
X134069913Y-82494780D01*
X134144480Y-82420213D01*
X134197207Y-82328887D01*
X134224499Y-82227029D01*
X134224500Y-82227029D01*
X134224500Y-82121571D01*
X134224499Y-82121570D01*
X134216579Y-82092013D01*
X134197207Y-82019713D01*
X134144480Y-81928387D01*
X134069913Y-81853820D01*
X134042186Y-81837812D01*
X133978591Y-81801095D01*
X133978582Y-81801091D01*
X133876729Y-81773800D01*
X133876727Y-81773800D01*
X133771273Y-81773800D01*
X133771271Y-81773800D01*
X133669417Y-81801091D01*
X133669408Y-81801095D01*
X133578086Y-81853820D01*
X133503520Y-81928386D01*
X133450795Y-82019708D01*
X133450791Y-82019717D01*
X133423500Y-82121570D01*
X116000000Y-82121570D01*
X116000000Y-76074000D01*
X116021674Y-76021674D01*
X116074000Y-76000000D01*
X158926000Y-76000000D01*
X158978326Y-76021674D01*
G37*
%TD.AperFunction*%
%TA.AperFunction,Conductor*%
G36*
X103978326Y-76021674D02*
G01*
X104000000Y-76074000D01*
X104000000Y-92000000D01*
X105906425Y-92000000D01*
X105958751Y-92021674D01*
X105980425Y-92074000D01*
X105958751Y-92126326D01*
X103366337Y-94718704D01*
X103314010Y-94740378D01*
X103261686Y-94718704D01*
X103103676Y-94560679D01*
X99232266Y-90688909D01*
X99232246Y-90688885D01*
X99173189Y-90629828D01*
X99173187Y-90629825D01*
X99156800Y-90613437D01*
X99104293Y-90591688D01*
X99104290Y-90591685D01*
X99104290Y-90591687D01*
X99064739Y-90575302D01*
X99064730Y-90575300D01*
X99064728Y-90575300D01*
X99024878Y-90575300D01*
X99024869Y-90575299D01*
X98965084Y-90575297D01*
X98965083Y-90575297D01*
X98957586Y-90575297D01*
X98957556Y-90575300D01*
X89349600Y-90575300D01*
X89297274Y-90553626D01*
X89275600Y-90501300D01*
X89275600Y-90394971D01*
X89275599Y-90394970D01*
X89248308Y-90293117D01*
X89248307Y-90293113D01*
X89195580Y-90201787D01*
X89121013Y-90127220D01*
X89078219Y-90102513D01*
X89029691Y-90074495D01*
X89029682Y-90074491D01*
X88927829Y-90047200D01*
X88927827Y-90047200D01*
X88859512Y-90047200D01*
X88807186Y-90025526D01*
X88233901Y-89452241D01*
X88212227Y-89399915D01*
X88233901Y-89347589D01*
X88249222Y-89335832D01*
X88314613Y-89298080D01*
X88389180Y-89223513D01*
X88441907Y-89132187D01*
X88469199Y-89030329D01*
X88469200Y-89030329D01*
X88469200Y-88924871D01*
X88469199Y-88924870D01*
X88459963Y-88890400D01*
X88443256Y-88828048D01*
X88450648Y-88771898D01*
X88495579Y-88737420D01*
X88519887Y-88730907D01*
X88611213Y-88678180D01*
X88685780Y-88603613D01*
X88738507Y-88512287D01*
X88765799Y-88410429D01*
X88765800Y-88410429D01*
X88765800Y-88304971D01*
X88765799Y-88304970D01*
X88765511Y-88303897D01*
X88738507Y-88203113D01*
X88685780Y-88111787D01*
X88611213Y-88037220D01*
X88594528Y-88027587D01*
X88519891Y-87984495D01*
X88519882Y-87984491D01*
X88418029Y-87957200D01*
X88418027Y-87957200D01*
X88352350Y-87957200D01*
X88300024Y-87935526D01*
X88283983Y-87911518D01*
X88250965Y-87831805D01*
X88250963Y-87831802D01*
X85742074Y-85322913D01*
X85720400Y-85270587D01*
X85720400Y-85202271D01*
X85720399Y-85202270D01*
X85719157Y-85197636D01*
X85693107Y-85100413D01*
X85640380Y-85009087D01*
X85587163Y-84955870D01*
X86845200Y-84955870D01*
X86845200Y-85061329D01*
X86872491Y-85163182D01*
X86872495Y-85163191D01*
X86895058Y-85202271D01*
X86925220Y-85254513D01*
X86999787Y-85329080D01*
X87091113Y-85381807D01*
X87192970Y-85409099D01*
X87192971Y-85409100D01*
X87192973Y-85409100D01*
X87298429Y-85409100D01*
X87298429Y-85409099D01*
X87400287Y-85381807D01*
X87491613Y-85329080D01*
X87566180Y-85254513D01*
X87618907Y-85163187D01*
X87646199Y-85061329D01*
X87646200Y-85061329D01*
X87646200Y-84955871D01*
X87646199Y-84955870D01*
X87641707Y-84939107D01*
X87618907Y-84854013D01*
X87566180Y-84762687D01*
X87491613Y-84688120D01*
X87436130Y-84656087D01*
X87400291Y-84635395D01*
X87400282Y-84635391D01*
X87298429Y-84608100D01*
X87298427Y-84608100D01*
X87192973Y-84608100D01*
X87192971Y-84608100D01*
X87091117Y-84635391D01*
X87091108Y-84635395D01*
X86999786Y-84688120D01*
X86925220Y-84762686D01*
X86872495Y-84854008D01*
X86872491Y-84854017D01*
X86845200Y-84955870D01*
X85587163Y-84955870D01*
X85565813Y-84934520D01*
X85506887Y-84900499D01*
X85474491Y-84881795D01*
X85474482Y-84881791D01*
X85372629Y-84854500D01*
X85372627Y-84854500D01*
X85267173Y-84854500D01*
X85267171Y-84854500D01*
X85165317Y-84881791D01*
X85165308Y-84881795D01*
X85073986Y-84934520D01*
X84999420Y-85009086D01*
X84946695Y-85100408D01*
X84946692Y-85100415D01*
X84934424Y-85146199D01*
X84899945Y-85191131D01*
X84843792Y-85198523D01*
X84834628Y-85195412D01*
X84747928Y-85159500D01*
X83436545Y-85159500D01*
X83384219Y-85137826D01*
X83335913Y-85089520D01*
X83244591Y-85036795D01*
X83244582Y-85036791D01*
X83142729Y-85009500D01*
X83142727Y-85009500D01*
X83037273Y-85009500D01*
X83037271Y-85009500D01*
X82935417Y-85036791D01*
X82935408Y-85036795D01*
X82844086Y-85089520D01*
X82769520Y-85164086D01*
X82716795Y-85255408D01*
X82716791Y-85255417D01*
X82689500Y-85357270D01*
X82689500Y-85436800D01*
X82667826Y-85489126D01*
X82615500Y-85510800D01*
X82519571Y-85510800D01*
X82417717Y-85538091D01*
X82417708Y-85538095D01*
X82326386Y-85590820D01*
X82251820Y-85665386D01*
X82199095Y-85756708D01*
X82199091Y-85756717D01*
X82171800Y-85858570D01*
X82171800Y-85926886D01*
X82150126Y-85979212D01*
X82027026Y-86102312D01*
X81974700Y-86123986D01*
X81922374Y-86102312D01*
X81900700Y-86049986D01*
X81900700Y-86039771D01*
X81900699Y-86039770D01*
X81895131Y-86018991D01*
X81873407Y-85937913D01*
X81820680Y-85846587D01*
X81746113Y-85772020D01*
X81741535Y-85769377D01*
X81654791Y-85719295D01*
X81654782Y-85719291D01*
X81552929Y-85692000D01*
X81552927Y-85692000D01*
X81484663Y-85692000D01*
X81432338Y-85670326D01*
X81426458Y-85664445D01*
X81404788Y-85612118D01*
X81426464Y-85559797D01*
X81439962Y-85546299D01*
X81439965Y-85546295D01*
X81451615Y-85518168D01*
X81478100Y-85454228D01*
X81478100Y-85354572D01*
X81478100Y-85223145D01*
X81499774Y-85170819D01*
X81552100Y-85149145D01*
X81604426Y-85170819D01*
X81656087Y-85222480D01*
X81747413Y-85275207D01*
X81849270Y-85302499D01*
X81849271Y-85302500D01*
X81849273Y-85302500D01*
X81954729Y-85302500D01*
X81954729Y-85302499D01*
X82056587Y-85275207D01*
X82147913Y-85222480D01*
X82222480Y-85147913D01*
X82275207Y-85056587D01*
X82302499Y-84954729D01*
X82302500Y-84954729D01*
X82302500Y-84849271D01*
X82302499Y-84849270D01*
X82300708Y-84842587D01*
X82275207Y-84747413D01*
X82222480Y-84656087D01*
X82147913Y-84581520D01*
X82121796Y-84566441D01*
X82087318Y-84521509D01*
X82094711Y-84465356D01*
X82121795Y-84438271D01*
X82195913Y-84395480D01*
X82270480Y-84320913D01*
X82323207Y-84229587D01*
X82338108Y-84173974D01*
X82351756Y-84123042D01*
X82354360Y-84123740D01*
X82378321Y-84082174D01*
X82433018Y-84067477D01*
X82482087Y-84095762D01*
X82487496Y-84103851D01*
X82493451Y-84114165D01*
X82512820Y-84147713D01*
X82587387Y-84222280D01*
X82678713Y-84275007D01*
X82780570Y-84302299D01*
X82780571Y-84302300D01*
X82780573Y-84302300D01*
X82886029Y-84302300D01*
X82886029Y-84302299D01*
X82987887Y-84275007D01*
X83079213Y-84222280D01*
X83127519Y-84173974D01*
X83179845Y-84152300D01*
X83923027Y-84152300D01*
X83923028Y-84152300D01*
X84015097Y-84114164D01*
X84448175Y-83681085D01*
X84500500Y-83659412D01*
X84552826Y-83681086D01*
X84574500Y-83733412D01*
X84574500Y-83799329D01*
X84601791Y-83901182D01*
X84601795Y-83901191D01*
X84627535Y-83945773D01*
X84654520Y-83992513D01*
X84729087Y-84067080D01*
X84820413Y-84119807D01*
X84922270Y-84147099D01*
X84922271Y-84147100D01*
X84922273Y-84147100D01*
X85027729Y-84147100D01*
X85027729Y-84147099D01*
X85129587Y-84119807D01*
X85199401Y-84079499D01*
X85255552Y-84072107D01*
X85300486Y-84106586D01*
X85310400Y-84143586D01*
X85310400Y-84184329D01*
X85337691Y-84286182D01*
X85337695Y-84286191D01*
X85371884Y-84345408D01*
X85390420Y-84377513D01*
X85464987Y-84452080D01*
X85556313Y-84504807D01*
X85658170Y-84532099D01*
X85658171Y-84532100D01*
X85658173Y-84532100D01*
X85763629Y-84532100D01*
X85763629Y-84532099D01*
X85865487Y-84504807D01*
X85956813Y-84452080D01*
X86031380Y-84377513D01*
X86084107Y-84286187D01*
X86090876Y-84260923D01*
X86125353Y-84215991D01*
X86181506Y-84208598D01*
X86199351Y-84215990D01*
X86273513Y-84258807D01*
X86375370Y-84286099D01*
X86375371Y-84286100D01*
X86375373Y-84286100D01*
X86480829Y-84286100D01*
X86480829Y-84286099D01*
X86582687Y-84258807D01*
X86674013Y-84206080D01*
X86748580Y-84131513D01*
X86801307Y-84040187D01*
X86828599Y-83938329D01*
X86828600Y-83938329D01*
X86828600Y-83832871D01*
X86828599Y-83832870D01*
X86827585Y-83829087D01*
X86801307Y-83731013D01*
X86748580Y-83639687D01*
X86674013Y-83565120D01*
X86643162Y-83547308D01*
X86582691Y-83512395D01*
X86582682Y-83512391D01*
X86480829Y-83485100D01*
X86480827Y-83485100D01*
X86375373Y-83485100D01*
X86375371Y-83485100D01*
X86273517Y-83512391D01*
X86273508Y-83512395D01*
X86182186Y-83565120D01*
X86107620Y-83639686D01*
X86054895Y-83731008D01*
X86054892Y-83731014D01*
X86048123Y-83756277D01*
X86013643Y-83801209D01*
X85957490Y-83808600D01*
X85939645Y-83801208D01*
X85865491Y-83758395D01*
X85865482Y-83758391D01*
X85763629Y-83731100D01*
X85763627Y-83731100D01*
X85658173Y-83731100D01*
X85658171Y-83731100D01*
X85556317Y-83758391D01*
X85556308Y-83758395D01*
X85486500Y-83798699D01*
X85430347Y-83806091D01*
X85385414Y-83771613D01*
X85375500Y-83734613D01*
X85375500Y-83693871D01*
X85375499Y-83693870D01*
X85373519Y-83686482D01*
X85348207Y-83592013D01*
X85295480Y-83500687D01*
X85220913Y-83426120D01*
X85136368Y-83377308D01*
X85129591Y-83373395D01*
X85129582Y-83373391D01*
X85027729Y-83346100D01*
X85027727Y-83346100D01*
X84961812Y-83346100D01*
X84909486Y-83324426D01*
X84887812Y-83272100D01*
X84909486Y-83219774D01*
X85079634Y-83049626D01*
X85288341Y-82840919D01*
X85340665Y-82819246D01*
X85392991Y-82840920D01*
X85414665Y-82893246D01*
X85412144Y-82912397D01*
X85402800Y-82947271D01*
X85402800Y-83052729D01*
X85430091Y-83154582D01*
X85430095Y-83154591D01*
X85462905Y-83211420D01*
X85482820Y-83245913D01*
X85557387Y-83320480D01*
X85648713Y-83373207D01*
X85750570Y-83400499D01*
X85750571Y-83400500D01*
X85750573Y-83400500D01*
X85856029Y-83400500D01*
X85856029Y-83400499D01*
X85957887Y-83373207D01*
X86049213Y-83320480D01*
X86123780Y-83245913D01*
X86176507Y-83154587D01*
X86203799Y-83052729D01*
X86203800Y-83052729D01*
X86203800Y-82947271D01*
X86203799Y-82947270D01*
X86201345Y-82938113D01*
X86176507Y-82845413D01*
X86123780Y-82754087D01*
X86049213Y-82679520D01*
X86022583Y-82664145D01*
X85957891Y-82626795D01*
X85957882Y-82626791D01*
X85861276Y-82600905D01*
X85816343Y-82566426D01*
X85808951Y-82510274D01*
X85843429Y-82465341D01*
X85920613Y-82420780D01*
X85995180Y-82346213D01*
X86047907Y-82254887D01*
X86075199Y-82153029D01*
X86075200Y-82153029D01*
X86075200Y-82047571D01*
X86075199Y-82047570D01*
X86074544Y-82045127D01*
X86047907Y-81945713D01*
X85995180Y-81854387D01*
X85920613Y-81779820D01*
X85875315Y-81753667D01*
X85829291Y-81727095D01*
X85829282Y-81727091D01*
X85727429Y-81699800D01*
X85727427Y-81699800D01*
X85621973Y-81699800D01*
X85621971Y-81699800D01*
X85520117Y-81727091D01*
X85520108Y-81727095D01*
X85428786Y-81779820D01*
X85354220Y-81854386D01*
X85301495Y-81945708D01*
X85301491Y-81945717D01*
X85274200Y-82047570D01*
X85274200Y-82115887D01*
X85252526Y-82168213D01*
X83791113Y-83629626D01*
X83738787Y-83651300D01*
X83179845Y-83651300D01*
X83127519Y-83629626D01*
X83079213Y-83581320D01*
X82987891Y-83528595D01*
X82987882Y-83528591D01*
X82886029Y-83501300D01*
X82886027Y-83501300D01*
X82780573Y-83501300D01*
X82780571Y-83501300D01*
X82678717Y-83528591D01*
X82678708Y-83528595D01*
X82587386Y-83581320D01*
X82512820Y-83655886D01*
X82460095Y-83747208D01*
X82460091Y-83747217D01*
X82431544Y-83853758D01*
X82428953Y-83853063D01*
X82404929Y-83894662D01*
X82350220Y-83909314D01*
X82301175Y-83880988D01*
X82295803Y-83872948D01*
X82284724Y-83853758D01*
X82270480Y-83829087D01*
X82220302Y-83778909D01*
X82198628Y-83726583D01*
X82220301Y-83674258D01*
X83621858Y-82272701D01*
X83674183Y-82251028D01*
X83726509Y-82272702D01*
X83765487Y-82311680D01*
X83856813Y-82364407D01*
X83958670Y-82391699D01*
X83958671Y-82391700D01*
X83958673Y-82391700D01*
X84064129Y-82391700D01*
X84064129Y-82391699D01*
X84158495Y-82366414D01*
X84214646Y-82373806D01*
X84229973Y-82385566D01*
X84244087Y-82399680D01*
X84335413Y-82452407D01*
X84437270Y-82479699D01*
X84437271Y-82479700D01*
X84437273Y-82479700D01*
X84542729Y-82479700D01*
X84542729Y-82479699D01*
X84644587Y-82452407D01*
X84735913Y-82399680D01*
X84810480Y-82325113D01*
X84863207Y-82233787D01*
X84890499Y-82131929D01*
X84890500Y-82131929D01*
X84890500Y-82026471D01*
X84890499Y-82026470D01*
X84888688Y-82019713D01*
X84863207Y-81924613D01*
X84810480Y-81833287D01*
X84735913Y-81758720D01*
X84703811Y-81740186D01*
X84644591Y-81705995D01*
X84644582Y-81705991D01*
X84542729Y-81678700D01*
X84542727Y-81678700D01*
X84437273Y-81678700D01*
X84401578Y-81688264D01*
X84345425Y-81680870D01*
X84310947Y-81635937D01*
X84318341Y-81579784D01*
X84330096Y-81564463D01*
X89728464Y-76166097D01*
X89766600Y-76074028D01*
X89766600Y-76074000D01*
X89766610Y-76073974D01*
X89768022Y-76066879D01*
X89769433Y-76067159D01*
X89788274Y-76021674D01*
X89840600Y-76000000D01*
X103926000Y-76000000D01*
X103978326Y-76021674D01*
G37*
%TD.AperFunction*%
%TD*%
M02*
