#VRML V2.0 utf8
Transform { translation -1.0 0 -0.37401574803149606 rotation 1 0 0 1.570796 children [ Shape { appearance Appearance { material Material { diffuseColor 0.72 0.55 0.2 } } geometry Cylinder { radius 0.1700787401574803 height 1.3779527559055118 } } ] }
Transform { translation -1.0 0 0.15551181102362205 rotation 1 0 0 1.570796 children [ Shape { appearance Appearance { material Material { diffuseColor 0.72 0.55 0.2 } } geometry Cylinder { radius 0.29015748031496064 height 0.3110236220472441 } } ] }
Transform { translation 0.0 0 -0.37401574803149606 rotation 1 0 0 1.570796 children [ Shape { appearance Appearance { material Material { diffuseColor 0.72 0.55 0.2 } } geometry Cylinder { radius 0.1700787401574803 height 1.3779527559055118 } } ] }
Transform { translation 0.0 0 0.15551181102362205 rotation 1 0 0 1.570796 children [ Shape { appearance Appearance { material Material { diffuseColor 0.72 0.55 0.2 } } geometry Cylinder { radius 0.29015748031496064 height 0.3110236220472441 } } ] }
Transform { translation 1.0 0 -0.37401574803149606 rotation 1 0 0 1.570796 children [ Shape { appearance Appearance { material Material { diffuseColor 0.72 0.55 0.2 } } geometry Cylinder { radius 0.1700787401574803 height 1.3779527559055118 } } ] }
Transform { translation 1.0 0 0.15551181102362205 rotation 1 0 0 1.570796 children [ Shape { appearance Appearance { material Material { diffuseColor 0.72 0.55 0.2 } } geometry Cylinder { radius 0.29015748031496064 height 0.3110236220472441 } } ] }